<svg width="824" height="320" viewBox="0 0 824 320" fill="none" xmlns="http://www.w3.org/2000/svg">
<path d="M51.5 1H0V54M51.5 1V54M51.5 1H103M51.5 54H0M51.5 54V107M51.5 54H103M0 54V107M51.5 107H0M51.5 107V160M51.5 107H103M0 107V160M51.5 160H0M51.5 160V213M51.5 160H103M0 160V213M51.5 213H0M51.5 213V266M51.5 213H103M0 213V266M51.5 266H0M51.5 266V319M51.5 266H103M0 266V319H51.5M51.5 319H103M103 1V54M103 1H154.5M103 54V107M103 54H154.5M103 107V160M103 107H154.5M103 160V213M103 160H154.5M103 213V266M103 213H154.5M103 266V319M103 266H154.5M103 319H154.5M154.5 1V54M154.5 1H206M154.5 54V107M154.5 54H206M154.5 107V160M154.5 107H206M154.5 160V213M154.5 160H206M154.5 213V266M154.5 213H206M154.5 266V319M154.5 266H206M154.5 319H206M206 1V54M206 1H257.5M206 54V107M206 54H257.5M206 107V160M206 107H257.5M206 160V213M206 160H257.5M206 213V266M206 213H257.5M206 266V319M206 266H257.5M206 319H257.5M257.5 1V54M257.5 1H309M257.5 54V107M257.5 54H309M257.5 107V160M257.5 107H309M257.5 160V213M257.5 160H309M257.5 213V266M257.5 213H309M257.5 266V319M257.5 266H309M257.5 319H309M309 1V54M309 1H360.5M309 54V107M309 54H360.5M309 107V160M309 107H360.5M309 160V213M309 160H360.5M309 213V266M309 213H360.5M309 266V319M309 266H360.5M309 319H360.5M360.5 1V54M360.5 1H412M360.5 54V107M360.5 54H412M360.5 107V160M360.5 107H412M360.5 160V213M360.5 160H412M360.5 213V266M360.5 213H412M360.5 266V319M360.5 266H412M360.5 319H412M412 1V54M412 1H463.5M412 54V107M412 54H463.5M412 107V160M412 107H463.5M412 160V213M412 160H463.5M412 213V266M412 213H463.5M412 266V319M412 266H463.5M412 319H463.5M463.5 1V54M463.5 1H515M463.5 54V107M463.5 54H515M463.5 107V160M463.5 107H515M463.5 160V213M463.5 160H515M463.5 213V266M463.5 213H515M463.5 266V319M463.5 266H515M463.5 319H515M515 1V54M515 1H566.5M515 54V107M515 54H566.5M515 107V160M515 107H566.5M515 160V213M515 160H566.5M515 213V266M515 213H566.5M515 266V319M515 266H566.5M515 319H566.5M566.5 1V54M566.5 1H618M566.5 54V107M566.5 54H618M566.5 107V160M566.5 107H618M566.5 160V213M566.5 160H618M566.5 213V266M566.5 213H618M566.5 266V319M566.5 266H618M566.5 319H618M618 1V54M618 1H669.5M618 54V107M618 54H669.5M618 107V160M618 107H669.5M618 160V213M618 160H669.5M618 213V266M618 213H669.5M618 266V319M618 266H669.5M618 319H669.5M669.5 1V54M669.5 1H721M669.5 54V107M669.5 54H721M669.5 107V160M669.5 107H721M669.5 160V213M669.5 160H721M669.5 213V266M669.5 213H721M669.5 266V319M669.5 266H721M669.5 319H721M721 1V54M721 1H772.5M721 54V107M721 54H772.5M721 107V160M721 107H772.5M721 160V213M721 160H772.5M721 213V266M721 213H772.5M721 266V319M721 266H772.5M721 319H772.5M772.5 1V54M772.5 1H824V54M772.5 54V107M772.5 54H824M772.5 107V160M772.5 107H824M772.5 160V213M772.5 160H824M772.5 213V266M772.5 213H824M772.5 266V319M772.5 266H824M772.5 319H824V266M824 54V107M824 107V160M824 160V213M824 213V266" stroke="url(#paint0_radial_35452_932)" stroke-opacity="0.24"/>
<defs>
<radialGradient id="paint0_radial_35452_932" cx="0" cy="0" r="1" gradientUnits="userSpaceOnUse" gradientTransform="translate(412 160) rotate(90) scale(159 412)">
<stop stop-color="#717784"/>
<stop offset="1" stop-color="#717784" stop-opacity="0"/>
</radialGradient>
</defs>
</svg>
