<svg xmlns="http://www.w3.org/2000/svg" fill="none" viewBox="0 0 20 20">
  <path fill="currentColor" d="m10.044 16.875-.357-.157c-1.1-.645-2.687-1.577-4.137-2.93C3.525 11.891 2.5 9.806 2.5 7.596c0-2.511 1.813-4.471 4.125-4.471 1.175 0 2.438.557 3.375 1.49.938-.933 2.2-1.49 3.375-1.49 2.35 0 4.125 1.922 4.125 4.47 0 2.217-1.025 4.296-3.05 6.193-1.45 1.359-3.106 2.33-4.094 2.905l-.312.182ZM6.625 4.377c-1.638 0-2.875 1.384-2.875 3.219 0 1.834.894 3.625 2.65 5.272 1.231 1.152 2.606 1.997 3.6 2.58 1.031-.608 2.381-1.44 3.6-2.58 1.756-1.647 2.65-3.419 2.65-5.272 0-1.854-1.238-3.219-2.875-3.219-1.262 0-2.231.864-2.494 1.127l-.881.87-.881-.87c-.269-.263-1.231-1.127-2.494-1.127Z"/>
</svg>