<svg width="24" height="24" viewBox="0 0 24 24" fill="none" xmlns="http://www.w3.org/2000/svg">
<path d="M16.05 3.75C14.64 3.75 13.1325 4.41872 12.0075 5.53825C10.8825 4.41872 9.36 3.75 7.95 3.75C5.175 3.75 3 6.10178 3 9.11475C3 11.7746 4.23 14.2691 6.66 16.5458C8.4 18.1762 10.305 19.2958 11.625 20.0622L12.0525 20.25L12.4275 20.0321C13.6125 19.3408 15.6 18.1762 17.34 16.5458C19.77 14.2766 21 11.7746 21 9.11475C21 6.05669 18.87 3.75 16.05 3.75ZM16.32 15.4413C14.88 16.7937 13.2375 17.778 12.0075 18.5068C12.0525 16.4255 12.0375 10.3846 12.0075 7.63456L13.0575 6.60519C13.38 6.28962 14.535 5.25273 16.05 5.25273C18.015 5.25273 19.5 6.91325 19.5 9.11475C19.5 11.3163 18.4275 13.4652 16.32 15.4413Z" fill="currentColor"/>
</svg>
