<svg width="34" height="26" viewBox="0 0 34 26" fill="none" xmlns="http://www.w3.org/2000/svg">
<g filter="url(#filter0_ii_35912_5029)">
<path d="M1 4C1 2.34315 2.34315 1 4 1H30C31.6569 1 33 2.34315 33 4V22C33 23.6569 31.6569 25 30 25H4C2.34315 25 1 23.6569 1 22V4Z" fill="currentColor"/>
<path d="M14 10H20V16H14V10Z" fill="currentColor"/>
</g>
<path d="M14 10H20M14 10V16M14 10L12.0204 7.56304C11.4508 6.86175 10.5954 6.45455 9.69188 6.45455H1M20 10V16M20 10L22.2241 7.47266C22.7936 6.82545 23.6141 6.45455 24.4762 6.45455H33M20 16H14M20 16L22.2241 18.5273C22.7936 19.1746 23.6141 19.5455 24.4762 19.5455H33M14 16L12.0204 18.437C11.4508 19.1383 10.5954 19.5455 9.69187 19.5455H1M17.25 1V7M17.25 19V25M33 13.2727H23M11 13.2727H1M4 25H30C31.6569 25 33 23.6569 33 22V4C33 2.34315 31.6569 1 30 1H4C2.34315 1 1 2.34315 1 4V22C1 23.6569 2.34315 25 4 25Z" stroke="#0E121B"/>
<defs>
<filter id="filter0_ii_35912_5029" x="0.5" y="-1.5" width="33" height="29" filterUnits="userSpaceOnUse" color-interpolation-filters="sRGB">
<feFlood flood-opacity="0" result="BackgroundImageFix"/>
<feBlend mode="normal" in="SourceGraphic" in2="BackgroundImageFix" result="shape"/>
<feColorMatrix in="SourceAlpha" type="matrix" values="0 0 0 0 0 0 0 0 0 0 0 0 0 0 0 0 0 0 127 0" result="hardAlpha"/>
<feOffset dy="2"/>
<feGaussianBlur stdDeviation="3"/>
<feComposite in2="hardAlpha" operator="arithmetic" k2="-1" k3="1"/>
<feColorMatrix type="matrix" values="0 0 0 0 0 0 0 0 0 0 0 0 0 0 0 0 0 0 1 0"/>
<feBlend mode="overlay" in2="shape" result="effect1_innerShadow_35912_5029"/>
<feColorMatrix in="SourceAlpha" type="matrix" values="0 0 0 0 0 0 0 0 0 0 0 0 0 0 0 0 0 0 127 0" result="hardAlpha"/>
<feOffset dy="-2"/>
<feGaussianBlur stdDeviation="1"/>
<feComposite in2="hardAlpha" operator="arithmetic" k2="-1" k3="1"/>
<feColorMatrix type="matrix" values="0 0 0 0 0 0 0 0 0 0 0 0 0 0 0 0 0 0 0.48 0"/>
<feBlend mode="overlay" in2="effect1_innerShadow_35912_5029" result="effect2_innerShadow_35912_5029"/>
</filter>
</defs>
</svg>