<svg width="40" height="40" viewBox="0 0 40 40" fill="none" xmlns="http://www.w3.org/2000/svg">
<path d="M0 20C0 8.95431 8.95431 0 20 0C31.0457 0 40 8.95431 40 20C40 31.0457 31.0457 40 20 40C8.95431 40 0 31.0457 0 20Z" fill="#FB3748"/>
<path fill-rule="evenodd" clip-rule="evenodd" d="M32.8833 23.448C29.6523 24.0129 25.2781 23.7961 20.0705 21.1924C15.0201 18.6672 11.0004 18.699 8.28935 19.3014C7.68758 19.4351 7.14624 19.598 6.6687 19.7699C6.6674 19.8464 6.66675 19.923 6.66675 19.9998C6.66675 27.3637 12.6363 33.3332 20.0001 33.3332C26.1715 33.3332 31.3636 29.1405 32.8833 23.448Z" fill="url(#paint0_linear_254_5096)" fill-opacity="0.9"/>
<path fill-rule="evenodd" clip-rule="evenodd" d="M33.2406 18.4189C29.978 19.0631 25.4726 18.9308 20.0704 16.2297C15.02 13.7045 11.0003 13.7363 8.28931 14.3388C8.14938 14.3699 8.01273 14.4025 7.87939 14.4365C7.52445 15.2085 7.24113 16.0202 7.03784 16.8631C7.25496 16.8051 7.47933 16.75 7.71081 16.6985C10.9998 15.9677 15.6468 15.9994 21.263 18.8075C26.3134 21.3327 30.3331 21.3009 33.0442 20.6985C33.137 20.6779 33.2286 20.6565 33.3186 20.6345C33.3284 20.4243 33.3334 20.2128 33.3334 20.0001C33.3334 19.4651 33.3019 18.9375 33.2406 18.4189Z" fill="url(#paint1_linear_254_5096)" fill-opacity="0.72"/>
<path fill-rule="evenodd" clip-rule="evenodd" d="M12.3684 9.06531C11.4146 9.73221 10.5522 10.5207 9.80347 11.4083C12.863 11.1243 16.75 11.5881 21.2628 13.8445C26.0819 16.254 29.9624 16.3355 32.6631 15.8145C32.4181 15.0726 32.1095 14.3595 31.7441 13.6817C28.6526 14.0077 24.6892 13.5761 20.0703 11.2667C17.1372 9.80018 14.5518 9.19607 12.3684 9.06531Z" fill="url(#paint2_linear_254_5096)" fill-opacity="0.56"/>
<path fill-rule="evenodd" clip-rule="evenodd" d="M29.9384 11.1112C27.497 8.38341 23.9491 6.66675 20.0001 6.66675C18.8404 6.66675 17.7152 6.81482 16.6426 7.09307C18.0954 7.48947 19.6387 8.06941 21.263 8.88159C24.6448 10.5724 27.5644 11.1169 29.9384 11.1112Z" fill="url(#paint3_linear_254_5096)" fill-opacity="0.48"/>
<defs>
<linearGradient id="paint0_linear_254_5096" x1="20.0001" y1="6.66649" x2="20.0001" y2="47.1026" gradientUnits="userSpaceOnUse">
<stop offset="0.313079" stop-color="white"/>
<stop offset="1" stop-color="white" stop-opacity="0"/>
</linearGradient>
<linearGradient id="paint1_linear_254_5096" x1="20" y1="6.66668" x2="20" y2="47.1028" gradientUnits="userSpaceOnUse">
<stop offset="0.313079" stop-color="white"/>
<stop offset="1" stop-color="white" stop-opacity="0"/>
</linearGradient>
<linearGradient id="paint2_linear_254_5096" x1="19.9999" y1="6.66676" x2="19.9999" y2="47.1029" gradientUnits="userSpaceOnUse">
<stop offset="0.313079" stop-color="white"/>
<stop offset="1" stop-color="white" stop-opacity="0"/>
</linearGradient>
<linearGradient id="paint3_linear_254_5096" x1="20.0001" y1="6.66675" x2="20.0001" y2="47.1029" gradientUnits="userSpaceOnUse">
<stop offset="0.313079" stop-color="white"/>
<stop offset="1" stop-color="white" stop-opacity="0"/>
</linearGradient>
</defs>
</svg>
