<svg width="40" height="40" viewBox="0 0 40 40" fill="none" xmlns="http://www.w3.org/2000/svg">
<path d="M0 20C0 8.95431 8.95431 0 20 0C31.0457 0 40 8.95431 40 20C40 31.0457 31.0457 40 20 40C8.95431 40 0 31.0457 0 20Z" fill="#F6B51E"/>
<path d="M27.4009 18.2883C27.0023 18.6887 26.6971 19.1719 26.507 19.7035C26.3168 20.2351 26.2275 20.7831 26.2819 21.345C26.3378 22.0064 26.2484 22.6719 26.0201 23.2953C25.7918 23.9186 25.43 24.4847 24.96 24.954C24.4899 25.4233 23.9229 25.7846 23.2985 26.0124C22.6742 26.2404 22.0076 26.3297 21.3452 26.2738C20.5528 26.2002 19.776 26.3912 19.0851 26.7857C18.3943 27.1802 17.8422 27.7777 17.5041 28.497C17.1659 29.2163 17.0581 30.0221 17.1955 30.8048C17.333 31.5874 17.7087 32.3086 18.2717 32.8702C18.8347 33.4317 19.5574 33.8063 20.3413 33.9427C21.1254 34.0792 21.9324 33.9708 22.6525 33.6326C23.3726 33.2943 23.9706 32.7426 24.3651 32.0525C24.7595 31.3624 24.9313 30.5678 24.8568 29.7767C24.8009 29.1154 24.9102 28.4687 25.1385 27.8453C25.3668 27.222 25.7287 26.6559 26.1987 26.1865C26.6688 25.7173 27.2358 25.356 27.8601 25.1281C28.4845 24.9001 29.1311 24.792 29.7935 24.8479C30.4407 24.9059 31.0923 24.8 31.6876 24.5398C32.2829 24.2796 32.8029 23.8735 33.1991 23.3593C33.5954 22.8451 33.8554 22.2393 33.9547 21.5981C34.0541 20.9569 33.9897 20.301 33.7676 19.6912C33.5455 19.0814 33.1727 18.5375 32.684 18.1098C32.1953 17.6822 31.6063 17.3846 30.9717 17.2447C30.3371 17.1048 29.6774 17.1271 29.0538 17.3095C28.4301 17.492 27.8627 17.8286 27.4041 18.2883H27.4009Z" fill="url(#paint0_linear_254_5108)" fill-opacity="0.92"/>
<path d="M19.6416 23.8171C20.2046 23.8737 20.7532 23.7858 21.2863 23.5962C21.8193 23.4066 22.3035 23.1011 22.7038 22.7018C23.1039 22.3025 23.4104 21.8192 23.6007 21.2872C23.791 20.7551 23.8605 20.1876 23.8043 19.6254C23.7483 18.964 23.8577 18.3174 24.0859 17.694C24.3142 17.0707 24.6761 16.5046 25.1461 16.0353C25.6162 15.566 26.1832 15.2047 26.8075 14.9768C27.4319 14.7488 28.0985 14.6597 28.7609 14.7155C29.5534 14.7898 30.3294 14.5993 31.0206 14.2053C31.7119 13.8112 32.2645 13.2139 32.6031 12.4948C32.9418 11.7757 33.05 10.9697 32.9131 10.1869C32.7761 9.40412 32.4007 8.68257 31.8378 8.12065C31.275 7.55875 30.5523 7.18385 29.7683 7.04712C28.9842 6.91037 28.177 7.01843 27.4567 7.35656C26.7364 7.69468 26.1382 8.24642 25.7435 8.9365C25.3488 9.62658 25.158 10.4015 25.2325 11.1926C25.2885 11.854 25.1993 12.5197 24.9711 13.1431C24.7429 13.7665 24.381 14.3327 23.911 14.8021C23.4409 15.2714 22.8738 15.6327 22.2494 15.8605C21.6249 16.0884 20.9772 16.1974 20.3147 16.1414C19.7517 16.0848 19.1831 16.1538 18.6501 16.3435C18.1171 16.533 17.6329 16.8385 17.2326 17.2379C16.8323 17.6372 16.526 18.1204 16.3356 18.6525C16.1454 19.1845 16.0569 19.7332 16.1132 20.2953C16.1689 20.9566 16.0794 21.6222 15.8511 22.2454C15.6227 22.8686 15.2609 23.4347 14.7909 23.904C14.3208 24.3732 13.7539 24.7344 13.1297 24.9625C12.5054 25.1905 11.8389 25.2798 11.1765 25.2242C10.384 25.1498 9.60687 25.3403 8.91568 25.7344C8.2245 26.1285 7.67189 26.7257 7.33323 27.4449C6.99456 28.164 6.88632 28.9699 7.02328 29.7527C7.16024 30.5355 7.53574 31.2571 8.09854 31.819C8.66135 32.3809 9.38406 32.7558 10.1681 32.8925C10.9522 33.0292 11.7594 32.9212 12.4797 32.5831C13.1999 32.245 13.7982 31.6933 14.1929 31.0032C14.5876 30.313 14.7794 29.5372 14.7049 28.746C14.649 28.0845 14.7384 27.419 14.9667 26.7956C15.1949 26.1723 15.5568 25.6063 16.0268 25.1369C16.4969 24.6677 17.0639 24.3063 17.6882 24.0785C18.3126 23.8505 18.9792 23.7613 19.6416 23.8171Z" fill="url(#paint1_linear_254_5108)" fill-opacity="0.92"/>
<path d="M12.5941 21.7094C12.9927 21.3092 13.2979 20.8259 13.4878 20.2943C13.6778 19.7627 13.7679 19.2146 13.7131 18.6528C13.6571 17.9913 13.7465 17.3255 13.9749 16.702C14.2033 16.0785 14.5654 15.5123 15.0357 15.0429C15.506 14.5736 16.0732 14.2124 16.6978 13.9846C17.3224 13.7568 17.9893 13.6678 18.6519 13.724C19.444 13.7981 20.2199 13.6075 20.9107 13.2135C21.6016 12.8195 22.1538 12.2223 22.4924 11.5034C22.8308 10.7845 22.9389 9.97886 22.802 9.19635C22.6651 8.41384 22.2896 7.69255 21.727 7.13085C21.1645 6.56915 20.442 6.19437 19.6582 6.05764C18.8745 5.92089 18.0675 6.02886 17.3475 6.36678C16.6274 6.7047 16.0293 7.25614 15.6347 7.9459C15.24 8.63566 15.0492 9.41128 15.1234 10.2022C15.1794 10.8635 15.09 11.5291 14.8616 12.1525C14.6333 12.7758 14.2716 13.3419 13.8015 13.8112C13.3314 14.2805 12.7644 14.6418 12.1401 14.8697C11.5158 15.0976 10.8681 15.2058 10.2056 15.1499C9.5584 15.0919 8.90697 15.1981 8.31172 15.4584C7.71648 15.7187 7.19668 16.1249 6.80049 16.6392C6.4043 17.1534 6.14456 17.7592 6.0453 18.4004C5.94605 19.0416 6.01051 19.6975 6.2327 20.3071C6.45489 20.9169 6.82765 21.4607 7.3164 21.8883C7.80516 22.3159 8.39411 22.6134 9.02869 22.7533C9.66326 22.893 10.3229 22.8707 10.9465 22.6883C11.5702 22.5058 12.1376 22.1691 12.5962 21.7094H12.5941Z" fill="url(#paint2_linear_254_5108)" fill-opacity="0.92"/>
<defs>
<linearGradient id="paint0_linear_254_5108" x1="25.5688" y1="17.1541" x2="25.5688" y2="42.6986" gradientUnits="userSpaceOnUse">
<stop offset="0.313079" stop-color="white"/>
<stop offset="1" stop-color="white" stop-opacity="0"/>
</linearGradient>
<linearGradient id="paint1_linear_254_5108" x1="19.9682" y1="6.9895" x2="19.9682" y2="46.355" gradientUnits="userSpaceOnUse">
<stop offset="0.313079" stop-color="white"/>
<stop offset="1" stop-color="white" stop-opacity="0"/>
</linearGradient>
<linearGradient id="paint2_linear_254_5108" x1="14.4299" y1="6" x2="14.4299" y2="31.5412" gradientUnits="userSpaceOnUse">
<stop offset="0.313079" stop-color="white"/>
<stop offset="1" stop-color="white" stop-opacity="0"/>
</linearGradient>
</defs>
</svg>
