<svg width="40" height="40" viewBox="0 0 40 40" fill="none" xmlns="http://www.w3.org/2000/svg">
<path d="M0 20C0 8.95431 8.95431 0 20 0C31.0457 0 40 8.95431 40 20C40 31.0457 31.0457 40 20 40C8.95431 40 0 31.0457 0 20Z" fill="#47C2FF"/>
<path fill-rule="evenodd" clip-rule="evenodd" d="M25.8949 24.0016C28.1049 26.2117 31.688 26.2117 33.8981 24.0016C36.108 21.7916 36.108 18.2085 33.8981 15.9984C31.688 13.7885 28.1049 13.7885 25.8949 15.9984L21.8933 20.0001L25.8949 24.0016Z" fill="url(#paint0_linear_254_5092)" fill-opacity="0.72"/>
<path fill-rule="evenodd" clip-rule="evenodd" d="M24.0017 33.8978C26.2117 31.6878 26.2117 28.1047 24.0017 25.8946L20.0001 21.8931L15.9985 25.8946C13.7886 28.1047 13.7886 31.6878 15.9985 33.8978C18.2086 36.1079 21.7917 36.1079 24.0017 33.8978Z" fill="url(#paint1_linear_254_5092)" fill-opacity="0.64"/>
<path fill-rule="evenodd" clip-rule="evenodd" d="M6.10182 24.0016C3.89184 21.7916 3.89184 18.2085 6.10182 15.9984C8.31192 13.7885 11.895 13.7885 14.1051 15.9984L18.1066 20.0001L14.1051 24.0016C11.895 26.2117 8.31192 26.2117 6.10182 24.0016Z" fill="url(#paint2_linear_254_5092)" fill-opacity="0.56"/>
<path fill-rule="evenodd" clip-rule="evenodd" d="M24.0017 14.1051C26.2117 11.895 26.2117 8.31192 24.0017 6.10186C21.7917 3.89183 18.2086 3.89183 15.9985 6.10186C13.7886 8.31192 13.7886 11.895 15.9985 14.1051L20.0001 18.1066L24.0017 14.1051Z" fill="url(#paint3_linear_254_5092)" fill-opacity="0.8"/>
<defs>
<linearGradient id="paint0_linear_254_5092" x1="20" y1="4.4443" x2="20" y2="51.62" gradientUnits="userSpaceOnUse">
<stop offset="0.313079" stop-color="white"/>
<stop offset="1" stop-color="white" stop-opacity="0"/>
</linearGradient>
<linearGradient id="paint1_linear_254_5092" x1="20" y1="4.44427" x2="20" y2="51.6199" gradientUnits="userSpaceOnUse">
<stop offset="0.313079" stop-color="white"/>
<stop offset="1" stop-color="white" stop-opacity="0"/>
</linearGradient>
<linearGradient id="paint2_linear_254_5092" x1="19.9999" y1="4.4443" x2="19.9999" y2="51.62" gradientUnits="userSpaceOnUse">
<stop offset="0.313079" stop-color="white"/>
<stop offset="1" stop-color="white" stop-opacity="0"/>
</linearGradient>
<linearGradient id="paint3_linear_254_5092" x1="20" y1="4.44434" x2="20" y2="51.62" gradientUnits="userSpaceOnUse">
<stop offset="0.313079" stop-color="white"/>
<stop offset="1" stop-color="white" stop-opacity="0"/>
</linearGradient>
</defs>
</svg>
