<svg width="24" height="24" viewBox="0 0 24 24" fill="none" xmlns="http://www.w3.org/2000/svg">
<g clip-path="url(#clip0_253_6150)">
<path d="M6.78262 22.8093C8.36025 23.5721 10.1301 24 12 24C13.8699 24 15.6397 23.5721 17.2174 22.8093L18.2609 12L17.2174 1.19072C15.6397 0.427875 13.8699 0 12 0C10.1301 0 8.36025 0.427875 6.78262 1.19072L5.73914 12L6.78262 22.8093Z" fill="#FFDA44"/>
<path d="M17.2174 22.8089C21.2314 20.868 24 16.7575 24 12C24 7.24254 21.2314 3.13207 17.2174 1.19116V22.8089Z" fill="#D80027"/>
<path d="M6.78263 22.8089V1.19116C2.76867 3.13207 0 7.24249 0 12C0 16.7576 2.76867 20.868 6.78263 22.8089Z" fill="#0052B4"/>
<path d="M12 16.1739C12 14.259 12 12 12 12H15.1305V13.5652C15.1305 13.8371 14.6087 14.8335 13.3209 15.6522C12.8332 15.9623 12.3283 16.062 12 16.1739Z" fill="#D80027"/>
<path d="M8.86951 8.86963H12V12.0001H8.86951V8.86963Z" fill="#D80027"/>
<path d="M13.5651 7.8262C13.5651 7.24987 13.0979 6.78271 12.5217 6.78271C12.3313 6.78271 12.1535 6.83446 11.9999 6.92343C11.8463 6.83446 11.6685 6.78271 11.4782 6.78271C10.9019 6.78271 10.4347 7.24987 10.4347 7.8262H7.82605V13.0435C7.82605 14.9858 9.36852 16.1091 10.5781 16.6914C10.4876 16.846 10.4347 17.0254 10.4347 17.2175C10.4347 17.7938 10.9019 18.261 11.4782 18.261C11.6685 18.261 11.8464 18.2092 11.9999 18.1203C12.1535 18.2092 12.3313 18.261 12.5217 18.261C13.0979 18.261 13.5651 17.7938 13.5651 17.2175C13.5651 17.0254 13.5123 16.846 13.4217 16.6914C14.6313 16.1091 16.1738 14.9859 16.1738 13.0435V7.8262H13.5651ZM14.6086 13.0435C14.6086 13.3154 14.6086 14.1428 13.3209 14.9616C12.8331 15.2717 12.3283 15.4728 11.9999 15.5846C11.6716 15.4728 11.1668 15.2717 10.679 14.9616C9.39125 14.1428 9.39125 13.3154 9.39125 13.0435V9.3914H14.6086V13.0435Z" fill="#FF9811"/>
</g>
<defs>
<clipPath id="clip0_253_6150">
<rect width="24" height="24" fill="white"/>
</clipPath>
</defs>
</svg>
