<svg width="24" height="24" viewBox="0 0 24 24" fill="none" xmlns="http://www.w3.org/2000/svg">
<g clip-path="url(#clip0_253_6307)">
<path d="M24 12C24 18.6274 18.6274 24 12 24C5.37262 24 0 18.6274 0 12C0 12.0029 12 0.0013125 12 0C18.6274 0 24 5.37262 24 12Z" fill="#0052B4"/>
<path d="M11.9679 11.9999H12C12 11.9891 12 11.9786 12 11.9678C11.9893 11.9785 11.9786 11.9892 11.9679 11.9999Z" fill="#F0F0F0"/>
<path d="M12 6.26086C12 4.14937 12 2.76586 12 0H11.998C5.37145 0.001125 0 5.37323 0 12H6.26086V8.47448L9.78638 12H11.9679C11.9786 11.9893 11.9893 11.9786 12 11.9679C12 11.1594 12 10.4381 12 9.78647L8.47444 6.26086H12Z" fill="#F0F0F0"/>
<path d="M6.071 1.56519C4.19417 2.63389 2.63384 4.19417 1.56519 6.071V12H4.69564V4.69573V4.69564H12C12 3.70831 12 2.76772 12 1.56519H6.071Z" fill="#D80027"/>
<path d="M12 10.5244L7.73649 6.26099H6.26086V6.26108L11.9999 12.0001H12C12 12.0001 12 10.9826 12 10.5244Z" fill="#D80027"/>
<path d="M20.294 13.7566C20.639 13.2819 20.8695 12.7021 20.8695 12V6.78266C20.4335 7.11022 19.8916 7.30438 19.3043 7.30438C18.4509 7.30438 17.6933 6.89455 17.2174 6.26099C16.7414 6.89455 15.9837 7.30438 15.1304 7.30438C14.543 7.30438 14.0012 7.11017 13.5652 6.78275V12C13.5652 12.7021 13.7957 13.2819 14.1407 13.7566H20.294Z" fill="#F3F3F3"/>
<path d="M19.2087 11.0321C19.3748 10.6269 19.504 10.0345 19.504 9.73971C19.504 9.26603 18.8865 8.88208 18.8865 8.88208C18.8865 8.88208 18.2689 9.26603 18.2689 9.73971C18.2689 10.0345 18.3982 10.6269 18.5642 11.0321L18.2077 11.837C18.4172 11.9223 18.6463 11.9696 18.8865 11.9696C19.1267 11.9696 19.3557 11.9222 19.5653 11.837L19.2087 11.0321Z" fill="#FF9811"/>
<path d="M16.7951 8.42598C16.3612 8.48477 15.7835 8.66922 15.5283 8.81659C15.1181 9.05345 15.0942 9.78016 15.0942 9.78016C15.0942 9.78016 15.7356 10.123 16.1457 9.88614C16.4011 9.73872 16.8494 9.33072 17.1172 8.98422L17.9927 8.89047C17.9617 8.6665 17.888 8.44445 17.768 8.23647C17.6478 8.02848 17.4925 7.85373 17.3139 7.71484L16.7951 8.42598Z" fill="#FF9811"/>
<path d="M15.745 11.8195C16.0128 12.1658 16.4612 12.5737 16.7166 12.7212C17.1268 12.958 17.7681 12.6153 17.7681 12.6153C17.7681 12.6153 17.7442 11.8885 17.3341 11.6517C17.0786 11.5042 16.5011 11.32 16.0671 11.2613L15.5484 10.55C15.3698 10.6889 15.2144 10.8637 15.0942 11.0715C14.9742 11.2796 14.9007 11.5016 14.8696 11.7257L15.745 11.8195Z" fill="#FF9811"/>
<path d="M14.0117 13.5654C14.9861 15.1289 17.2174 15.6523 17.2174 15.6523C17.2174 15.6523 19.4486 15.1289 20.4231 13.5654H14.0117Z" fill="#338AF3"/>
</g>
<defs>
<clipPath id="clip0_253_6307">
<rect width="24" height="24" fill="white"/>
</clipPath>
</defs>
</svg>
