<svg width="24" height="24" viewBox="0 0 24 24" fill="none" xmlns="http://www.w3.org/2000/svg">
<g clip-path="url(#clip0_253_6015)">
<path d="M12 24C18.6274 24 24 18.6274 24 12C24 5.37258 18.6274 0 12 0C5.37258 0 0 5.37258 0 12C0 18.6274 5.37258 24 12 24Z" fill="#D80027"/>
<path d="M18.7826 8.90675H14.4361C14.7044 8.62578 14.8695 8.24539 14.8695 7.82619C14.8695 6.96177 14.1688 6.26099 13.3043 6.26099C12.7598 6.26099 12.2804 6.53924 12 6.96116C11.7196 6.53924 11.2402 6.26099 10.6957 6.26099C9.83123 6.26099 9.13045 6.96177 9.13045 7.82619C9.13045 8.24539 9.29559 8.62583 9.56391 8.90675H5.21742C5.21742 10.0594 6.22134 10.9937 7.37386 10.9937H7.3043C7.3043 12.1463 8.23866 13.0807 9.39131 13.0807C9.39131 13.454 9.4897 13.804 9.66145 14.107L7.93036 15.8381L9.25852 17.1662L11.1425 15.2822C11.2163 15.3093 11.2927 15.331 11.3715 15.3457L10.233 17.9161L12 19.8262L13.767 17.916L12.6285 15.3456C12.7074 15.3309 12.7837 15.3092 12.8575 15.2821L14.7415 17.1661L16.0696 15.838L14.3385 14.1068C14.5103 13.8039 14.6087 13.4539 14.6087 13.0805C15.7613 13.0805 16.6957 12.1462 16.6957 10.9935H16.6261C17.7787 10.9936 18.7826 10.0594 18.7826 8.90675Z" fill="black"/>
</g>
<defs>
<clipPath id="clip0_253_6015">
<rect width="24" height="24" fill="white"/>
</clipPath>
</defs>
</svg>
