<svg width="24" height="24" viewBox="0 0 24 24" fill="none" xmlns="http://www.w3.org/2000/svg">
<g clip-path="url(#clip0_253_5995)">
<path d="M24 12C24 18.6274 18.6274 24 12 24C5.37262 24 0 18.6274 0 12C0 12.0028 12 0.00135937 12 0C18.6274 0 24 5.37262 24 12Z" fill="#0052B4"/>
<path d="M11.9679 11.9999H12C12 11.989 12 11.9786 12 11.9678C11.9893 11.9785 11.9786 11.9892 11.9679 11.9999Z" fill="#F0F0F0"/>
<path d="M12 6.26086C12 4.14937 12 2.76577 12 0H11.998C5.3715 0.00107812 0 5.37319 0 12H6.26086V8.47439L9.78642 12H11.9679C11.9787 11.9893 11.9894 11.9786 12 11.9678C12 11.1594 12 10.438 12 9.78647L8.47444 6.26086H12Z" fill="#F0F0F0"/>
<path d="M6.071 1.56519C4.19417 2.63389 2.63389 4.19417 1.56519 6.071V12H4.69564V4.69569V4.69564H12C12 3.70831 12 2.76772 12 1.56519H6.071Z" fill="#D80027"/>
<path d="M12 10.5244L7.73654 6.26101H6.26086C6.26086 6.26096 6.26086 6.26101 6.26086 6.26101L11.9999 12.0001H12C12 12.0001 12 10.9826 12 10.5244Z" fill="#D80027"/>
<path d="M7.23729 14.0869L7.89588 15.464L9.38309 15.1203L8.71709 16.4938L9.91305 17.4422L8.42398 17.7779L8.42815 19.3043L7.23729 18.3493L6.04648 19.3043L6.05065 17.7779L4.56152 17.4422L5.75754 16.4938L5.09145 15.1203L6.57874 15.464L7.23729 14.0869Z" fill="#F0F0F0"/>
<path d="M17.9665 16.6956L18.2958 17.3841L19.0394 17.2122L18.7064 17.899L19.3044 18.3732L18.5599 18.541L18.5619 19.3042L17.9665 18.8267L17.3711 19.3042L17.3732 18.541L16.6287 18.3732L17.2266 17.899L16.8936 17.2122L17.6372 17.3841L17.9665 16.6956Z" fill="#F0F0F0"/>
<path d="M14.9031 9.39111L15.2323 10.0797L15.976 9.90777L15.643 10.5945L16.241 11.0688L15.4964 11.2366L15.4985 11.9998L14.9031 11.5223L14.3077 11.9998L14.3097 11.2366L13.5652 11.0688L14.1632 10.5945L13.8302 9.90777L14.5738 10.0797L14.9031 9.39111Z" fill="#F0F0F0"/>
<path d="M17.9665 5.21729L18.2958 5.90588L19.0394 5.73399L18.7064 6.42075L19.3044 6.89494L18.5599 7.0628L18.5619 7.82602L17.9665 7.3485L17.3711 7.82602L17.3732 7.0628L16.6287 6.89494L17.2266 6.42075L16.8936 5.73399L17.6372 5.90588L17.9665 5.21729Z" fill="#F0F0F0"/>
<path d="M20.6422 8.34766L20.9715 9.03625L21.7151 8.86431L21.3821 9.55108L21.9801 10.0253L21.2355 10.1932L21.2376 10.9563L20.6422 10.4789L20.0468 10.9563L20.0488 10.1932L19.3043 10.0253L19.9023 9.55108L19.5693 8.86431L20.3129 9.03625L20.6422 8.34766Z" fill="#F0F0F0"/>
<path d="M18.7289 12L18.9879 12.7972H19.8261L19.148 13.2899L19.4071 14.087L18.7289 13.5943L18.0508 14.087L18.3098 13.2899L17.6317 12.7972H18.4699L18.7289 12Z" fill="#F0F0F0"/>
</g>
<defs>
<clipPath id="clip0_253_5995">
<rect width="24" height="24" fill="white"/>
</clipPath>
</defs>
</svg>
