<svg width="24" height="24" viewBox="0 0 24 24" fill="none" xmlns="http://www.w3.org/2000/svg">
<g clip-path="url(#clip0_253_6184)">
<path d="M12 24C18.6274 24 24 18.6274 24 12C24 5.37258 18.6274 0 12 0C5.37258 0 0 5.37258 0 12C0 18.6274 5.37258 24 12 24Z" fill="#FFDA44"/>
<path d="M12.0001 24.0001C15.6371 24.0001 18.896 22.3818 21.0967 19.8262H2.90344C5.10408 22.3818 8.36297 24.0001 12.0001 24.0001Z" fill="#338AF3"/>
<path d="M24 12C24 5.37262 18.6274 0 12 0C5.37262 0 0 5.37262 0 12C0 13.0831 0.144375 14.1323 0.413391 15.1305H23.5867C23.8556 14.1323 24 13.0831 24 12Z" fill="#338AF3"/>
<path d="M0.953857 16.6956C1.18519 17.2391 1.45561 17.7619 1.76128 18.2608H22.2387C22.5444 17.7618 22.8148 17.2391 23.0462 16.6956H0.953857Z" fill="#338AF3"/>
<path d="M5.49929 7.56868L3.15479 6.53396L5.49929 5.49924L6.53396 3.15479L7.56863 5.49924L9.91308 6.53396L7.56863 7.56868L6.53396 9.91313L5.49929 7.56868Z" fill="#F0F0F0"/>
<path d="M6.53387 4.44678L7.17282 5.8947L8.62079 6.53375L7.17282 7.17275L6.53387 8.62067L5.89482 7.17275L4.4469 6.53375L5.89482 5.8947L6.53387 4.44678Z" fill="#D80027"/>
</g>
<defs>
<clipPath id="clip0_253_6184">
<rect width="24" height="24" fill="white"/>
</clipPath>
</defs>
</svg>
