<svg width="24" height="24" viewBox="0 0 24 24" fill="none" xmlns="http://www.w3.org/2000/svg">
<g clip-path="url(#clip0_253_5928)">
<path d="M24 12.0001C24 10.5323 23.736 9.12615 23.2536 7.82621L12 7.30444L0.746391 7.82616C0.264047 9.12615 0 10.5323 0 12.0001C0 13.4679 0.264047 14.8741 0.746391 16.174L12 16.6958L23.2536 16.174C23.736 14.8741 24 13.4679 24 12.0001Z" fill="#D80027"/>
<path d="M11.9999 23.9999C17.1595 23.9999 21.558 20.7434 23.2536 16.1738H0.746338C2.44185 20.7434 6.84037 23.9999 11.9999 23.9999Z" fill="#6DA544"/>
<path d="M0.746338 7.82611H23.2536C21.558 3.2565 17.1595 0 11.9999 0C6.84037 0 2.44185 3.2565 0.746338 7.82611Z" fill="#338AF3"/>
<path d="M12.2608 15.3914C10.3879 15.3914 8.86951 13.873 8.86951 12.0001C8.86951 10.1272 10.3879 8.6088 12.2608 8.6088C12.8448 8.6088 13.3943 8.75645 13.874 9.01642C13.1214 8.28044 12.0922 7.82617 10.9565 7.82617C8.65126 7.82617 6.78259 9.69489 6.78259 12.0001C6.78259 14.3052 8.65131 16.174 10.9565 16.174C12.0923 16.174 13.1215 15.7197 13.874 14.9837C13.3943 15.2438 12.8448 15.3914 12.2608 15.3914Z" fill="#F0F0F0"/>
<path d="M14.8696 9.65234L15.3188 10.9157L16.5297 10.34L15.9541 11.5509L17.2174 12.0002L15.9541 12.4494L16.5297 13.6604L15.3188 13.0847L14.8696 14.348L14.4204 13.0847L13.2094 13.6604L13.7851 12.4494L12.5217 12.0002L13.7851 11.5509L13.2094 10.34L14.4204 10.9157L14.8696 9.65234Z" fill="#F0F0F0"/>
</g>
<defs>
<clipPath id="clip0_253_5928">
<rect width="24" height="24" fill="white"/>
</clipPath>
</defs>
</svg>
