<svg width="24" height="24" viewBox="0 0 24 24" fill="none" xmlns="http://www.w3.org/2000/svg">
<g clip-path="url(#clip0_253_6075)">
<path d="M17.2174 1.19072C15.6397 0.427875 13.8698 0 12 0C10.1302 0 8.36025 0.427875 6.78262 1.19072L5.73914 12L6.78262 22.8093C8.36025 23.5721 10.1302 24 12 24C13.8698 24 15.6397 23.5721 17.2174 22.8093L18.2609 12L17.2174 1.19072Z" fill="#FFDA44"/>
<path d="M6.78263 1.19116C2.76872 3.13207 0 7.24249 0 12C0 16.7576 2.76872 20.868 6.78263 22.8089V1.19116Z" fill="#0052B4"/>
<path d="M17.2173 1.19116V22.8089C21.2313 20.868 24 16.7575 24 12C24 7.24254 21.2313 3.13207 17.2173 1.19116Z" fill="#0052B4"/>
<path d="M15.6522 7.30423L16.3521 7.6542L15.6522 7.30423L14.9521 6.95426C14.9099 7.03868 13.9959 8.89835 13.8466 11.739H12.7826V7.30423L12 6.26074L11.2174 7.30423V11.739H10.1533C10.004 8.89835 9.09003 7.03868 9.0478 6.95426L7.64783 7.65424C7.65748 7.67346 8.60872 9.60963 8.60872 12.5216V13.3043H11.2174V17.7391H12.7826V13.3043H15.3913V12.5216C15.3913 11.0161 15.6518 9.77463 15.8704 8.99829C16.1086 8.15173 16.3506 7.65734 16.353 7.65241L15.6522 7.30423Z" fill="black"/>
</g>
<defs>
<clipPath id="clip0_253_6075">
<rect width="24" height="24" fill="white"/>
</clipPath>
</defs>
</svg>
