<svg width="24" height="24" viewBox="0 0 24 24" fill="none" xmlns="http://www.w3.org/2000/svg">
<g clip-path="url(#clip0_253_6566)">
<path d="M16.1739 0.746391C14.8739 0.264047 13.4678 0 12 0C10.5321 0 9.12606 0.264047 7.82608 0.746391L6.78259 12L7.82608 23.2536C9.12606 23.736 10.5321 24 12 24C13.4678 24 14.8739 23.736 16.1739 23.2536L17.2173 12L16.1739 0.746391Z" fill="#FFDA44"/>
<path d="M24.0001 11.9999C24.0001 6.84037 20.7436 2.44181 16.174 0.746338V23.2536C20.7436 21.558 24.0001 17.1595 24.0001 11.9999Z" fill="#D80027"/>
<path d="M0 11.9999C0 17.1595 3.2565 21.558 7.82611 23.2536V0.746338C3.2565 2.44181 0 6.84037 0 11.9999Z" fill="black"/>
</g>
<defs>
<clipPath id="clip0_253_6566">
<rect width="24" height="24" fill="white"/>
</clipPath>
</defs>
</svg>
