<svg width="24" height="24" viewBox="0 0 24 24" fill="none" xmlns="http://www.w3.org/2000/svg">
<g clip-path="url(#clip0_253_6137)">
<path d="M12 24C18.6274 24 24 18.6274 24 12C24 5.37258 18.6274 0 12 0C5.37258 0 0 5.37258 0 12C0 18.6274 5.37258 24 12 24Z" fill="#F0F0F0"/>
<path d="M19.3067 2.47968C15.0105 -0.826226 8.98955 -0.826226 4.69336 2.47963L12 9.78632L19.3067 2.47968Z" fill="#D80027"/>
<path d="M12 14.2135L4.69336 21.5201C8.98955 24.826 15.0105 24.826 19.3067 21.5201L12 14.2134L12 14.2135Z" fill="#D80027"/>
<path d="M9.78644 12L2.4798 4.69336C-0.82611 8.98955 -0.82611 15.0105 2.4798 19.3067L9.78644 12Z" fill="#6DA544"/>
<path d="M14.2136 12L21.5202 19.3067C24.8261 15.0105 24.8261 8.98955 21.5202 4.69336L14.2136 12Z" fill="#6DA544"/>
<path d="M12 17.2175C14.8814 17.2175 17.2173 14.8816 17.2173 12.0001C17.2173 9.11861 14.8814 6.78271 12 6.78271C9.11849 6.78271 6.78259 9.11861 6.78259 12.0001C6.78259 14.8816 9.11849 17.2175 12 17.2175Z" fill="#F0F0F0"/>
<path d="M11.9999 8.3479L12.4517 9.13053H13.3554L12.9036 9.9131L13.3554 10.6957H12.4517L11.9999 11.4784L11.5481 10.6957H10.6444L11.0962 9.9131L10.6444 9.13053H11.5481L11.9999 8.3479Z" fill="#D80027"/>
<path d="M9.70331 12L10.1551 12.7826H11.0588L10.607 13.5652L11.0588 14.3478H10.1551L9.70331 15.1305L9.25143 14.3478H8.34778L8.79961 13.5652L8.34778 12.7826H9.25143L9.70331 12Z" fill="#D80027"/>
<path d="M14.2967 12L14.7485 12.7826H15.6522L15.2003 13.5652L15.6522 14.3478H14.7485L14.2967 15.1305L13.8448 14.3478H12.9412L13.393 13.5652L12.9412 12.7826H13.8448L14.2967 12Z" fill="#D80027"/>
</g>
<defs>
<clipPath id="clip0_253_6137">
<rect width="24" height="24" fill="white"/>
</clipPath>
</defs>
</svg>
