<svg width="24" height="24" viewBox="0 0 24 24" fill="none" xmlns="http://www.w3.org/2000/svg">
<g clip-path="url(#clip0_253_5149)">
<path d="M12 24C18.6274 24 24 18.6274 24 12C24 5.37258 18.6274 0 12 0C5.37258 0 0 5.37258 0 12C0 18.6274 5.37258 24 12 24Z" fill="#F0F0F0"/>
<path d="M21.426 9.65211H17.4782C17.4782 8.93176 16.8942 8.34778 16.1739 8.34778L15.1304 10.4347C15.1304 10.4347 16.2434 13.5652 16.2086 13.5652H17.513C18.2334 13.5652 18.8173 12.9812 18.8173 12.2608C19.5377 12.2608 20.1216 11.6769 20.1216 10.9565H20.0782C20.7986 10.9564 21.426 10.3725 21.426 9.65211Z" fill="#ACABB1"/>
<path d="M2.57385 9.65211H6.52167C6.52167 8.93176 7.10565 8.34778 7.826 8.34778L8.8695 10.4347C8.8695 10.4347 7.75643 13.5652 7.79124 13.5652H6.48691C5.7665 13.5652 5.18257 12.9812 5.18257 12.2608C4.46217 12.2608 3.87823 11.6769 3.87823 10.9565H3.92168C3.20127 10.9564 2.57385 10.3725 2.57385 9.65211Z" fill="#ACABB1"/>
<path d="M16.1739 16.6956V17.2173H7.82608V16.6956H5.73914V18.7825H7.82608V19.3042H16.1739V18.7825H18.2609V16.6956H16.1739Z" fill="#FFDA44"/>
<path d="M7.82605 8.34777V13.5651C7.82605 16.7601 11.9999 17.7391 11.9999 17.7391C11.9999 17.7391 16.1738 16.7601 16.1738 13.5651V8.34777L11.9999 7.82605L7.82605 8.34777Z" fill="#0052B4"/>
<path d="M7.82605 10.4349H16.1738V13.5654H7.82605V10.4349Z" fill="#D80027"/>
<path d="M14.0869 5.73905V6.52166L13.5652 6.78255L13.0434 6.26078V4.69556H10.9565V6.26078L10.4348 6.78255L9.913 6.52166V5.73905H7.82605V8.34772H16.1739V5.73905H14.0869Z" fill="#FFDA44"/>
</g>
<defs>
<clipPath id="clip0_253_5149">
<rect width="24" height="24" fill="white"/>
</clipPath>
</defs>
</svg>
