<svg width="24" height="24" viewBox="0 0 24 24" fill="none" xmlns="http://www.w3.org/2000/svg">
<g clip-path="url(#clip0_253_6031)">
<path d="M24 12C24 18.6274 18.6274 24 12 24C5.37262 24 0 18.6274 0 12C0 12.0029 12 0.0013125 12 0C18.6274 0 24 5.37262 24 12Z" fill="#D80027"/>
<path d="M12 5.73926V9.78659L7.82611 5.73926H12Z" fill="#0052B4"/>
<path d="M6.26085 12.0001H9.78637L6.26085 7.30444L5.73914 10.9566L6.26085 12.0001Z" fill="#0052B4"/>
<path d="M11.9679 11.9999H12C12 11.9891 12 11.9786 12 11.9678C11.9893 11.9785 11.9786 11.9892 11.9679 11.9999Z" fill="#F0F0F0"/>
<path d="M12 6.26086C12 4.14937 12 2.76586 12 0H11.998C5.37145 0.001125 0 5.37323 0 12H6.26086V8.47448L9.78638 12H11.9679C11.9786 11.9893 11.9893 11.9786 12 11.9679C12 11.1594 12 10.4381 12 9.78647L8.47444 6.26086H12Z" fill="#F0F0F0"/>
<path d="M6.07103 1.56519C4.1942 2.63389 2.63387 4.19417 1.56522 6.071V12.5217H4.69567V4.69573V4.69564H12.5217C12.5217 3.70831 12.5217 2.76772 12.5217 1.56519H6.07103Z" fill="#D80027"/>
<path d="M12.4771 11.0012L7.73649 6.26074H6.26086V6.26084L12.4769 12.4769H12.477C12.4771 12.4769 12.4771 11.4594 12.4771 11.0012Z" fill="#D80027"/>
<path d="M13.5652 6.26074V11.9998C13.5652 14.7955 20.8696 14.7955 20.8696 11.9998V6.26074H13.5652Z" fill="#F3F3F3"/>
<path d="M13.5652 12V12C13.5652 14.7956 17.2174 15.6522 17.2174 15.6522C17.2174 15.6522 20.8696 14.7956 20.8696 12V12H13.5652Z" fill="#6DA544"/>
<path d="M17.2174 9.70435L15.5217 10.4348V12L17.2174 13.0435L18.913 12V10.4348L17.2174 9.70435Z" fill="#A2001D"/>
<path d="M15.5217 8.86963H18.913V10.4348H15.5217V8.86963Z" fill="#338AF3"/>
</g>
<defs>
<clipPath id="clip0_253_6031">
<rect width="24" height="24" fill="white"/>
</clipPath>
</defs>
</svg>
