<svg width="24" height="24" viewBox="0 0 24 24" fill="none" xmlns="http://www.w3.org/2000/svg">
<g clip-path="url(#clip0_36070_20311)">
<path d="M-1.08002 0H34.92V24H-1.08002V0Z" fill="white"/>
<path d="M-1.08002 24H34.92V0L-1.08002 24Z" fill="#012A87"/>
<path d="M16.4919 0H-1.08002V11.7123L16.4919 0Z" fill="#F9D90F"/>
<path d="M8.77264 8.30176L9.62878 9.78948H11.3481L10.4849 11.2702L11.3481 12.7579H9.62878L8.77264 14.2456L7.9165 12.7579H6.1972L7.06036 11.2702L6.1972 9.78948H7.9165L8.77264 8.30176Z" fill="#DC171D"/>
<path d="M8.77263 15.3193C11.0089 15.3193 12.8218 13.5065 12.8218 11.2702C12.8218 9.03392 11.0089 7.22107 8.77263 7.22107C6.53636 7.22107 4.72351 9.03392 4.72351 11.2702C4.72351 13.5065 6.53636 15.3193 8.77263 15.3193Z" stroke="black" stroke-width="0.631579" stroke-miterlimit="10"/>
</g>
<defs>
<clipPath id="clip0_36070_20311">
<rect width="24" height="24" rx="12" fill="white"/>
</clipPath>
</defs>
</svg>
