<svg width="24" height="24" viewBox="0 0 24 24" fill="none" xmlns="http://www.w3.org/2000/svg">
<g clip-path="url(#clip0_253_6220)">
<path d="M3.51471 20.4853C-1.17157 15.799 -1.17157 8.20106 3.51471 3.51473C8.20099 -1.1716 15.799 -1.17155 20.4853 3.51473C20.4853 3.51637 23.6713 14.2987 18.985 18.985C14.2988 23.6714 3.51799 20.4886 3.51471 20.4853Z" fill="#FFDA44"/>
<path d="M3.51465 20.4852C8.20093 25.1715 15.7989 25.1715 20.4853 20.4852C25.1716 15.7989 25.1716 8.20098 20.4853 3.51465L3.51465 20.4852Z" fill="#FF9811"/>
<path d="M18.7883 6.78253V4.69556H14.7882L14.4825 5.00113C13.3955 6.08812 13.5784 7.35618 13.7119 8.28206C13.8357 9.14095 13.8506 9.46996 13.5312 9.78942C13.2118 10.1088 12.8826 10.094 12.0238 9.97007C11.098 9.83662 9.82995 9.65376 8.74297 10.7407C7.65603 11.8276 7.83898 13.0956 7.97258 14.0214C8.09647 14.8802 8.11138 15.2092 7.79206 15.5285C7.4727 15.8478 7.14359 15.8329 6.28499 15.709C5.9502 15.6607 5.60403 15.6108 5.23447 15.6067L5.21155 17.6936C5.44283 17.6961 5.70716 17.7342 5.987 17.7746C6.31831 17.8225 6.69331 17.8766 7.08828 17.8766C7.49759 17.8766 7.92819 17.8182 8.35344 17.6346V19.3043H11.4839V17.7391H9.91869V16.6957H10.9622V15.1304H10.1282C10.1677 14.6241 10.0982 14.1392 10.0382 13.7235C9.91428 12.8647 9.89938 12.5357 10.2187 12.2165C10.5381 11.8971 10.8671 11.9119 11.726 12.0358C12.4007 12.133 13.257 12.2559 14.0926 11.8952V13.5652H17.2231V12H15.6579V10.9565H16.7014V9.39131H15.8674C15.907 8.88492 15.8375 8.40009 15.7775 7.98426C15.691 7.38421 15.6576 7.04278 15.7544 6.78257H18.7883V6.78253Z" fill="#F0F0F0"/>
</g>
<defs>
<clipPath id="clip0_253_6220">
<rect width="24" height="24" fill="white"/>
</clipPath>
</defs>
</svg>
