<svg width="24" height="24" viewBox="0 0 24 24" fill="none" xmlns="http://www.w3.org/2000/svg">
<g clip-path="url(#clip0_253_6021)">
<path d="M24 12C24 7.8815 21.9249 4.24808 18.7635 2.08695L12 1.56519L5.23655 2.0869C2.07516 4.24808 0 7.88155 0 12C0 16.1186 2.07516 19.7519 5.23655 21.913L12 22.4348L18.7635 21.9131C21.9249 19.7519 24 16.1186 24 12Z" fill="#0052B4"/>
<path d="M18.7634 2.08697C16.8376 0.770437 14.5089 0 12 0C9.4911 0 7.1624 0.770437 5.23654 2.08697H18.7634Z" fill="#A2001D"/>
<path d="M5.23654 21.9131C7.16235 23.2296 9.4911 24.0001 12 24.0001C14.5089 24.0001 16.8376 23.2296 18.7634 21.9131H5.23654Z" fill="#A2001D"/>
<path d="M12 17.739C15.1696 17.739 17.7391 15.1695 17.7391 11.9999C17.7391 8.83024 15.1696 6.26074 12 6.26074C8.83037 6.26074 6.26086 8.83024 6.26086 11.9999C6.26086 15.1695 8.83037 17.739 12 17.739Z" fill="#F0F0F0"/>
<path d="M12 16.6958C14.5933 16.6958 16.6957 14.5934 16.6957 12.0001C16.6957 9.40676 14.5933 7.30444 12 7.30444C9.40667 7.30444 7.30435 9.40676 7.30435 12.0001C7.30435 14.5934 9.40667 16.6958 12 16.6958Z" fill="#6DA544"/>
<path d="M12 15.1305C13.7289 15.1305 15.1304 13.729 15.1304 12.0001C15.1304 10.2712 13.7289 8.86963 12 8.86963C10.2711 8.86963 8.86954 10.2712 8.86954 12.0001C8.86954 13.729 10.2711 15.1305 12 15.1305Z" fill="#F0F0F0"/>
<path d="M12 11.2173L10.3044 11.9999V13.3043L12 14.3477L13.6957 13.3043V11.9999L12 11.2173Z" fill="#0052B4"/>
<path d="M10.3044 10.4348H13.6957V12H10.3044V10.4348Z" fill="#FFDA44"/>
</g>
<defs>
<clipPath id="clip0_253_6021">
<rect width="24" height="24" fill="white"/>
</clipPath>
</defs>
</svg>
