<svg width="24" height="24" viewBox="0 0 24 24" fill="none" xmlns="http://www.w3.org/2000/svg">
<g clip-path="url(#clip0_253_6368)">
<path d="M12 24C18.6274 24 24 18.6274 24 12C24 5.37258 18.6274 0 12 0C5.37258 0 0 5.37258 0 12C0 18.6274 5.37258 24 12 24Z" fill="#6DA544"/>
<path d="M18.4211 17.2173L18.7504 17.9058L19.494 17.734L19.161 18.4208L19.759 18.8949L19.0145 19.0628L19.0166 19.826L18.4211 19.3485L17.8257 19.826L17.8278 19.0628L17.0833 18.8949L17.6812 18.4208L17.3482 17.734L18.0918 17.9058L18.4211 17.2173Z" fill="#FFDA44"/>
<path d="M15.3578 9.91284L15.6871 10.6014L16.4307 10.4295L16.0977 11.1163L16.6957 11.5905L15.9511 11.7583L15.9532 12.5215L15.3578 12.0441L14.7624 12.5215L14.7644 11.7583L14.0199 11.5905L14.6179 11.1163L14.2848 10.4295L15.0285 10.6014L15.3578 9.91284Z" fill="#FFDA44"/>
<path d="M18.4211 5.73901L18.7504 6.42756L19.494 6.25562L19.1611 6.94244L19.759 7.41667L19.0145 7.58444L19.0165 8.3477L18.4211 7.87019L17.8257 8.3477L17.8278 7.58444L17.0833 7.41667L17.6813 6.94244L17.3483 6.25562L18.0918 6.42756L18.4211 5.73901Z" fill="#FFDA44"/>
<path d="M21.0969 8.86938L21.4262 9.55793L22.1699 9.38604L21.8368 10.0729L22.4348 10.547L21.6903 10.7149L21.6923 11.4781L21.0969 11.0006L20.5015 11.4781L20.5035 10.7149L19.759 10.547L20.357 10.0729L20.024 9.38604L20.7676 9.55793L21.0969 8.86938Z" fill="#FFDA44"/>
<path d="M19.1835 12.5217L19.4426 13.3189H20.2808L19.6026 13.8116L19.8617 14.6087L19.1835 14.1161L18.5055 14.6087L18.7645 13.8116L18.0864 13.3189H18.9245L19.1835 12.5217Z" fill="#FFDA44"/>
<path d="M13.3043 15.3912C11.4313 15.3912 9.91297 13.8728 9.91297 11.9999C9.91297 10.1269 11.4313 8.60855 13.3043 8.60855C13.8883 8.60855 14.4378 8.75626 14.9175 9.01618C14.165 8.28015 13.1358 7.82593 11.9999 7.82593C9.69477 7.82593 7.82605 9.69465 7.82605 11.9998C7.82605 14.305 9.69477 16.1737 11.9999 16.1737C13.1358 16.1737 14.165 15.7195 14.9175 14.9835C14.4378 15.2435 13.8883 15.3912 13.3043 15.3912Z" fill="#FFDA44"/>
<path d="M7.54622 4.69558C7.18529 4.07196 6.51146 3.6521 5.73915 3.6521C4.96683 3.6521 4.29301 4.07196 3.93207 4.69558H7.54622Z" fill="#FFDA44"/>
<path d="M7.55316 4.70752L5.73914 6.52154L3.92513 4.70752C3.75174 5.01179 3.65222 5.36368 3.65222 5.73896C3.65222 6.89157 4.58658 7.82593 5.73919 7.82593C6.8918 7.82593 7.82616 6.89161 7.82616 5.73896C7.82611 5.36368 7.72655 5.01179 7.55316 4.70752Z" fill="#FFDA44"/>
<path d="M5.21735 6V7.76034C5.38408 7.80323 5.55892 7.82606 5.73906 7.82606C5.91921 7.82606 6.09405 7.80319 6.26078 7.76034V6H5.21735Z" fill="#A2001D"/>
</g>
<defs>
<clipPath id="clip0_253_6368">
<rect width="24" height="24" fill="white"/>
</clipPath>
</defs>
</svg>
