<svg width="24" height="24" viewBox="0 0 24 24" fill="none" xmlns="http://www.w3.org/2000/svg">
<g clip-path="url(#clip0_253_6272)">
<path d="M12 24C18.6274 24 24 18.6274 24 12C24 5.37258 18.6274 0 12 0C5.37258 0 0 5.37258 0 12C0 18.6274 5.37258 24 12 24Z" fill="#F0F0F0"/>
<path d="M22.5409 6.26097C20.9903 3.41898 18.3239 1.27356 15.1305 0.412842L14.6087 6.26097H22.5409Z" fill="#0052B4"/>
<path d="M1.45908 6.26097H9.39126L8.86954 0.412842C5.67609 1.27356 3.00975 3.41903 1.45908 6.26097Z" fill="#0052B4"/>
<path d="M14.6087 12V17.7391H22.5409C23.4711 16.0342 24 14.0789 24 12H14.6087Z" fill="#6DA544"/>
<path d="M9.39131 12H0C0 14.0789 0.528891 16.0342 1.45908 17.7391H9.39127V12H9.39131Z" fill="#6DA544"/>
<path d="M1.45908 17.7393C3.00975 20.5812 5.67609 22.7267 8.86954 23.5874L9.39126 18.4729L1.45908 17.7393Z" fill="#FFDA44"/>
<path d="M15.1305 23.5874C18.3239 22.7267 20.9903 20.5812 22.5409 17.7393L14.6087 18.4728L15.1305 23.5874Z" fill="#FFDA44"/>
<path d="M14.6087 18.4728L22.5409 17.7393H14.6087V18.4728Z" fill="#FFDA44"/>
<path d="M9.39131 17.7393H1.45908L9.39131 18.4728V17.7393Z" fill="#FFDA44"/>
<path d="M12 0C10.9169 0 9.86769 0.144375 8.86954 0.413391V23.5867C9.86769 23.8556 10.9169 24 12 24C13.0831 24 14.1323 23.8556 15.1304 23.5866V0.413391C14.1323 0.144375 13.0831 0 12 0V0Z" fill="#D80027"/>
<path d="M6.4546 2.60864L6.77832 3.60506H7.82611L6.97852 4.22091L7.30228 5.21733L6.4546 4.60153L5.60696 5.21733L5.93082 4.22091L5.08322 3.60506H6.13092L6.4546 2.60864Z" fill="#FFDA44"/>
</g>
<defs>
<clipPath id="clip0_253_6272">
<rect width="24" height="24" fill="white"/>
</clipPath>
</defs>
</svg>
