<svg width="24" height="24" viewBox="0 0 24 24" fill="none" xmlns="http://www.w3.org/2000/svg">
<g clip-path="url(#clip0_253_4836)">
<path d="M12 24C18.6274 24 24 18.6274 24 12C24 5.37258 18.6274 0 12 0C5.37258 0 0 5.37258 0 12C0 18.6274 5.37258 24 12 24Z" fill="#D80027"/>
<path d="M6.56719 7.30322L7.60312 10.4907H10.9547L8.24531 12.4642L9.28125 15.6517L6.56719 13.6829L3.85313 15.6517L4.89375 12.4642L2.17969 10.4907H5.53125L6.56719 7.30322Z" fill="#FFDA44"/>
<path d="M14.2266 18.586L13.4344 17.611L12.2625 18.0657L12.9422 17.011L12.15 16.0313L13.3641 16.3547L14.0485 15.3L14.1141 16.5563L15.3328 16.8797L14.1563 17.3297L14.2266 18.586Z" fill="#FFDA44"/>
<path d="M15.8016 15.7266L16.1766 14.5266L15.15 13.8L16.4063 13.7813L16.7766 12.5813L17.1844 13.7719L18.4406 13.7579L17.4328 14.5079L17.836 15.6985L16.8094 14.9719L15.8016 15.7266Z" fill="#FFDA44"/>
<path d="M17.925 8.80784L17.3719 9.93752L18.2719 10.8141L17.0297 10.636L16.4765 11.761L16.2609 10.5235L15.014 10.3453L16.1297 9.7594L15.914 8.51721L16.814 9.39377L17.925 8.80784Z" fill="#FFDA44"/>
<path d="M14.2594 5.38599L14.1656 6.63755L15.3328 7.11099L14.1094 7.41099L14.0203 8.66724L13.3594 7.59849L12.1359 7.89849L12.9469 6.93755L12.2812 5.87349L13.4484 6.34692L14.2594 5.38599Z" fill="#FFDA44"/>
</g>
<defs>
<clipPath id="clip0_253_4836">
<rect width="24" height="24" fill="white"/>
</clipPath>
</defs>
</svg>
