<svg width="24" height="24" viewBox="0 0 24 24" fill="none" xmlns="http://www.w3.org/2000/svg">
<g clip-path="url(#clip0_253_5904)">
<path d="M4.6875e-05 2.08691H0V21.913H4.6875e-05V12V2.08691Z" fill="#FF9811"/>
<path d="M12 23.9999C18.6273 23.9999 23.9999 18.6273 23.9999 12C23.9999 5.37256 18.6273 0 12 0C5.37256 0 0 5.37256 0 12C0 18.6273 5.37256 23.9999 12 23.9999Z" fill="#F0F0F0"/>
<path d="M12.0001 0C8.07418 0 4.58883 1.88545 2.39954 4.8H21.6005C19.4113 1.88541 15.9259 0 12.0001 0Z" fill="#0052B4"/>
<path d="M12.0001 24C15.9259 24 19.4113 22.1145 21.6006 19.2H2.39954C4.58879 22.1145 8.07418 24 12.0001 24Z" fill="#0052B4"/>
<path d="M6.10352e-05 11.9999C6.10352e-05 12.8218 0.082936 13.6244 0.240389 14.3999H23.7598C23.9172 13.6244 24.0001 12.8218 24.0001 11.9999C24.0001 11.1779 23.9172 10.3753 23.7598 9.59985H0.240389C0.082936 10.3753 6.10352e-05 11.1779 6.10352e-05 11.9999Z" fill="#0052B4"/>
<path d="M3.51474 3.51489C-1.1715 8.20113 -1.1715 15.7991 3.51474 20.4855C5.45128 18.5489 7.31372 16.6864 12 12.0002L3.51474 3.51489Z" fill="#D80027"/>
<path d="M4.85676 8.86963L5.63367 11.261H8.14832L6.11409 12.739L6.891 15.1304L4.85676 13.6524L2.82243 15.1304L3.59953 12.739L1.56525 11.261H4.07972L4.85676 8.86963Z" fill="#F0F0F0"/>
</g>
<defs>
<clipPath id="clip0_253_5904">
<rect width="24" height="24" fill="white"/>
</clipPath>
</defs>
</svg>
