<svg width="24" height="24" viewBox="0 0 24 24" fill="none" xmlns="http://www.w3.org/2000/svg">
<g clip-path="url(#clip0_253_6199)">
<path d="M12 24C18.6274 24 24 18.6274 24 12C24 5.37258 18.6274 0 12 0C5.37258 0 0 5.37258 0 12C0 18.6274 5.37258 24 12 24Z" fill="#F0F0F0"/>
<path d="M12.0001 24.0001C15.6371 24.0001 18.896 22.3818 21.0967 19.8262H2.90344C5.10408 22.3818 8.36297 24.0001 12.0001 24.0001Z" fill="#0052B4"/>
<path d="M24 12C24 5.37262 18.6274 0 12 0C5.37262 0 0 5.37262 0 12C0 13.0831 0.144375 14.1323 0.413391 15.1305H23.5867C23.8556 14.1323 24 13.0831 24 12Z" fill="#0052B4"/>
<path d="M0.953857 16.6956C1.18519 17.2391 1.45561 17.7619 1.76137 18.2608H22.2388C22.5445 17.7618 22.8149 17.2391 23.0463 16.6956H0.953857Z" fill="#D80027"/>
<path d="M8.5776 12.7827L8.77185 13.3806H9.40049L8.89195 13.7501L9.0862 14.3479L8.5776 13.9784L8.06901 14.3479L8.26331 13.7501L7.75476 13.3806H8.3834L8.5776 12.7827Z" fill="#FFDA44"/>
<path d="M8.5776 20.6089L8.77185 21.2068H9.40049L8.89195 21.5762L9.0862 22.1741L8.5776 21.8046L8.06901 22.1741L8.26331 21.5762L7.75476 21.2068H8.3834L8.5776 20.6089Z" fill="#FFDA44"/>
<path d="M4.93466 17.9622L5.12891 18.56H5.75755L5.249 18.9294L5.44325 19.5274L4.93466 19.1578L4.42607 19.5274L4.62041 18.9294L4.11182 18.56H4.74041L4.93466 17.9622Z" fill="#FFDA44"/>
<path d="M6.32619 13.5652L6.52044 14.1631H7.14903L6.64053 14.5325L6.83478 15.1304L6.32619 14.7609L5.81759 15.1304L6.01194 14.5325L5.5033 14.1631H6.13194L6.32619 13.5652Z" fill="#FFDA44"/>
<path d="M4.11182 16.0274L4.74032 16.0274L4.93461 15.4294L5.12891 16.0274L5.75755 16.0273L5.24896 16.3968L5.44325 16.9947L4.93461 16.6252L4.42607 16.9946L4.62032 16.3968L4.11182 16.0274Z" fill="#FFDA44"/>
<path d="M5.81756 21.2773L6.01181 20.6795L5.50317 20.31H6.13181L6.32611 19.7122L6.52041 20.31H7.149L6.64041 20.6795L6.83466 21.2774L6.32606 20.9078L5.81756 21.2773Z" fill="#FFDA44"/>
<path d="M12.2192 17.9622L12.025 18.56H11.3964L11.9049 18.9294L11.7106 19.5274L12.2192 19.1578L12.7278 19.5274L12.5335 18.9294L13.0421 18.56H12.4135L12.2192 17.9622Z" fill="#FFDA44"/>
<path d="M10.8277 13.5652L10.6335 14.1631H10.0049L10.5134 14.5325L10.3191 15.1304L10.8277 14.7609L11.3363 15.1304L11.142 14.5325L11.6506 14.1631H11.022L10.8277 13.5652Z" fill="#FFDA44"/>
<path d="M13.0421 16.0274L12.4135 16.0274L12.2193 15.4294L12.025 16.0274L11.3964 16.0273L11.9049 16.3968L11.7106 16.9947L12.2193 16.6252L12.7278 16.9946L12.5335 16.3968L13.0421 16.0274Z" fill="#FFDA44"/>
<path d="M11.3362 21.2773L11.142 20.6795L11.6506 20.31H11.0219L10.8277 19.7122L10.6334 20.31H10.0048L10.5134 20.6795L10.3191 21.2774L10.8277 20.9078L11.3362 21.2773Z" fill="#FFDA44"/>
</g>
<defs>
<clipPath id="clip0_253_6199">
<rect width="24" height="24" fill="white"/>
</clipPath>
</defs>
</svg>
