<svg width="24" height="24" viewBox="0 0 24 24" fill="none" xmlns="http://www.w3.org/2000/svg">
<g clip-path="url(#clip0_253_5158)">
<path d="M12 24C18.6274 24 24 18.6274 24 12C24 5.37258 18.6274 0 12 0C5.37258 0 0 5.37258 0 12C0 18.6274 5.37258 24 12 24Z" fill="#FFDA44"/>
<path d="M12 24.0001C15.9375 24.0001 19.432 22.1036 21.6201 19.1743H2.3799C4.56802 22.1036 8.06251 24.0001 12 24.0001Z" fill="#0052B4"/>
<path d="M24 12C24 5.37262 18.6274 0 12 0C5.37262 0 0 5.37262 0 12C0 13.419 0.246984 14.7803 0.699188 16.0439H23.3008C23.753 14.7803 24 13.419 24 12Z" fill="#0052B4"/>
<path d="M8.21353 7.69592L8.86102 9.68867H10.9565L9.26128 10.9205L9.90877 12.9133L8.21353 11.6816L6.5183 12.9133L7.16588 10.9205L5.47064 9.68867H7.56605L8.21353 7.69592Z" fill="#F0F0F0"/>
<path d="M4.61503 5.60901L5.00353 6.8047H6.26086L5.24372 7.54373L5.63222 8.73946L4.61503 8.00043L3.59789 8.73946L3.98644 7.54373L2.96935 6.8047H4.22663L4.61503 5.60901Z" fill="#F0F0F0"/>
</g>
<defs>
<clipPath id="clip0_253_5158">
<rect width="24" height="24" fill="white"/>
</clipPath>
</defs>
</svg>
