<svg width="24" height="24" viewBox="0 0 24 24" fill="none" xmlns="http://www.w3.org/2000/svg">
<g clip-path="url(#clip0_253_6356)">
<path d="M20.4853 20.4852C15.799 25.1715 8.20098 25.1715 3.51466 20.4852C-1.17166 15.799 -1.17161 8.20097 3.51466 3.51465C3.88357 3.88351 13.1067 10.8931 13.1067 10.8931L20.4853 20.4852Z" fill="#0052B4"/>
<path d="M3.51471 3.5147C8.20098 -1.17157 15.799 -1.17157 20.4853 3.5147C25.1716 8.20098 25.1716 15.799 20.4853 20.4853" fill="#6DA544"/>
<path d="M12 15.1305C13.7289 15.1305 15.1304 13.729 15.1304 12.0001C15.1304 10.2712 13.7289 8.86963 12 8.86963C10.2711 8.86963 8.86951 10.2712 8.86951 12.0001C8.86951 13.729 10.2711 15.1305 12 15.1305Z" fill="#FFDA44"/>
<path d="M4.46834 17.2175L4.79763 17.9061L5.54121 17.7342L5.20821 18.4209L5.80624 18.8952L5.06168 19.0629L5.06374 19.8262L4.46834 19.3487L3.87293 19.8262L3.87499 19.0629L3.13043 18.8952L3.72846 18.4209L3.39542 17.7342L4.13904 17.9061L4.46834 17.2175Z" fill="#F0F0F0"/>
<path d="M2.3143 11.4783L2.64359 12.1668L3.38717 11.9949L3.05422 12.6817L3.65215 13.1559L2.90764 13.3237L2.9097 14.087L2.3143 13.6095L1.71894 14.087L1.72095 13.3237L0.97644 13.1559L1.57442 12.6817L1.24142 11.9949L1.985 12.1668L2.3143 11.4783Z" fill="#F0F0F0"/>
<path d="M4.46835 6.78271L4.79765 7.47126L5.54122 7.29932L5.20827 7.98613L5.80625 8.46037L5.06169 8.62813L5.06376 9.3914L4.46835 8.91393L3.87295 9.3914L3.87501 8.62813L3.13049 8.46037L3.72843 7.98613L3.39543 7.29932L4.13905 7.47126L4.46835 6.78271Z" fill="#F0F0F0"/>
<path d="M7.14407 10.4348L7.47337 11.1234L8.21699 10.9514L7.88394 11.6383L8.48193 12.1125L7.73741 12.2803L7.73943 13.0435L7.14407 12.566L6.54866 13.0435L6.55073 12.2803L5.80621 12.1125L6.40415 11.6383L6.0712 10.9514L6.81477 11.1234L7.14407 10.4348Z" fill="#F0F0F0"/>
<path d="M5.23082 13.5654L5.48985 14.3626H6.32798L5.64988 14.8552L5.90891 15.6523L5.23082 15.1597L4.55273 15.6523L4.81176 14.8552L4.13367 14.3626H4.97179L5.23082 13.5654Z" fill="#F0F0F0"/>
<path d="M12 14.087H13.0434C13.0434 14.087 13.4956 13.2871 13.0434 12.5218L14.0869 11.4783L13.5652 10.4348H13.0435C13.0435 10.4348 12.7826 11.2174 11.7391 11.2174C10.6957 11.2174 10.4348 10.4348 10.4348 10.4348H9.91309L10.4348 11.4783L9.91309 12.5218L10.4348 13.0435C10.4348 13.0435 10.9565 12 12 12.5218C12 12.5218 12.4434 13.174 12 14.087Z" fill="#6DA544"/>
<path d="M19.7884 6.57294C19.813 6.44474 19.8261 6.31251 19.8261 6.17713C19.8261 5.24901 19.2201 4.46287 18.3823 4.19165C18.6383 4.71196 18.7826 5.29715 18.7826 5.91627C18.7826 6.12505 18.7658 6.3299 18.7343 6.52982C18.6082 6.32671 18.4462 6.14113 18.2484 5.98368C17.503 5.39062 16.4845 5.37491 15.7314 5.87437C16.3128 6.0013 16.8749 6.25935 17.3721 6.65493C17.7614 6.96468 18.0759 7.38364 18.3168 7.78808L15.1304 8.78581C18.2609 9.30753 20.8696 7.22061 20.8696 7.22061C20.5805 6.64255 20.1316 6.54505 19.7884 6.57294Z" fill="#FFDA44"/>
</g>
<defs>
<clipPath id="clip0_253_6356">
<rect width="24" height="24" fill="white"/>
</clipPath>
</defs>
</svg>
