<svg width="24" height="24" viewBox="0 0 24 24" fill="none" xmlns="http://www.w3.org/2000/svg">
<g clip-path="url(#clip0_253_6736)">
<path d="M12 24C18.6274 24 24 18.6274 24 12C24 5.37258 18.6274 0 12 0C5.37258 0 0 5.37258 0 12C0 18.6274 5.37258 24 12 24Z" fill="#FCFCFC"/>
<path d="M18.7827 10.4348C18.4175 10.4348 17.9653 10.4348 17.2175 10.4348C17.2175 13.3163 14.8815 15.6522 12.0001 15.6522C9.11856 15.6522 6.78273 13.3163 6.78273 10.4348C6.27836 10.4348 5.72181 10.4348 5.21753 10.4348C5.21753 13.5386 7.30234 16.1555 10.1481 16.9615C9.83612 17.5541 9.88365 18.3003 10.3293 18.8565C10.9147 18.3873 11.5208 17.9017 12.0349 17.4897C12.549 17.9017 13.1551 18.3874 13.7404 18.8565C14.1905 18.2948 14.2348 17.5391 13.9125 16.9436C16.7271 16.1179 18.7827 13.5166 18.7827 10.4348Z" fill="#6DA544"/>
<path d="M7.82605 9.91291C7.82605 9.91291 7.82605 12.5216 10.4347 12.5216L10.9565 13.0433H11.9999C11.9999 13.0433 12.5217 11.4781 13.5651 11.4781C13.5651 11.4781 13.5651 10.4346 14.6086 10.4346C15.6521 10.4346 16.1738 10.4346 16.1738 10.4346C16.1738 10.4346 15.6521 8.34766 18.2608 6.78246L17.2173 6.26074C17.2173 6.26074 13.5651 8.86943 10.9565 8.34771V9.3912H9.91297L9.39125 8.86948L7.82605 9.91291Z" fill="#FFDA44"/>
</g>
<defs>
<clipPath id="clip0_253_6736">
<rect width="24" height="24" fill="white"/>
</clipPath>
</defs>
</svg>
