<svg width="24" height="24" viewBox="0 0 24 24" fill="none" xmlns="http://www.w3.org/2000/svg">
<g clip-path="url(#clip0_253_5737)">
<path d="M12 24C18.6274 24 24 18.6274 24 12C24 5.37258 18.6274 0 12 0C5.37258 0 0 5.37258 0 12C0 18.6274 5.37258 24 12 24Z" fill="#F0F0F0"/>
<path d="M14.3479 23.7695C19.0918 22.8285 22.8287 19.0915 23.7698 14.3477H14.3479V23.7695Z" fill="#496E2D"/>
<path d="M0.230347 14.3477C1.17136 19.0915 4.90833 22.8285 9.65222 23.7695V14.3477H0.230347Z" fill="#496E2D"/>
<path d="M23.7698 9.6521C22.8287 4.90826 19.0918 1.17129 14.3479 0.230225V9.6521H23.7698Z" fill="#496E2D"/>
<path d="M9.65222 0.230225C4.90833 1.17129 1.17136 4.90826 0.230347 9.6521H9.65222V0.230225Z" fill="#496E2D"/>
<path d="M11.2174 14.3479H9.65222V23.7698C10.163 23.8711 10.6855 23.9397 11.2174 23.974V14.3479Z" fill="#FFDA44"/>
<path d="M11.2174 9.65219V0.026123C10.6855 0.0603418 10.163 0.129014 9.65222 0.230311V9.65219H11.2174Z" fill="#FFDA44"/>
<path d="M12.7827 0.0261094C12.5238 0.009375 12.263 0 12 0C11.737 0 11.4763 0.009375 11.2174 0.0261094V9.65222H12.7826V0.0261094H12.7827Z" fill="black"/>
<path d="M11.2174 23.974C11.4763 23.9907 11.737 24.0001 12 24.0001C12.263 24.0001 12.5238 23.9907 12.7827 23.974V14.3479H11.2175V23.974H11.2174Z" fill="black"/>
<path d="M9.65219 11.2173V9.6521H0.230311C0.128967 10.1629 0.0603418 10.6854 0.026123 11.2173H9.65219Z" fill="#FFDA44"/>
<path d="M14.3479 11.2173H23.974C23.9398 10.6854 23.8711 10.1629 23.7698 9.6521H14.3479V11.2173H14.3479Z" fill="#FFDA44"/>
<path d="M14.3478 12.7825H23.9739C23.9906 12.5237 24 12.2629 24 11.9999C24 11.7369 23.9906 11.4761 23.9738 11.2173H14.3478V12.7825Z" fill="black"/>
<path d="M0.0261094 11.2173C0.00942187 11.4761 0 11.7369 0 11.9999C0 12.2629 0.00942187 12.5237 0.0261094 12.7825H9.65222V11.2173H0.0261094V11.2173Z" fill="black"/>
<path d="M12 17.739C15.1696 17.739 17.7391 15.1695 17.7391 11.9999C17.7391 8.83024 15.1696 6.26074 12 6.26074C8.83037 6.26074 6.26086 8.83024 6.26086 11.9999C6.26086 15.1695 8.83037 17.739 12 17.739Z" fill="#D80027"/>
<path d="M13.3075 12.6404C12.8806 11.7867 12.3258 10.9214 12.3258 10.9214C12.3258 10.9214 12.3395 10.5274 12.3395 10.2927C12.3395 9.93903 12.0529 9.65234 11.6992 9.65234C11.3642 9.65234 11.0897 9.90973 11.0617 10.2374C10.7983 10.2546 10.5898 10.4732 10.5898 10.7409C10.5898 10.9356 10.7001 11.1043 10.8616 11.1886C10.9418 11.0009 11.099 10.8544 11.2933 10.7876C11.325 10.8135 11.359 10.8367 11.3953 10.8563L11.4774 10.8956C11.4774 10.8956 11.1732 11.753 11.1732 12.2136C11.1732 13.5085 12.027 13.9078 12.027 13.9078V13.9212L11.6001 14.348H12.4538V13.4942L12.8807 13.9211C12.8845 13.9131 13.6893 13.4041 13.3075 12.6404Z" fill="#496E2D"/>
<path d="M12 7.30444L12.1942 7.90229H12.8228L12.3143 8.2718L12.5086 8.86965L12 8.50018L11.4914 8.86965L11.6857 8.2718L11.1771 7.90229H11.8057L12 7.30444Z" fill="#496E2D"/>
<path d="M9.24 8.20122L9.7485 8.57073L10.2571 8.20117L10.0628 8.79911L10.5714 9.16853L9.9428 9.16858L9.74855 9.76642L9.55425 9.16858L8.92566 9.16853L9.43421 8.79902L9.24 8.20122Z" fill="#496E2D"/>
<path d="M7.53418 10.549H8.16273L8.35702 9.95117L8.55127 10.549L9.17991 10.549L8.67137 10.9185L8.86566 11.5164L8.35702 11.1469L7.84848 11.5163L8.04268 10.9185L7.53418 10.549Z" fill="#496E2D"/>
<path d="M7.53418 13.4512L8.04268 13.0818L7.84843 12.4839L8.35702 12.8534L8.86562 12.4839L8.67137 13.0817L9.17996 13.4512L8.55127 13.4513L8.35702 14.0491L8.16273 13.4512H7.53418Z" fill="#496E2D"/>
<path d="M9.24005 15.799L9.43425 15.2013L8.92566 14.8318H9.5543L9.7486 14.2339L9.94285 14.8317H10.5715L10.0629 15.2013L10.2571 15.7991L9.74855 15.4296L9.24005 15.799Z" fill="#496E2D"/>
<path d="M12 16.6958L11.8057 16.0981H11.1771L11.6857 15.7285L11.4914 15.1307L12 15.5001L12.5085 15.1306L12.3143 15.7285L12.8228 16.098L12.1942 16.0981L12 16.6958Z" fill="#496E2D"/>
<path d="M14.76 15.799L14.2515 15.4296L13.743 15.7991L13.9372 15.2013L13.4286 14.8318L14.0572 14.8317L14.2514 14.2339L14.4458 14.8318H15.0744L14.5658 15.2013L14.76 15.799Z" fill="#496E2D"/>
<path d="M16.4658 13.4512H15.8373L15.643 14.049L15.4488 13.4512H14.8201L15.3287 13.0817L15.1344 12.4839L15.643 12.8534L16.1515 12.4839L15.9573 13.0817L16.4658 13.4512Z" fill="#496E2D"/>
<path d="M16.4658 10.549L15.9573 10.9184L16.1516 11.5163L15.643 11.1468L15.1344 11.5164L15.3287 10.9185L14.8201 10.549L15.4488 10.5489L15.643 9.95117L15.8373 10.549H16.4658Z" fill="#496E2D"/>
<path d="M14.76 8.20117L14.5658 8.79897L15.0744 9.16848H14.4458L14.2515 9.76638L14.0572 9.16853L13.4286 9.16858L13.9372 8.79897L13.7429 8.20122L14.2515 8.57064L14.76 8.20117Z" fill="#496E2D"/>
</g>
<defs>
<clipPath id="clip0_253_5737">
<rect width="24" height="24" fill="white"/>
</clipPath>
</defs>
</svg>
