<svg width="24" height="24" viewBox="0 0 24 24" fill="none" xmlns="http://www.w3.org/2000/svg">
<g clip-path="url(#clip0_253_6586)">
<path d="M0 12C0 5.37262 5.37262 0 12 0C18.6274 0 24 5.37262 24 12L12 13.0435L0 12Z" fill="#FFDA44"/>
<path d="M1.60571 17.9999C3.68063 21.5866 7.55832 23.9999 12 23.9999C16.4416 23.9999 20.3193 21.5866 22.3942 17.9999L12 17.2173L1.60571 17.9999Z" fill="#D80027"/>
<path d="M22.3942 18C23.4153 16.235 24 14.1858 24 12H0C0 14.1858 0.584719 16.235 1.60575 18H22.3942Z" fill="#0052B4"/>
<path d="M11.9999 16.174C14.3051 16.174 16.1738 14.3052 16.1738 12.0001C16.1738 9.69489 14.3051 7.82617 11.9999 7.82617C9.69476 7.82617 7.82605 9.69489 7.82605 12.0001C7.82605 14.3052 9.69476 16.174 11.9999 16.174Z" fill="#FFDA44"/>
<path d="M12 14.6088C10.5616 14.6088 9.39136 13.4385 9.39136 12.0001V10.4349C9.39136 8.99641 10.5616 7.82617 12 7.82617C13.4385 7.82617 14.6087 8.99645 14.6087 10.4349V12.0001C14.6087 13.4385 13.4385 14.6088 12 14.6088Z" fill="#338AF3"/>
<path d="M16.1739 5.73904H13.0435C13.0435 5.16276 12.5763 4.69556 12 4.69556C11.4237 4.69556 10.9565 5.16276 10.9565 5.73904H7.82605C7.82605 6.31537 8.32803 6.78253 8.90427 6.78253H8.86953C8.86953 7.35885 9.33669 7.82601 9.91302 7.82601C9.91302 8.40234 10.3802 8.86949 10.9565 8.86949H13.0435C13.6198 8.86949 14.087 8.40234 14.087 7.82601C14.6633 7.82601 15.1304 7.35885 15.1304 6.78253H15.0957C15.672 6.78253 16.1739 6.31532 16.1739 5.73904Z" fill="black"/>
</g>
<defs>
<clipPath id="clip0_253_6586">
<rect width="24" height="24" fill="white"/>
</clipPath>
</defs>
</svg>
