<svg width="24" height="24" viewBox="0 0 24 24" fill="none" xmlns="http://www.w3.org/2000/svg">
<g clip-path="url(#clip0_253_6407)">
<path d="M12 24C18.6274 24 24 18.6274 24 12C24 5.37258 18.6274 0 12 0C5.37258 0 0 5.37258 0 12C0 18.6274 5.37258 24 12 24Z" fill="#F0F0F0"/>
<path d="M11.9999 0C6.84037 0 2.44185 3.2565 0.746338 7.82611H23.2536C21.558 3.2565 17.1595 0 11.9999 0Z" fill="#D80027"/>
<path d="M11.9999 23.9999C17.1595 23.9999 21.558 20.7434 23.2536 16.1738H0.746338C2.44185 20.7434 6.84037 23.9999 11.9999 23.9999Z" fill="black"/>
<path d="M16.1739 10.6956H13.0435C13.0435 10.1193 12.5763 9.6521 12 9.6521C11.4237 9.6521 10.9565 10.1193 10.9565 10.6956H7.82605C7.82605 11.2719 8.32803 11.7391 8.90431 11.7391H8.86953C8.86953 12.3154 9.33669 12.7826 9.91302 12.7826C9.91302 13.3589 10.3802 13.826 10.9565 13.826H13.0435C13.6198 13.826 14.087 13.3589 14.087 12.7826C14.6633 12.7826 15.1304 12.3154 15.1304 11.7391H15.0957C15.672 11.7391 16.1739 11.2719 16.1739 10.6956Z" fill="#FF9811"/>
</g>
<defs>
<clipPath id="clip0_253_6407">
<rect width="24" height="24" fill="white"/>
</clipPath>
</defs>
</svg>
