<svg width="24" height="24" viewBox="0 0 24 24" fill="none" xmlns="http://www.w3.org/2000/svg">
<g clip-path="url(#clip0_253_5071)">
<path d="M1.19072 6.78262C0.427875 8.36025 0 10.1301 0 12C0 13.8699 0.427875 15.6397 1.19072 17.2174L12 18.2609L22.8093 17.2174C23.5721 15.6397 24 13.8699 24 12C24 10.1301 23.5721 8.36025 22.8093 6.78262L12 5.73914L1.19072 6.78262Z" fill="#F0F0F0"/>
<path d="M1.19116 17.2174C3.13207 21.2314 7.24254 24 12 24C16.7575 24 20.868 21.2314 22.8089 17.2174H1.19116Z" fill="#496E2D"/>
<path d="M1.19116 6.78263H22.8089C20.868 2.76867 16.7576 0 12 0C7.24249 0 3.13207 2.76867 1.19116 6.78263Z" fill="black"/>
<path d="M3.51471 3.51465C-1.17157 8.20093 -1.17157 15.7989 3.51471 20.4853C5.45126 18.5487 7.31374 16.6862 12 12L3.51471 3.51465Z" fill="#D80027"/>
<path d="M15.1304 11.9999C15.1304 10.2516 16.3592 8.79103 18 8.43272C17.7478 8.37764 17.4861 8.34778 17.2174 8.34778C15.2003 8.34778 13.5652 9.98287 13.5652 11.9999C13.5652 14.017 15.2003 15.6521 17.2174 15.6521C17.4861 15.6521 17.7477 15.6223 18 15.5672C16.3592 15.2089 15.1304 13.7483 15.1304 11.9999Z" fill="#D80027"/>
<path d="M18.1534 9.6521L18.6715 11.2465H20.3478L18.9916 12.2317L19.5097 13.826L18.1534 12.8407L16.7973 13.826L17.3154 12.2317L15.9591 11.2465H17.6354L18.1534 9.6521Z" fill="#D80027"/>
</g>
<defs>
<clipPath id="clip0_253_5071">
<rect width="24" height="24" fill="white"/>
</clipPath>
</defs>
</svg>
