<svg width="24" height="24" viewBox="0 0 24 24" fill="none" xmlns="http://www.w3.org/2000/svg">
<g clip-path="url(#clip0_253_5771)">
<path d="M24 12C24 18.6274 18.6274 24 12 24C5.37262 24 0 18.6274 0 12C0 12.0029 12 0.0013125 12 0C18.6274 0 24 5.37262 24 12Z" fill="#338AF3"/>
<path d="M11.9999 5.73926V9.78659L7.82605 5.73926H11.9999Z" fill="#0052B4"/>
<path d="M6.26085 12.0001H9.78642L6.26085 7.30444L5.73914 10.9566L6.26085 12.0001Z" fill="#0052B4"/>
<path d="M11.9679 11.9999H12C12 11.9891 12 11.9786 12 11.9678C11.9893 11.9785 11.9786 11.9892 11.9679 11.9999Z" fill="#F0F0F0"/>
<path d="M12 6.26086C12 4.14937 12 2.76586 12 0H11.998C5.3715 0.001125 0 5.37323 0 12H6.26086V8.47448L9.78642 12H11.968C11.9787 11.9893 11.9894 11.9786 12.0001 11.9679C12.0001 11.1594 12.0001 10.4381 12.0001 9.78647L8.47444 6.26086H12Z" fill="#F0F0F0"/>
<path d="M6.071 1.56519C4.19417 2.63389 2.63389 4.19417 1.56519 6.071V12H4.69564V4.69573V4.69564H12C12 3.70831 12 2.76772 12 1.56519H6.071Z" fill="#D80027"/>
<path d="M12 10.5244L7.73654 6.26099H6.26086V6.26108L11.9999 12.0001H12C12 12.0001 12 10.9826 12 10.5244Z" fill="#D80027"/>
<path d="M13.5652 7.8262V12C13.5652 14.7957 17.2174 15.6523 17.2174 15.6523C17.2174 15.6523 20.8695 14.7957 20.8695 12V7.8262L17.2174 6.78271L13.5652 7.8262Z" fill="#F3F3F3"/>
<path d="M20.8695 7.82619V6.26099H13.5652V7.82619H16.6955V10.9567H13.5652V12.0001V12.0002L16.6955 12.0002V15.4923C17.0105 15.6036 17.2174 15.6523 17.2174 15.6523C17.2174 15.6523 17.4242 15.6037 17.739 15.4923V12.0002H20.8695V12.0001V10.9566H17.739V7.82614H20.8695V7.82619Z" fill="#D80027"/>
</g>
<defs>
<clipPath id="clip0_253_5771">
<rect width="24" height="24" fill="white"/>
</clipPath>
</defs>
</svg>
