<svg width="24" height="24" viewBox="0 0 24 24" fill="none" xmlns="http://www.w3.org/2000/svg">
<g clip-path="url(#clip0_253_5372)">
<path d="M24 12C24 18.6274 18.6274 24 12 24C5.37262 24 0 18.6274 0 12C0 12.0029 12 0.0013125 12 0C18.6274 0 24 5.37262 24 12Z" fill="#0052B4"/>
<path d="M11.9679 12H12C12 11.9892 12 11.9787 12 11.9679C11.9893 11.9786 11.9786 11.9893 11.9679 12Z" fill="#F0F0F0"/>
<path d="M12 6.26086C12 4.14937 12 2.76586 12 0H11.998C5.3715 0.001125 0 5.37323 0 12H6.26086V8.47448L9.78642 12H11.9679L12 11.9679C12 11.1594 12 10.4381 12 9.78647L8.47444 6.26086H12Z" fill="#F0F0F0"/>
<path d="M6.07101 1.56519C4.19419 2.63389 2.6339 4.19417 1.5652 6.071V12H4.69565V4.69573V4.69564H12C12 3.70831 12 2.76772 12 1.56519H6.07101Z" fill="#D80027"/>
<path d="M12 10.5243L7.73658 6.26086H6.26091V6.26096L11.9999 12H12C12 12 12 10.9824 12 10.5243Z" fill="#D80027"/>
<path d="M19.3043 14.0869V14.6086H15.1305V14.0869H13.5652V16.1738H14.6087V16.6956H19.8261V16.1738H20.8695V14.0869H19.3043Z" fill="#FFDA44"/>
<path d="M13.5652 6.26086V12C13.5652 14.7956 17.2174 15.6522 17.2174 15.6522C17.2174 15.6522 20.8695 14.7956 20.8695 12V6.26086H13.5652Z" fill="#338AF3"/>
<path d="M17.2172 10.5417C16.3042 10.5417 16.3042 11.3765 15.3912 11.3765C14.4782 11.3765 14.4782 10.5417 13.5652 10.5417V12.0026C14.4782 12.0026 14.4782 12.8374 15.3912 12.8374C16.3042 12.8374 16.3042 12.0026 17.2172 12.0026C18.1303 12.0026 18.1303 12.8374 19.0434 12.8374C19.9565 12.8374 19.9565 12.0026 20.8696 12.0026V10.5417C19.9565 10.5417 19.9565 11.3765 19.0434 11.3765C18.1303 11.3765 18.1303 10.5417 17.2172 10.5417Z" fill="#F3F3F3"/>
<path d="M17.2172 7.61743C16.3042 7.61743 16.3042 8.45223 15.3912 8.45223C14.4782 8.45223 14.4782 7.61743 13.5652 7.61743V9.07829C14.4782 9.07829 14.4782 9.91309 15.3912 9.91309C16.3042 9.91309 16.3042 9.07829 17.2172 9.07829C18.1303 9.07829 18.1303 9.91309 19.0434 9.91309C19.9565 9.91309 19.9565 9.07829 20.8696 9.07829V7.61743C19.9565 7.61743 19.9565 8.45223 19.0434 8.45223C18.1303 8.45223 18.1303 7.61743 17.2172 7.61743Z" fill="#F3F3F3"/>
</g>
<defs>
<clipPath id="clip0_253_5372">
<rect width="24" height="24" fill="white"/>
</clipPath>
</defs>
</svg>
