<svg width="24" height="24" viewBox="0 0 24 24" fill="none" xmlns="http://www.w3.org/2000/svg">
<g clip-path="url(#clip0_253_5208)">
<path d="M12 24C18.6274 24 24 18.6274 24 12C24 5.37258 18.6274 0 12 0C5.37258 0 0 5.37258 0 12C0 18.6274 5.37258 24 12 24Z" fill="#338AF3"/>
<path d="M11.9999 5.21741L12.5179 6.81172H14.1943L12.8381 7.79708L13.3561 9.39135L11.9999 8.40603L10.6437 9.39135L11.1618 7.79708L9.80554 6.81172H11.4819L11.9999 5.21741Z" fill="#F0F0F0"/>
<path d="M5.21735 12.0002L6.81166 11.4821V9.80566L7.79702 11.1619L9.39128 10.6439L8.40597 12.0002L9.39128 13.3563L7.79702 12.8382L6.81166 14.1944V12.5181L5.21735 12.0002Z" fill="#F0F0F0"/>
<path d="M12 18.7827L11.482 17.1884H9.80554L11.1618 16.203L10.6438 14.6088L12 15.5941L13.3561 14.6088L12.8381 16.203L14.1943 17.1884H12.518L12 18.7827Z" fill="#F0F0F0"/>
<path d="M18.7826 12L17.1883 12.518V14.1944L16.2029 12.8382L14.6086 13.3562L15.594 12L14.6086 10.6439L16.2029 11.1619L17.1883 9.80566V11.4821L18.7826 12Z" fill="#F0F0F0"/>
</g>
<defs>
<clipPath id="clip0_253_5208">
<rect width="24" height="24" fill="white"/>
</clipPath>
</defs>
</svg>
