<svg width="24" height="24" viewBox="0 0 24 24" fill="none" xmlns="http://www.w3.org/2000/svg">
<g clip-path="url(#clip0_253_5405)">
<path d="M12 24C18.6274 24 24 18.6274 24 12C24 5.37258 18.6274 0 12 0C5.37258 0 0 5.37258 0 12C0 18.6274 5.37258 24 12 24Z" fill="#FFDA44"/>
<path d="M5.23657 2.08697C7.16243 0.770437 9.49109 0 12 0C14.509 0 16.8376 0.770437 18.7635 2.08697L12 2.60869L5.23657 2.08697Z" fill="#A2001D"/>
<path d="M12 12L11.2342 11.2341L11.0308 11.5984L12 12Z" fill="#0052B4"/>
<path d="M3.51471 3.51465C-1.17157 8.20093 -1.17157 15.7989 3.51471 20.4853C5.45126 18.5487 7.31374 16.6862 12 12L3.51471 3.51465Z" fill="#496E2D"/>
<path d="M20.4853 3.51465C25.1716 8.20093 25.1716 15.7989 20.4853 20.4853C18.5488 18.5487 16.6863 16.6862 12 12L20.4853 3.51465Z" fill="#496E2D"/>
<path d="M12 16.1738C14.3052 16.1738 16.1739 14.3051 16.1739 11.9999C16.1739 9.69476 14.3052 7.82605 12 7.82605C9.69483 7.82605 7.82611 9.69476 7.82611 11.9999C7.82611 14.3051 9.69483 16.1738 12 16.1738Z" fill="#A2001D"/>
<path d="M12 7.82605L12.9355 10.7055H15.9636L13.514 12.4855L14.4495 15.3651L12 13.5855L9.55027 15.3651L10.486 12.4855L8.03644 10.7055H11.0643L12 7.82605Z" fill="#FFDA44"/>
<path d="M12 0C11.9986 0 11.9973 9.375e-05 11.996 9.375e-05H12.004C12.0027 9.375e-05 12.0014 0 12 0Z" fill="#FFDA44"/>
<path d="M12.004 0H11.996C8.68413 0.00107812 5.68596 1.34372 3.51532 3.51413H20.4847C18.314 1.34372 15.3158 0.00107812 12.004 0Z" fill="#A2001D"/>
<path d="M3.51538 20.4858C5.68691 22.657 8.68663 23.9999 12 23.9999C15.3133 23.9999 18.3131 22.657 20.4846 20.4858H3.51538Z" fill="#A2001D"/>
<path d="M12 1.30432L12.1943 1.90217H12.8229L12.3144 2.27168L12.5087 2.86952L12 2.50006L11.4915 2.86952L11.6858 2.27168L11.1771 1.90217H11.8057L12 1.30432Z" fill="#FFDA44"/>
<path d="M9.09016 1.30432L9.28446 1.90217H9.91305L9.40451 2.27168L9.5988 2.86952L9.09016 2.50006L8.58166 2.86952L8.77591 2.27168L8.26727 1.90217H8.89587L9.09016 1.30432Z" fill="#FFDA44"/>
<path d="M14.9099 1.30432L15.1042 1.90217H15.7328L15.2242 2.27168L15.4185 2.86952L14.9099 2.50006L14.4013 2.86952L14.5956 2.27168L14.087 1.90217H14.7156L14.9099 1.30432Z" fill="#FFDA44"/>
<path d="M12 21.1304L12.1943 21.7282H12.8229L12.3144 22.0977L12.5087 22.6956L12 22.3261L11.4915 22.6956L11.6858 22.0977L11.1771 21.7282H11.8057L12 21.1304Z" fill="#FFDA44"/>
<path d="M9.09016 21.1304L9.28446 21.7282H9.91305L9.40451 22.0977L9.5988 22.6956L9.09016 22.3261L8.58166 22.6956L8.77591 22.0977L8.26727 21.7282H8.89587L9.09016 21.1304Z" fill="#FFDA44"/>
<path d="M14.9099 21.1304L15.1042 21.7282H15.7328L15.2242 22.0977L15.4185 22.6956L14.9099 22.3261L14.4013 22.6956L14.5956 22.0977L14.087 21.7282H14.7156L14.9099 21.1304Z" fill="#FFDA44"/>
<path d="M3.65639 11.8018C3.96459 12.2888 3.81975 12.9334 3.33277 13.2416C2.84583 13.5499 2.2012 13.405 1.89295 12.918C1.33491 12.0364 1.65848 10.5966 1.65848 10.5966C1.65848 10.5966 3.0983 10.9201 3.65639 11.8018Z" fill="#FFDA44"/>
<path d="M3.0537 13.3226C3.34184 13.3226 3.57542 13.089 3.57542 12.8009C3.57542 12.5128 3.34184 12.2792 3.0537 12.2792C2.76556 12.2792 2.53198 12.5128 2.53198 12.8009C2.53198 13.089 2.76556 13.3226 3.0537 13.3226Z" fill="#A2001D"/>
</g>
<defs>
<clipPath id="clip0_253_5405">
<rect width="24" height="24" fill="white"/>
</clipPath>
</defs>
</svg>
