<svg width="24" height="24" viewBox="0 0 24 24" fill="none" xmlns="http://www.w3.org/2000/svg">
<g clip-path="url(#clip0_253_4804)">
<path d="M0 12C0 13.4678 0.264047 14.8739 0.746391 16.1739L12 16.6956L23.2536 16.1739C23.736 14.8739 24 13.4678 24 12C24 10.5321 23.736 9.12607 23.2536 7.82609L12 7.30432L0.746391 7.82604C0.264047 9.12607 0 10.5321 0 12H0Z" fill="#FFDA44"/>
<path d="M12 0C6.84043 0 2.44191 3.2565 0.746399 7.82611H23.2537C21.5581 3.2565 17.1596 0 12 0Z" fill="#D80027"/>
<path d="M23.2536 16.174H0.746399C2.44191 20.7435 6.84043 24.0001 12 24.0001C17.1596 24.0001 21.5581 20.7435 23.2536 16.174Z" fill="#496E2D"/>
<path d="M11.9999 7.82605L13.0358 11.0145H16.3887L13.6764 12.9853L14.7123 16.1738L11.9999 14.2032L9.28747 16.1738L10.3236 12.9853L7.61127 11.0145H10.964L11.9999 7.82605Z" fill="black"/>
</g>
<defs>
<clipPath id="clip0_253_4804">
<rect width="24" height="24" fill="white"/>
</clipPath>
</defs>
</svg>
