<svg width="24" height="24" viewBox="0 0 24 24" fill="none" xmlns="http://www.w3.org/2000/svg">
<g clip-path="url(#clip0_253_5428)">
<path d="M5.23657 21.9131C7.16238 23.2296 9.49114 24.0001 12 24.0001C14.5089 24.0001 16.8376 23.2296 18.7635 21.9131L12 20.8696L5.23657 21.9131Z" fill="#D80027"/>
<path d="M18.7635 2.08697C16.8376 0.770484 14.5089 0 12 0C9.49114 0 7.16238 0.770484 5.23657 2.08697L12 3.13045L18.7635 2.08697Z" fill="#D80027"/>
<path d="M24 11.9999C24 8.02916 21.6227 4.04151 18.7635 2.08691H5.23655C2.07516 4.24804 0 7.88151 0 11.9999C0 16.1185 2.07516 19.7519 5.23655 21.913H18.7635C21.9249 19.7519 24 16.1185 24 11.9999Z" fill="#0052B4"/>
<path d="M11.3209 19.5748C11.1569 19.4342 7.30432 16.0851 7.30432 12C7.30432 7.91486 11.1569 4.56569 11.3209 4.42511L12 3.84302L12.6791 4.42506C12.843 4.56569 16.6956 7.91481 16.6956 12C16.6956 16.0851 12.8431 19.4343 12.6791 19.5748L12 20.1569L11.3209 19.5748Z" fill="#D80027"/>
<path d="M15.6522 12C15.6522 8.34786 12 5.21741 12 5.21741C12 5.21741 8.34784 8.34795 8.34784 12C8.34784 13.1173 8.68989 14.1855 9.16435 15.1305H14.8357C15.3101 14.1855 15.6522 13.1173 15.6522 12Z" fill="#338AF3"/>
<path d="M15.6522 12C15.6522 13.1173 15.3101 14.1855 14.8357 15.1305L12 15.6522L9.16435 15.1305C8.68989 14.1855 8.34784 13.1173 8.34784 12H15.6522Z" fill="#0052B4"/>
<path d="M12 18.7827C12 18.7827 13.7591 17.2744 14.8357 15.1305H9.16437C10.2409 17.2744 12 18.7827 12 18.7827Z" fill="#FFDA44"/>
<path d="M9.65216 9.91309H14.3478L12 12.2609L9.65216 9.91309Z" fill="#6DA544"/>
<path d="M11.2173 11.4783H12.7825V16.1739H11.2173V11.4783Z" fill="#A2001D"/>
</g>
<defs>
<clipPath id="clip0_253_5428">
<rect width="24" height="24" fill="white"/>
</clipPath>
</defs>
</svg>
