<svg width="24" height="24" viewBox="0 0 24 24" fill="none" xmlns="http://www.w3.org/2000/svg">
<g clip-path="url(#clip0_253_5176)">
<path d="M12 0C10.9169 0 9.86766 0.144375 8.86955 0.413391L7.82611 12L8.8696 23.5866C9.86766 23.8556 10.9169 24 12 24C18.6274 24 24 18.6274 24 12C24 5.37262 18.6274 0 12 0Z" fill="#FFDA44"/>
<path d="M7.82611 12L8.8696 23.5866C9.86766 23.8556 10.9169 24 12 24C18.6274 24 24 18.6274 24 12H7.82611Z" fill="#6DA544"/>
<path d="M0 11.9999C0 16.5484 2.53078 20.5056 6.26086 22.5408V1.45898C2.53078 3.4942 0 7.45139 0 11.9999Z" fill="#D80027"/>
<path d="M0 11.9999C0 17.5443 3.76036 22.2095 8.86955 23.5865V0.41333C3.76036 1.79033 0 6.45561 0 11.9999Z" fill="#D80027"/>
<path d="M4.5345 8.86951L5.31145 11.2609H7.82611L5.79182 12.7389L6.56873 15.1304L4.5345 13.6524L2.50017 15.1304L3.27726 12.7389L1.24298 11.2609H3.7575L4.5345 8.86951Z" fill="black"/>
</g>
<defs>
<clipPath id="clip0_253_5176">
<rect width="24" height="24" fill="white"/>
</clipPath>
</defs>
</svg>
