<svg width="24" height="24" viewBox="0 0 24 24" fill="none" xmlns="http://www.w3.org/2000/svg">
<g clip-path="url(#clip0_253_5443)">
<path d="M12 24C18.6274 24 24 18.6274 24 12C24 5.37258 18.6274 0 12 0C5.37258 0 0 5.37258 0 12C0 18.6274 5.37258 24 12 24Z" fill="#F0F0F0"/>
<path d="M12 0C9.87837 0 7.88581 0.551344 6.15649 1.51744V22.4826C7.88585 23.4487 9.87837 24 12 24C18.6274 24 24 18.6274 24 12C24 5.37262 18.6274 0 12 0Z" fill="#6DA544"/>
<path d="M6.19184 1.49768C5.43692 1.91604 4.73201 2.41329 4.088 2.9786C4.15311 2.92151 4.21887 2.86507 4.28515 2.80938L13.4757 12L4.28511 21.1906C4.21878 21.1349 4.15306 21.0784 4.08795 21.0214C4.73197 21.5867 5.43692 22.0839 6.1918 22.5023L24 12L6.19184 1.49768Z" fill="#F0F0F0"/>
<path d="M5.17831 2.12732C4.81235 2.38073 4.46088 2.6534 4.12596 2.94482L12 12L4.12592 21.0553C4.46084 21.3467 4.81231 21.6194 5.17826 21.8728L21.9459 12L5.17831 2.12732Z" fill="#FFDA44"/>
<path d="M4.2851 2.80945C4.01833 3.0336 3.7609 3.26859 3.51471 3.51473L10.9565 12L3.51471 20.4854C3.7609 20.7315 4.01829 20.9666 4.2851 21.1906L13.4757 12L4.2851 2.80945Z" fill="black"/>
<path d="M3.51471 3.51465C-1.17157 8.20093 -1.17157 15.7989 3.51471 20.4853C5.45126 18.5487 7.31374 16.6862 12 12L3.51471 3.51465Z" fill="#D80027"/>
</g>
<defs>
<clipPath id="clip0_253_5443">
<rect width="24" height="24" fill="white"/>
</clipPath>
</defs>
</svg>
