<svg width="24" height="24" viewBox="0 0 24 24" fill="none" xmlns="http://www.w3.org/2000/svg">
<g clip-path="url(#clip0_253_6481)">
<path d="M12 24C18.6274 24 24 18.6274 24 12C24 5.37258 18.6274 0 12 0C5.37258 0 0 5.37258 0 12C0 18.6274 5.37258 24 12 24Z" fill="#D80027"/>
<path d="M13.2389 9.07813C12.9662 10.2125 12.4816 9.99613 12.2439 10.9854C10.8431 10.6486 9.9804 9.23999 10.3172 7.83913C10.6539 6.43836 12.0626 5.57567 13.4634 5.91247C12.9878 7.89092 13.4829 8.06361 13.2389 9.07813Z" fill="#F0F0F0"/>
<path d="M9.60408 9.91871C10.5986 10.5286 10.2431 10.9226 11.1104 11.4545C10.3572 12.6827 8.75104 13.0678 7.52283 12.3146C6.29465 11.5615 5.90948 9.95522 6.66267 8.72705C8.39733 9.79074 8.71444 9.37322 9.60408 9.91871Z" fill="#F0F0F0"/>
<path d="M9.28022 13.6355C10.1676 12.8781 10.4324 13.338 11.2063 12.6775C12.1417 13.7733 12.0115 15.4199 10.9158 16.3553C9.81994 17.2907 8.17332 17.1604 7.23807 16.0647C8.7856 14.7436 8.48649 14.3129 9.28022 13.6355Z" fill="#F0F0F0"/>
<path d="M12.715 15.0919C12.2688 14.0139 12.788 13.9041 12.399 12.9641C13.7302 12.4132 15.256 13.0457 15.807 14.3769C16.3579 15.7081 15.7253 17.2339 14.3941 17.7849C13.6161 15.9048 13.1141 16.0561 12.715 15.0919Z" fill="#F0F0F0"/>
<path d="M15.1617 12.2753C13.9986 12.3665 14.0544 11.8387 13.0403 11.9183C12.9276 10.4821 14.0008 9.22629 15.4371 9.11356C16.8733 9.00111 18.1291 10.0742 18.2417 11.5105C16.2131 11.6696 16.2019 12.1938 15.1617 12.2753Z" fill="#F0F0F0"/>
</g>
<defs>
<clipPath id="clip0_253_6481">
<rect width="24" height="24" fill="white"/>
</clipPath>
</defs>
</svg>
