<svg width="24" height="24" viewBox="0 0 24 24" fill="none" xmlns="http://www.w3.org/2000/svg">
<g clip-path="url(#clip0_253_5853)">
<path d="M24 12.0001C24 10.5323 23.736 9.12615 23.2536 7.82621L12 7.30444L0.746391 7.82616C0.264047 9.12615 0 10.5323 0 12.0001C0 13.4679 0.264047 14.8741 0.746391 16.174L12 16.6958L23.2536 16.174C23.736 14.8741 24 13.4679 24 12.0001Z" fill="#F0F0F0"/>
<path d="M12 23.9999C17.1596 23.9999 21.5581 20.7434 23.2536 16.1738H0.746399C2.44191 20.7434 6.84043 23.9999 12 23.9999Z" fill="#0052B4"/>
<path d="M0.746399 7.82611H23.2537C21.5581 3.2565 17.1596 0 12 0C6.84043 0 2.44191 3.2565 0.746399 7.82611Z" fill="#D80027"/>
<path d="M15.1304 8.34777H13.0435L13.3913 5.73904L14.7826 4.69556L16.1739 5.73904V7.82601L15.1304 8.34777Z" fill="#338AF3"/>
<path d="M8.86955 8.34777H10.9565L10.6087 5.73904L9.21736 4.69556L7.82611 5.73904V7.82601L8.86955 8.34777Z" fill="#338AF3"/>
<path d="M13.3913 8.34777H10.6086V5.73904L12 4.69556L13.3913 5.73904V8.34777Z" fill="#0052B4"/>
<path d="M7.82611 7.82617V13.5653C7.82611 14.9318 8.4862 16.1471 9.50433 16.909L10.2348 16.7262L11.1565 17.6535C11.4291 17.7096 11.7112 17.7392 12 17.7392C12.2874 17.7392 12.568 17.71 12.8392 17.6544L13.8914 16.7783L14.4957 16.9073C15.5134 16.1455 16.1739 14.9314 16.1739 13.5653V7.82617H7.82611Z" fill="#F0F0F0"/>
<path d="M7.82611 7.82617H9.49566V9.49572H7.82611V7.82617Z" fill="#D80027"/>
<path d="M11.1652 7.82617H12.8348V9.49572H11.1652V7.82617Z" fill="#D80027"/>
<path d="M14.5043 7.82617H16.1739V9.49572H14.5043V7.82617Z" fill="#D80027"/>
<path d="M9.49567 9.49561H11.1652V11.1652H9.49567V9.49561Z" fill="#D80027"/>
<path d="M12.8348 9.49561H14.5043V11.1652H12.8348V9.49561Z" fill="#D80027"/>
<path d="M7.82611 11.1648H9.49566V12.8343H7.82611V11.1648Z" fill="#D80027"/>
<path d="M9.49567 12.8342H11.1652V14.5038H9.49567V12.8342Z" fill="#D80027"/>
<path d="M11.1652 11.1648H12.8348V12.8343H11.1652V11.1648Z" fill="#D80027"/>
<path d="M14.5043 11.1648H16.1739V12.8343H14.5043V11.1648Z" fill="#D80027"/>
<path d="M12.8348 12.8342H14.5043V14.5038H12.8348V12.8342Z" fill="#D80027"/>
<path d="M11.1652 14.5039H12.8348V16.1735H11.1652V14.5039Z" fill="#D80027"/>
<path d="M9.49567 14.5042H7.93384C8.07709 15.1248 8.35871 15.6927 8.74487 16.1737H9.49567V14.5042Z" fill="#D80027"/>
<path d="M14.5043 16.1737H15.2551C15.6413 15.6927 15.9229 15.1247 16.0661 14.5042H14.5043V16.1737Z" fill="#D80027"/>
<path d="M9.49567 16.1736V16.9021C9.98124 17.2675 10.5487 17.5294 11.1652 17.6552V16.1736H9.49567Z" fill="#D80027"/>
<path d="M12.8348 16.1736V17.6552C13.4513 17.5295 14.0187 17.2675 14.5043 16.9021V16.1736H12.8348Z" fill="#D80027"/>
</g>
<defs>
<clipPath id="clip0_253_5853">
<rect width="24" height="24" fill="white"/>
</clipPath>
</defs>
</svg>
