<svg width="24" height="24" viewBox="0 0 24 24" fill="none" xmlns="http://www.w3.org/2000/svg">
<g clip-path="url(#clip0_253_4863)">
<path d="M24 12C24 18.6274 18.6274 24 12 24C5.37262 24 0 18.6274 0 12C0 5.37262 12 0 12 0C12 0 24 5.37262 24 12Z" fill="#A2001D"/>
<path d="M0 12C0 5.37262 5.37262 0 12 0C18.6274 0 24 5.37262 24 12" fill="#0052B4"/>
<path d="M16.1738 15.1304L11.9999 14.6086L7.82605 15.1304V8.86951H16.1738V15.1304Z" fill="#F0F0F0"/>
<path d="M12.0001 14.6086C13.1527 14.6086 14.087 13.6743 14.087 12.5217C14.087 11.3691 13.1527 10.4347 12.0001 10.4347C10.8475 10.4347 9.91309 11.3691 9.91309 12.5217C9.91309 13.6743 10.8475 14.6086 12.0001 14.6086Z" fill="#0052B4"/>
<path d="M12 13.5652C12.5763 13.5652 13.0435 13.0981 13.0435 12.5218C13.0435 11.9455 12.5763 11.4783 12 11.4783C11.4237 11.4783 10.9565 11.9455 10.9565 12.5218C10.9565 13.0981 11.4237 13.5652 12 13.5652Z" fill="#A2001D"/>
<path d="M10.4348 9.91309H13.5652L12 11.4783L10.4348 9.91309Z" fill="#6DA544"/>
<path d="M11.4783 10.9565H12.5218V14.087H11.4783V10.9565Z" fill="#FFDA44"/>
<path d="M13.6695 13.7739H10.3303L7.82605 15.1305H16.1738L13.6695 13.7739Z" fill="#6DA544"/>
</g>
<defs>
<clipPath id="clip0_253_4863">
<rect width="24" height="24" fill="white"/>
</clipPath>
</defs>
</svg>
