<svg width="24" height="24" viewBox="0 0 24 24" fill="none" xmlns="http://www.w3.org/2000/svg">
<g clip-path="url(#clip0_253_6515)">
<path d="M12 24C18.6274 24 24 18.6274 24 12C24 5.37258 18.6274 0 12 0C5.37258 0 0 5.37258 0 12C0 18.6274 5.37258 24 12 24Z" fill="#F0F0F0"/>
<path d="M16.5184 9.39116H13.5061L12 6.78247L10.4939 9.39116H7.48157L8.98785 11.9998L7.48157 14.6085H10.4939L12 17.2172L13.5061 14.6085H16.5184L15.0121 11.9998L16.5184 9.39116ZM13.8504 11.9998L12.9253 13.6024H11.0749L10.1496 11.9998L11.0748 10.3973H12.9252L13.8504 11.9998ZM12 8.79467L12.3443 9.39111H11.6557L12 8.79467ZM9.22433 10.3973H9.91302L9.56868 10.9937L9.22433 10.3973ZM9.22433 13.6024L9.56872 13.006L9.91307 13.6024H9.22433ZM12 15.205L11.6557 14.6085H12.3443L12 15.205ZM14.7756 13.6024H14.087L14.4313 13.006L14.7756 13.6024ZM14.087 10.3973H14.7756L14.4313 10.9937L14.087 10.3973Z" fill="#0052B4"/>
<path d="M19.4699 2.60864H4.53015C3.43501 3.48089 2.49582 4.54036 1.76129 5.7391H22.2387C21.5041 4.54041 20.565 3.48089 19.4699 2.60864Z" fill="#0052B4"/>
<path d="M4.53015 21.3912H19.4698C20.565 20.5189 21.5042 19.4595 22.2387 18.2607H1.76129C2.49587 19.4594 3.43506 20.5189 4.53015 21.3912Z" fill="#0052B4"/>
</g>
<defs>
<clipPath id="clip0_253_6515">
<rect width="24" height="24" fill="white"/>
</clipPath>
</defs>
</svg>
