<svg width="24" height="24" viewBox="0 0 24 24" fill="none" xmlns="http://www.w3.org/2000/svg">
<g clip-path="url(#clip0_253_6224)">
<path d="M12 24C18.6274 24 24 18.6274 24 12C24 5.37258 18.6274 0 12 0C5.37258 0 0 5.37258 0 12C0 18.6274 5.37258 24 12 24Z" fill="#F0F0F0"/>
<path d="M21.9998 13.4361C20.9999 13.4361 20.9999 12.5217 19.9998 12.5217C18.9998 12.5217 18.9998 13.4361 17.9999 13.4361C17 13.4361 16.9999 12.5217 16 12.5217C15 12.5217 15 13.4361 14 13.4361C12.9999 13.4361 12.9999 12.5217 11.9998 12.5217C10.9998 12.5217 10.9998 13.4361 9.99989 13.4361C9.00005 13.4361 9.00005 12.5217 8.00006 12.5217C6.99999 12.5217 6.99998 13.4361 5.99991 13.4361C4.99983 13.4361 4.99983 12.5217 3.99975 12.5217C2.99991 12.5217 2.99991 13.4361 1.99992 13.4361C1.00533 13.4361 0.999563 12.5318 0.0156097 12.5222C0.0433129 13.071 0.108844 13.6099 0.207938 14.1369C1.005 14.254 1.0748 15.036 2.00002 15.036C3 15.036 3 14.1218 3.99984 14.1218C4.99992 14.1218 4.99992 15.036 6 15.036C7.00008 15.036 7.00008 14.1218 8.00016 14.1218C9.00014 14.1218 9.00014 15.036 9.99998 15.036C11 15.036 11 14.1218 11.9999 14.1218C13 14.1218 13 15.036 14.0001 15.036C15.0001 15.036 15.0001 14.1218 16.0001 14.1218C17.0001 14.1218 17.0001 15.036 18 15.036C19 15.036 19 14.1218 19.9999 14.1218C21 14.1218 21 15.036 21.9999 15.036C22.9252 15.036 22.995 14.254 23.7921 14.1369C23.8913 13.6099 23.9567 13.0711 23.9845 12.5222C23.0003 12.5319 22.9945 13.4361 21.9998 13.4361Z" fill="#0052B4"/>
<path d="M19.9998 15.6521C18.9998 15.6521 18.9998 16.5664 17.9999 16.5664C17 16.5664 16.9999 15.6521 16 15.6521C15 15.6521 15 16.5664 14 16.5664C12.9999 16.5664 12.9999 15.6521 11.9998 15.6521C10.9998 15.6521 10.9998 16.5664 9.99989 16.5664C9.00005 16.5664 9.00005 15.6521 8.00007 15.6521C6.99999 15.6521 6.99999 16.5664 5.99991 16.5664C4.99983 16.5664 4.99983 15.6521 3.99975 15.6521C2.99991 15.6521 2.99991 16.5664 1.99992 16.5664C1.26328 16.5664 1.0688 16.0706 0.617722 15.8094C0.890909 16.6259 1.24974 17.4031 1.6831 18.1308C1.77694 18.1534 1.88128 18.1664 1.99988 18.1664C2.99986 18.1664 2.99986 17.2522 3.99971 17.2522C4.99978 17.2522 4.99978 18.1664 5.99986 18.1664C6.99994 18.1664 6.99994 17.2522 8.00002 17.2522C9 17.2522 9 18.1664 9.99985 18.1664C10.9998 18.1664 10.9998 17.2522 11.9998 17.2522C12.9998 17.2522 12.9998 18.1664 13.9999 18.1664C15 18.1664 15 17.2522 15.9999 17.2522C16.9999 17.2522 16.9999 18.1664 17.9999 18.1664C18.9998 18.1664 18.9998 17.2522 19.9998 17.2522C20.9999 17.2522 20.9999 18.1664 21.9998 18.1664C22.1185 18.1664 22.2229 18.1534 22.3168 18.1307C22.7502 17.4031 23.109 16.6259 23.3821 15.8095C22.9311 16.0706 22.7365 16.5665 21.9998 16.5665C20.9999 16.5664 20.9999 15.6521 19.9998 15.6521Z" fill="#0052B4"/>
<path d="M23.7208 9.41915C22.9898 9.57089 22.8966 10.3057 21.9998 10.3057C20.9999 10.3057 20.9999 9.39136 19.9998 9.39136C18.9998 9.39136 18.9998 10.3057 17.9999 10.3057C17 10.3057 16.9999 9.39136 16 9.39136C15 9.39136 15 10.3057 14 10.3057C12.9999 10.3057 12.9999 9.39136 11.9998 9.39136C11.4595 9.39136 11.211 9.65826 10.9391 9.9037V11.5037C11.211 11.2583 11.4594 10.9914 11.9998 10.9914C12.9999 10.9914 12.9999 11.9057 14 11.9057C15 11.9057 15 10.9914 16 10.9914C17 10.9914 17 11.9057 17.9999 11.9057C18.9998 11.9057 18.9999 10.9914 19.9998 10.9914C20.9999 10.9914 20.9999 11.9057 21.9998 11.9057C22.9251 11.9057 22.9949 11.1237 23.792 11.0066C23.8431 11.0066 23.9002 11.0061 23.9586 11.0054C23.9144 10.4657 23.8342 9.93623 23.7208 9.41915Z" fill="#0052B4"/>
<path d="M22.8443 6.85648C22.637 7.03052 22.3975 7.17509 21.9999 7.17509C20.9999 7.17509 20.9999 6.26074 19.9999 6.26074C18.9999 6.26074 18.9999 7.17509 18 7.17509C17 7.17509 17 6.26074 16 6.26074C15.0001 6.26074 15.0001 7.17509 14 7.17509C13 7.17509 12.9999 6.26074 11.9999 6.26074C11.4595 6.26074 11.2111 6.52765 10.9392 6.77309V8.37307C11.2111 8.12768 11.4595 7.86082 11.9999 7.86082C12.9999 7.86082 12.9999 8.77507 14 8.77507C15 8.77507 15 7.86082 16 7.86082C17 7.86082 17 8.77507 17.9999 8.77507C18.9998 8.77507 18.9999 7.86082 19.9998 7.86082C20.9999 7.86082 20.9999 8.77507 21.9998 8.77507C22.7094 8.77507 22.9161 8.31546 23.3333 8.04818C23.1911 7.64051 23.0278 7.24277 22.8443 6.85648Z" fill="#0052B4"/>
<path d="M20.0852 3.13281C20.0575 3.13131 20.0292 3.13037 19.9998 3.13037C18.9999 3.13037 18.9999 4.04471 17.9999 4.04471C16.9999 4.04471 16.9999 3.13037 16 3.13037C15 3.13037 15 4.04471 13.9999 4.04471C12.9999 4.04471 12.9999 3.13037 11.9998 3.13037C11.4594 3.13037 11.211 3.39728 10.9391 3.64271V5.2427C11.211 4.99731 11.4594 4.73045 11.9998 4.73045C12.9999 4.73045 12.9999 5.6447 13.9999 5.6447C15 5.6447 15 4.73045 15.9999 4.73045C16.9999 4.73045 16.9999 5.6447 17.9999 5.6447C18.9998 5.6447 18.9999 4.73045 19.9998 4.73045C20.9999 4.73045 20.9999 5.6447 21.9998 5.6447C22.0614 5.6447 22.1189 5.64104 22.1734 5.63453C21.5926 4.70809 20.8892 3.86636 20.0852 3.13281Z" fill="#0052B4"/>
<path d="M15.0671 0.396188C14.7926 0.643125 14.5446 0.914344 13.9999 0.914344C12.9998 0.914344 12.9998 9.375e-05 11.9998 0H11.9996C11.4825 4.6875e-05 11.2328 0.244594 10.9739 0.480797V2.08083C11.2328 1.84463 11.4825 1.60003 11.9998 1.60003C12.9999 1.60003 12.9999 2.51428 14 2.51428C15 2.51428 15 1.60003 16 1.60003C17 1.60003 17 2.51428 17.9999 2.51428C18.4195 2.51428 18.6629 2.35322 18.8781 2.16637C17.7374 1.36692 16.4512 0.761016 15.0671 0.396188Z" fill="#0052B4"/>
<path d="M13.9999 22.8275C12.9998 22.8275 12.9998 21.9131 11.9998 21.9131C10.9998 21.9131 10.9998 22.8275 9.99984 22.8275C9 22.8275 9 21.9131 8.00002 21.9131C7.23403 21.9131 7.05436 22.4491 6.56311 22.7003C7.9178 23.39 9.42094 23.8296 11.0119 23.9593C11.2579 23.7345 11.5079 23.5132 11.9998 23.5132C12.4918 23.5132 12.7418 23.7345 12.9878 23.9594C14.5788 23.8297 16.0821 23.39 17.4368 22.7003C16.9455 22.4492 16.7658 21.9131 15.9999 21.9131C15 21.9131 15 22.8275 13.9999 22.8275Z" fill="#0052B4"/>
<path d="M17.9999 19.6971C16.9999 19.6971 16.9999 18.7827 16 18.7827C15 18.7827 15 19.6971 14 19.6971C12.9999 19.6971 12.9999 18.7827 11.9998 18.7827C10.9998 18.7827 10.9998 19.6971 9.99988 19.6971C9.00004 19.6971 9.00004 18.7827 8.00006 18.7827C6.99998 18.7827 6.99998 19.6971 5.9999 19.6971C4.99982 19.6971 4.99982 18.7827 3.99974 18.7827C3.28063 18.7827 3.0787 19.2557 2.65002 19.5212C2.91871 19.8549 3.20437 20.1743 3.50666 20.4771C3.64209 20.4193 3.80099 20.3827 3.9997 20.3827C4.99977 20.3827 4.99977 21.297 5.99985 21.297C6.99993 21.297 6.99993 20.3827 8.00001 20.3827C8.99999 20.3827 8.99999 21.297 9.99984 21.297C10.9998 21.297 10.9998 20.3827 11.9998 20.3827C12.9998 20.3827 12.9998 21.297 13.9999 21.297C15 21.297 15 20.3827 15.9999 20.3827C16.9999 20.3827 16.9999 21.297 17.9999 21.297C18.9998 21.297 18.9998 20.3827 19.9998 20.3827C20.1987 20.3827 20.3576 20.4193 20.4931 20.4772C20.7955 20.1743 21.0811 19.8549 21.3498 19.5213C20.9211 19.2558 20.7192 18.7828 19.9998 18.7828C18.9998 18.7827 18.9998 19.6971 17.9999 19.6971Z" fill="#0052B4"/>
<path d="M11.9679 11.9999H12C12 11.9891 12 11.9786 12 11.9678C11.9893 11.9785 11.9786 11.9892 11.9679 11.9999Z" fill="#F0F0F0"/>
<path d="M12 6.26098V9.78659L7.82611 5.73926L12 6.26098Z" fill="#0052B4"/>
<path d="M6.2609 12.0001H9.78637L6.26085 7.30444L5.73914 10.9566L6.2609 12.0001Z" fill="#0052B4"/>
<path d="M12 6.26086C12 4.14937 12 2.76586 12 0H11.998C5.3715 0.001125 0 5.37323 0 12H6.26091V8.47448L9.78638 12H11.9679C11.9786 11.9893 11.9893 11.9786 12 11.9679C12 11.1594 12 10.4381 12 9.78647L8.47444 6.26086H12Z" fill="#F0F0F0"/>
<path d="M6.07101 1.56519C4.19419 2.63389 2.6339 4.19417 1.5652 6.071V12H4.69565V4.69573V4.69564H12C12 3.70831 12 2.76772 12 1.56519H6.07101Z" fill="#D80027"/>
<path d="M12 10.5244L7.73649 6.26099H6.26086V6.26108L11.9999 12.0001H12C12 12.0001 12 10.9826 12 10.5244Z" fill="#D80027"/>
<path d="M15.6522 6.26074H20.3478L18 8.60857L15.6522 6.26074Z" fill="#6DA544"/>
<path d="M17.4783 8.08691H18.5218V10.9565H17.4783V8.08691Z" fill="#A2001D"/>
<path d="M17.4783 15.6521H18.5218V18.5216H17.4783V15.6521Z" fill="#A2001D"/>
<path d="M21.1305 14.087C21.1305 13.2226 20.4297 12.5218 19.5653 12.5218C19.1643 12.5218 18.7988 12.6727 18.5218 12.9206V12H19.0435V10.9565H18.5218V10.4348H17.4783V10.9565H16.9566V12H17.4783V12.9206C17.2013 12.6727 16.8358 12.5218 16.4348 12.5218C15.5704 12.5218 14.8696 13.2226 14.8696 14.087C14.8696 14.5504 15.0712 14.9667 15.3913 15.2533V16.174H20.6087V15.2533C20.9288 14.9667 21.1305 14.5504 21.1305 14.087Z" fill="#FFDA44"/>
<path d="M19.5652 13.5652C19.4006 13.5652 19.2854 13.6375 19.2177 13.698L18.5217 14.321H17.4783L16.7823 13.698C16.7146 13.6375 16.5994 13.5652 16.4348 13.5652C16.1471 13.5652 15.9131 13.7992 15.9131 14.0869C15.9131 14.2895 16.0224 14.4176 16.0875 14.4759L16.4349 14.787V15.1304H19.5653V14.787L19.9127 14.4759C19.9778 14.4176 20.0871 14.2895 20.0871 14.0869C20.087 13.7992 19.8529 13.5652 19.5652 13.5652Z" fill="#D80027"/>
</g>
<defs>
<clipPath id="clip0_253_6224">
<rect width="24" height="24" fill="white"/>
</clipPath>
</defs>
</svg>
