<svg width="24" height="24" viewBox="0 0 24 24" fill="none" xmlns="http://www.w3.org/2000/svg">
<g clip-path="url(#clip0_253_6883)">
<path d="M12 24C18.6274 24 24 18.6274 24 12C24 5.37258 18.6274 0 12 0C5.37258 0 0 5.37258 0 12C0 18.6274 5.37258 24 12 24Z" fill="#F0F0F0"/>
<path d="M11.9999 0C6.84037 0 2.44185 3.2565 0.746338 7.82611H23.2536C21.558 3.2565 17.1595 0 11.9999 0Z" fill="#A2001D"/>
<path d="M11.9999 23.9999C17.1595 23.9999 21.558 20.7434 23.2536 16.1738H0.746338C2.44185 20.7434 6.84037 23.9999 11.9999 23.9999Z" fill="black"/>
<path d="M9.13051 11.2175C9.12395 11.2175 9.11753 11.2179 9.11097 11.218V11.2175H6.81704C6.93334 10.7681 7.34106 10.4348 7.82617 10.4348V8.86963C6.38772 8.86963 5.21748 10.0399 5.21748 11.4783V12.7566V12.7827H9.11097H9.13051C9.27437 12.7827 9.39137 12.8998 9.39137 13.0436V13.5653H4.17395V15.1305H10.9566V13.0435C10.9566 12.0366 10.1374 11.2175 9.13051 11.2175Z" fill="#496E2D"/>
<path d="M13.0436 13.5653V8.86963H11.4784V15.1305H14.0871V13.5653H13.0436Z" fill="#496E2D"/>
<path d="M18.2609 13.5653V8.86963H16.6957V13.5653H16.174V12.0001H14.6088V15.1306H19.3044V13.5653H18.2609Z" fill="#496E2D"/>
</g>
<defs>
<clipPath id="clip0_253_6883">
<rect width="24" height="24" fill="white"/>
</clipPath>
</defs>
</svg>
