<svg width="24" height="24" viewBox="0 0 24 24" fill="none" xmlns="http://www.w3.org/2000/svg">
<g clip-path="url(#clip0_253_4809)">
<path d="M12 24C18.6274 24 24 18.6274 24 12C24 5.37258 18.6274 0 12 0C5.37258 0 0 5.37258 0 12C0 18.6274 5.37258 24 12 24Z" fill="#F0F0F0"/>
<path d="M21.5202 19.3066L14.2136 12H14.2135L21.5202 4.69327C21.2051 4.28377 20.8604 3.88978 20.4853 3.51464C20.1102 3.13955 19.7162 2.79478 19.3067 2.47974L12.0001 9.78638L12 9.78642L4.69338 2.47974C4.28392 2.79483 3.88989 3.1395 3.51475 3.51464C3.13961 3.88978 2.79489 4.28377 2.47984 4.69327L9.78648 11.9999L9.78653 11.9999L2.4798 19.3066C2.79494 19.7161 3.13966 20.1101 3.5147 20.4853C3.88984 20.8604 4.28378 21.2051 4.69333 21.5202L12 14.2135L12.0001 14.2135L19.3067 21.5201C19.7162 21.205 20.1102 20.8603 20.4853 20.4852C20.8605 20.1101 21.2051 19.7161 21.5202 19.3066Z" fill="#D80027"/>
<path d="M9.91302 3.65214L12 4.17386L14.087 3.65214V1.87825L13.2522 2.29563L12 1.04346L10.7478 2.29563L9.91302 1.87825V3.65214Z" fill="#FFDA44"/>
<path d="M9.91302 3.65222V4.95666C9.91302 6.55416 12 7.04363 12 7.04363C12 7.04363 14.087 6.55411 14.087 4.95666V3.65222H9.91302Z" fill="#D80027"/>
</g>
<defs>
<clipPath id="clip0_253_4809">
<rect width="24" height="24" fill="white"/>
</clipPath>
</defs>
</svg>
