<svg width="24" height="24" viewBox="0 0 24 24" fill="none" xmlns="http://www.w3.org/2000/svg">
<g clip-path="url(#clip0_253_6650)">
<path d="M12 24C18.6274 24 24 18.6274 24 12C24 5.37258 18.6274 0 12 0C5.37258 0 0 5.37258 0 12C0 18.6274 5.37258 24 12 24Z" fill="#F0F0F0"/>
<path d="M7.30434 7.82611H23.2536C21.5581 3.2565 17.1595 0 12 0C8.68622 0 5.68654 1.34339 3.51511 3.51511L7.30434 7.82611Z" fill="black"/>
<path d="M7.30434 16.1738H23.2536C21.5581 20.7434 17.1595 23.9999 12 23.9999C8.68622 23.9999 5.68654 22.6565 3.51511 20.4848L7.30434 16.1738Z" fill="#6DA544"/>
<path d="M3.51468 3.51465C-1.1716 8.20093 -1.1716 15.7989 3.51468 20.4853C5.45123 18.5487 7.31371 16.6862 12 12L3.51468 3.51465Z" fill="#D80027"/>
<path d="M4.76274 9.39136L5.42129 10.7685L6.90858 10.4248L6.24249 11.7982L7.43851 12.7467L5.94943 13.0823L5.95355 14.6087L4.76274 13.6537L3.57188 14.6087L3.57605 13.0823L2.08698 12.7467L3.28294 11.7982L2.61694 10.4248L4.10415 10.7685L4.76274 9.39136Z" fill="#F0F0F0"/>
</g>
<defs>
<clipPath id="clip0_253_6650">
<rect width="24" height="24" fill="white"/>
</clipPath>
</defs>
</svg>
