<svg width="24" height="24" viewBox="0 0 24 24" fill="none" xmlns="http://www.w3.org/2000/svg">
<g clip-path="url(#clip0_253_6740)">
<path d="M12 24C18.6274 24 24 18.6274 24 12C24 5.37258 18.6274 0 12 0C5.37258 0 0 5.37258 0 12C0 18.6274 5.37258 24 12 24Z" fill="#F0F0F0"/>
<path d="M12 0C7.24242 0 3.13167 2.76867 1.19067 6.78263H22.8092C20.8682 2.76867 16.7574 0 12 0Z" fill="black"/>
<path d="M12 23.9999C7.24242 23.9999 3.13167 21.2312 1.19067 17.2173H22.8092C20.8682 21.2312 16.7574 23.9999 12 23.9999Z" fill="#496E2D"/>
<path d="M23.4333 8.3479H0.566672C0.199078 9.49957 0 10.7265 0 12.0001C0 13.2736 0.199078 14.5006 0.566672 15.6522H23.4333C23.8009 14.5006 24 13.2736 24 12.0001C24 10.7265 23.8009 9.49957 23.4333 8.3479Z" fill="#A2001D"/>
<path d="M15.7366 5.54533L14.3155 4.8894L11.9999 10.1324L9.68442 4.8894L8.26331 5.54533L11.1381 12L8.26331 18.4546L9.68442 19.1105L11.9999 13.8675L14.3155 19.1105L15.7366 18.4546L12.8618 12L15.7366 5.54533Z" fill="#F0F0F0"/>
<path d="M12.9652 6.16346C12.4151 5.56266 12 5.21729 12 5.21729C12 5.21729 11.5849 5.56261 11.0348 6.16346V17.8363C11.5849 18.4372 12 18.7825 12 18.7825C12 18.7825 12.4151 18.4372 12.9652 17.8363V6.16346Z" fill="#F0F0F0"/>
<path d="M9.39136 8.4019V15.5978C9.9727 16.6279 10.6842 17.4722 11.2175 18.0319V5.96777C10.6842 6.52751 9.97265 7.37187 9.39136 8.4019Z" fill="#A2001D"/>
<path d="M14.6087 8.4019C14.0273 7.37182 13.3158 6.52751 12.7826 5.96777V18.0319C13.3158 17.4722 14.0273 16.6279 14.6087 15.5978V8.4019Z" fill="#A2001D"/>
<path d="M14.6086 8.4021V15.598C15.1972 14.5551 15.6521 13.3218 15.6521 12.0001C15.6521 10.6783 15.1972 9.44507 14.6086 8.4021Z" fill="black"/>
<path d="M9.39126 8.4021V15.598C8.80275 14.5551 8.34778 13.3218 8.34778 12.0001C8.34778 10.6783 8.80275 9.44507 9.39126 8.4021Z" fill="black"/>
</g>
<defs>
<clipPath id="clip0_253_6740">
<rect width="24" height="24" fill="white"/>
</clipPath>
</defs>
</svg>
