<svg width="24" height="24" viewBox="0 0 24 24" fill="none" xmlns="http://www.w3.org/2000/svg">
<g clip-path="url(#clip0_253_5183)">
<path d="M12 24C18.6274 24 24 18.6274 24 12C24 5.37258 18.6274 0 12 0C5.37258 0 0 5.37258 0 12C0 18.6274 5.37258 24 12 24Z" fill="#D80027"/>
<path d="M17.8686 12L15.4707 13.1279L16.7476 15.4504L14.1436 14.9522L13.8138 17.5826L11.9999 15.6481L10.1863 17.5826L9.8563 14.9522L7.25249 15.4503L8.52936 13.1278L6.13138 12L8.52936 10.8721L7.25249 8.54956L9.85621 9.04784L10.1863 6.41736L11.9999 8.35194L13.8139 6.41736L14.1436 9.04784L16.7477 8.54956L15.4708 10.8723L17.8686 12Z" fill="#FFDA44"/>
<path d="M12 15.6521C14.017 15.6521 15.6522 14.017 15.6522 11.9999C15.6522 9.98291 14.017 8.34778 12 8.34778C9.98297 8.34778 8.34784 9.98291 8.34784 11.9999C8.34784 14.017 9.98297 15.6521 12 15.6521Z" fill="#D80027"/>
<path d="M10.1739 12C10.0859 12 9.99903 12.0045 9.9133 12.013C9.91644 12.5189 10.0994 12.9818 10.4017 13.3415C10.5629 12.9076 10.8037 12.5119 11.1073 12.1733C10.8173 12.0618 10.5028 12 10.1739 12Z" fill="#FFDA44"/>
<path d="M11.298 13.9657C11.5174 14.0441 11.7536 14.0871 12 14.0871C12.2464 14.0871 12.4826 14.0441 12.7019 13.9657C12.5824 13.4964 12.3355 13.0774 12 12.7482C11.6645 13.0774 11.4176 13.4964 11.298 13.9657Z" fill="#FFDA44"/>
<path d="M13.8072 10.9569C13.4464 10.3332 12.7725 9.91309 12 9.91309C11.2275 9.91309 10.5536 10.3331 10.1927 10.9569C10.8506 10.9602 11.4674 11.1391 12 11.448C12.5325 11.1391 13.1493 10.9602 13.8072 10.9569Z" fill="#FFDA44"/>
<path d="M12.8926 12.1734C13.1962 12.512 13.4369 12.9077 13.5982 13.3416C13.9004 12.982 14.0834 12.519 14.0866 12.0132C14.0008 12.0046 13.9139 12.0001 13.826 12.0001C13.4972 12.0001 13.1826 12.0619 12.8926 12.1734Z" fill="#FFDA44"/>
</g>
<defs>
<clipPath id="clip0_253_5183">
<rect width="24" height="24" fill="white"/>
</clipPath>
</defs>
</svg>
