<svg width="24" height="24" viewBox="0 0 24 24" fill="none" xmlns="http://www.w3.org/2000/svg">
<g clip-path="url(#clip0_253_6287)">
<path d="M12 24C18.6274 24 24 18.6274 24 12C24 5.37258 18.6274 0 12 0C5.37258 0 0 5.37258 0 12C0 18.6274 5.37258 24 12 24Z" fill="#F0F0F0"/>
<path d="M23.9996 11.9653H10.9913C8.40864 14.5481 6.84685 16.542 5.25217 18.1367L12.0348 18.7479L22.5598 17.7044C23.4783 16.0078 24 14.0649 24 12.0001C24 11.9884 23.9996 11.977 23.9996 11.9653Z" fill="#D80027"/>
<path d="M5.2522 6.22613H22.5215C20.4807 2.51513 16.5343 0 12 0C8.69508 0 5.70276 1.33645 3.53268 3.498L5.2522 6.22613Z" fill="#FFDA44"/>
<path d="M5.77391 17.7043C4.69513 18.7831 4.27823 19.687 3.49771 20.4674C5.6706 22.6493 8.6774 24 12 24C16.5626 24 20.5303 21.4535 22.5599 17.7043H5.77391Z" fill="#0052B4"/>
<path d="M3.51468 3.47998C-1.1716 8.16626 -1.1716 15.7643 3.51468 20.4506C5.45123 18.5141 7.31371 16.6516 12 11.9653L3.51468 3.47998Z" fill="#6DA544"/>
<path d="M3.16523 11.9652C3.16523 10.2168 4.39396 8.75624 6.03477 8.39793C5.78259 8.34285 5.52093 8.31299 5.25215 8.31299C3.23507 8.31299 1.59998 9.94808 1.59998 11.9652C1.59998 13.9822 3.23507 15.6173 5.25215 15.6173C5.52088 15.6173 5.78254 15.5875 6.03477 15.5324C4.39396 15.174 3.16523 13.7135 3.16523 11.9652Z" fill="#F0F0F0"/>
<path d="M5.99452 8.83472L6.18882 9.43256H6.81741L6.30882 9.80208L6.50312 10.3999L5.99452 10.0305L5.48593 10.3999L5.68022 9.80208L5.17163 9.43256H5.80022L5.99452 8.83472Z" fill="#F0F0F0"/>
<path d="M5.99452 10.3999L6.18882 10.9978H6.81741L6.30882 11.3673L6.50312 11.9652L5.99452 11.5956L5.48593 11.9652L5.68022 11.3673L5.17163 10.9978H5.80022L5.99452 10.3999Z" fill="#F0F0F0"/>
<path d="M5.99452 11.9651L6.18882 12.5629H6.81741L6.30882 12.9324L6.50312 13.5303L5.99452 13.1608L5.48593 13.5303L5.68022 12.9324L5.17163 12.5629H5.80022L5.99452 11.9651Z" fill="#F0F0F0"/>
<path d="M5.99452 13.5303L6.18882 14.1281H6.81741L6.30882 14.4976L6.50312 15.0955L5.99452 14.726L5.48593 15.0955L5.68022 14.4976L5.17163 14.1281H5.80022L5.99452 13.5303Z" fill="#F0F0F0"/>
</g>
<defs>
<clipPath id="clip0_253_6287">
<rect width="24" height="24" fill="white"/>
</clipPath>
</defs>
</svg>
