<svg width="24" height="24" viewBox="0 0 24 24" fill="none" xmlns="http://www.w3.org/2000/svg">
<g clip-path="url(#clip0_253_5552)">
<path d="M12 24C18.6274 24 24 18.6274 24 12C24 5.37257 18.6274 0 12 0C5.37257 0 0 5.37257 0 12C0 18.6274 5.37257 24 12 24Z" fill="#FFDA44"/>
<path d="M3.51466 20.4853C4.01805 20.9887 4.55519 21.4376 5.11859 21.8328L21.8327 5.11868C21.4375 4.55524 20.9886 4.01815 20.4852 3.51475C19.9818 3.01136 19.4447 2.56253 18.8813 2.16724L2.16724 18.8814C2.56239 19.4448 3.01127 19.9819 3.51466 20.4853Z" fill="black"/>
<path d="M3.51475 3.51475C-0.271021 7.30053 -0.997819 12.9861 1.333 17.5021L17.5021 1.33309C12.9861 -0.997679 7.30038 -0.27088 3.51475 3.51475Z" fill="#6DA544"/>
<path d="M20.4852 20.4853C24.271 16.6996 24.9977 11.014 22.667 6.49792L6.4978 22.6671C11.0138 24.9978 16.6995 24.2711 20.4852 20.4853Z" fill="#D80027"/>
<path d="M7.62983 14.1567L8.75005 14.7275L9.63909 13.8385L9.4424 15.0802L10.5626 15.651L9.32081 15.8477L9.12412 17.0894L8.55337 15.9692L7.31165 16.1659L8.20063 15.2769L7.62983 14.1567Z" fill="#F0F0F0"/>
<path d="M14.1566 7.62996L15.2767 8.20075L16.1658 7.31177L15.9691 8.55344L17.0893 9.12429L15.8475 9.32097L15.6509 10.5627L15.0801 9.44252L13.8384 9.63916L14.7274 8.75018L14.1566 7.62996Z" fill="#F0F0F0"/>
</g>
<defs>
<clipPath id="clip0_253_5552">
<rect width="24" height="24" fill="white"/>
</clipPath>
</defs>
</svg>
