<svg width="24" height="24" viewBox="0 0 24 24" fill="none" xmlns="http://www.w3.org/2000/svg">
<g clip-path="url(#clip0_253_6625)">
<path d="M12 24C18.6274 24 24 18.6274 24 12C24 5.37258 18.6274 0 12 0C5.37258 0 0 5.37258 0 12C0 18.6274 5.37258 24 12 24Z" fill="#F0F0F0"/>
<path d="M16.1739 12.0001C16.1739 13.0435 14.3052 15.6522 12 15.6522C9.69483 15.6522 7.82611 13.0435 7.82611 12.0001C7.82611 9.69484 9.69483 7.82617 12 7.82617C14.3052 7.82617 16.1739 9.69484 16.1739 12.0001Z" fill="#D80027"/>
<path d="M16.1739 12C16.1739 14.3052 14.3052 16.1739 12 16.1739C9.69483 16.1739 7.82611 14.3052 7.82611 12" fill="#0052B4"/>
<path d="M16.4238 15.6895L17.5304 14.5829L18.2682 15.3206L17.1616 16.4272L16.4238 15.6895Z" fill="black"/>
<path d="M14.5789 17.5339L15.6855 16.4273L16.4233 17.1651L15.3167 18.2717L14.5789 17.5339Z" fill="black"/>
<path d="M18.6372 17.9026L19.7438 16.796L20.4815 17.5337L19.375 18.6403L18.6372 17.9026Z" fill="black"/>
<path d="M16.7924 19.7473L17.899 18.6407L18.6367 19.3785L17.5301 20.4851L16.7924 19.7473Z" fill="black"/>
<path d="M17.5305 16.7961L18.6371 15.6895L19.3748 16.4273L18.2682 17.5339L17.5305 16.7961Z" fill="black"/>
<path d="M15.6861 18.6404L16.7927 17.5338L17.5304 18.2715L16.4238 19.3781L15.6861 18.6404Z" fill="black"/>
<path d="M18.6421 8.3125L15.6911 5.36156L16.4289 4.62382L19.3798 7.57476L18.6421 8.3125Z" fill="black"/>
<path d="M15.6906 7.5752L14.584 6.4686L15.3217 5.73089L16.4283 6.83748L15.6906 7.5752Z" fill="black"/>
<path d="M17.5349 9.41992L16.4283 8.31332L17.166 7.57561L18.2726 8.68221L17.5349 9.41992Z" fill="black"/>
<path d="M17.9036 5.36157L16.797 4.25497L17.5347 3.51723L18.6413 4.62383L17.9036 5.36157Z" fill="black"/>
<path d="M19.7489 7.20654L18.6423 6.09994L19.38 5.3622L20.4866 6.4688L19.7489 7.20654Z" fill="black"/>
<path d="M4.25412 16.7939L7.20506 19.7449L6.46732 20.4826L3.51638 17.5317L4.25412 16.7939Z" fill="black"/>
<path d="M7.2049 17.5312L8.31149 18.6378L7.57378 19.3756L6.46719 18.269L7.2049 17.5312Z" fill="black"/>
<path d="M5.36038 15.6873L6.46698 16.7939L5.72924 17.5316L4.62264 16.425L5.36038 15.6873Z" fill="black"/>
<path d="M6.46713 14.5803L9.41807 17.5313L8.68033 18.269L5.72939 15.3181L6.46713 14.5803Z" fill="black"/>
<path d="M7.20474 4.25269L4.2538 7.20363L3.51606 6.46588L6.467 3.51494L7.20474 4.25269Z" fill="black"/>
<path d="M8.31134 5.35913L5.3604 8.31007L4.62266 7.57233L7.5736 4.62139L8.31134 5.35913Z" fill="black"/>
<path d="M9.41901 6.46631L6.46807 9.41725L5.73036 8.67954L8.6813 5.7286L9.41901 6.46631Z" fill="black"/>
</g>
<defs>
<clipPath id="clip0_253_6625">
<rect width="24" height="24" fill="white"/>
</clipPath>
</defs>
</svg>
