<svg width="24" height="24" viewBox="0 0 24 24" fill="none" xmlns="http://www.w3.org/2000/svg">
<g clip-path="url(#clip0_253_5461)">
<path d="M23.2536 16.1739C23.736 14.8739 24 13.4678 24 12C24 10.5321 23.736 9.12606 23.2536 7.82608L12 6.78259L0.746391 7.82608C0.264047 9.12606 0 10.5321 0 12C0 13.4678 0.264047 14.8739 0.746391 16.1739L12 17.2173L23.2536 16.1739Z" fill="#F0F0F0"/>
<path d="M12 24.0001C17.1595 24.0001 21.5581 20.7436 23.2536 16.174H0.746338C2.4419 20.7436 6.84037 24.0001 12 24.0001Z" fill="#D80027"/>
<path d="M12 0C6.84037 0 2.4419 3.2565 0.746338 7.82611H23.2536C21.5581 3.2565 17.1595 0 12 0Z" fill="#6DA544"/>
<path d="M3.51471 3.51465C-1.17157 8.20093 -1.17157 15.7989 3.51471 20.4853C4.73791 19.2621 5.93182 18.0682 7.82609 16.1739V7.82607L3.51471 3.51465Z" fill="black"/>
</g>
<defs>
<clipPath id="clip0_253_5461">
<rect width="24" height="24" fill="white"/>
</clipPath>
</defs>
</svg>
