<svg width="24" height="24" viewBox="0 0 24 24" fill="none" xmlns="http://www.w3.org/2000/svg">
<g clip-path="url(#clip0_253_6253)">
<path d="M24 12C24 18.6274 18.6274 24 12 24C5.37262 24 0 18.6274 0 12C0 12.0029 12 0.0013125 12 0C18.6274 0 24 5.37262 24 12Z" fill="#0052B4"/>
<path d="M11.9679 11.9999H12C12 11.9891 12 11.9786 12 11.9678C11.9893 11.9785 11.9786 11.9892 11.9679 11.9999Z" fill="#F0F0F0"/>
<path d="M12 6.26086C12 4.14937 12 2.76586 12 0H11.998C5.37145 0.001125 0 5.37323 0 12H6.26086V8.47448L9.78638 12H11.9679C11.9786 11.9893 11.9893 11.9786 12 11.9679C12 11.1594 12 10.4381 12 9.78647L8.47444 6.26086H12Z" fill="#F0F0F0"/>
<path d="M17.2174 8.86949C18.37 8.86949 19.3043 7.93513 19.3043 6.78253C19.3043 5.62992 18.37 4.69556 17.2174 4.69556C16.0648 4.69556 15.1304 5.62992 15.1304 6.78253C15.1304 7.93513 16.0648 8.86949 17.2174 8.86949Z" fill="#6DA544"/>
<path d="M6.07101 1.56519C4.19419 2.63389 2.63386 4.19417 1.5652 6.071V12H4.69565V4.69573V4.69564H12C12 3.70831 12 2.76772 12 1.56519H6.07101Z" fill="#D80027"/>
<path d="M12 10.5244L7.73649 6.26099H6.26086V6.26108L11.9999 12.0001H12C12 12.0001 12 10.9826 12 10.5244Z" fill="#D80027"/>
<path d="M13.5652 6.26074H20.8695V9.3912H13.5652V6.26074Z" fill="#D80027"/>
<path d="M13.5652 14.0869V16.1739H14.6632C15.3216 16.8191 16.2227 17.2174 17.2174 17.2174C18.212 17.2174 19.1132 16.8191 19.7715 16.1739H19.8261H20.8695V14.0869H13.5652Z" fill="#FFDA44"/>
<path d="M13.5652 8.86963V12.0001C13.5652 14.7957 17.2174 15.6523 17.2174 15.6523C17.2174 15.6523 20.8695 14.7957 20.8695 12.0001V8.86963H13.5652Z" fill="#338AF3"/>
<path d="M17.2172 10.5417C16.3042 10.5417 16.3042 11.3765 15.3912 11.3765C14.4782 11.3765 14.4782 10.5417 13.5652 10.5417V12.0026C14.4782 12.0026 14.4782 12.8374 15.3912 12.8374C16.3042 12.8374 16.3042 12.0026 17.2172 12.0026C18.1303 12.0026 18.1303 12.8374 19.0434 12.8374C19.9565 12.8374 19.9565 12.0026 20.8696 12.0026V10.5417C19.9565 10.5417 19.9565 11.3765 19.0434 11.3765C18.1303 11.3765 18.1303 10.5417 17.2172 10.5417Z" fill="#F3F3F3"/>
<path d="M17.2172 7.61743C16.3042 7.61743 16.3042 8.45223 15.3912 8.45223C14.4782 8.45223 14.4782 7.61743 13.5652 7.61743V9.07829C14.4782 9.07829 14.4782 9.91309 15.3912 9.91309C16.3042 9.91309 16.3042 9.07829 17.2172 9.07829C18.1303 9.07829 18.1303 9.91309 19.0434 9.91309C19.9565 9.91309 19.9565 9.07829 20.8696 9.07829V7.61743C19.9565 7.61743 19.9565 8.45223 19.0434 8.45223C18.1303 8.45223 18.1303 7.61743 17.2172 7.61743Z" fill="#F3F3F3"/>
</g>
<defs>
<clipPath id="clip0_253_6253">
<rect width="24" height="24" fill="white"/>
</clipPath>
</defs>
</svg>
