<svg width="24" height="24" viewBox="0 0 24 24" fill="none" xmlns="http://www.w3.org/2000/svg">
<g clip-path="url(#clip0_253_5130)">
<path d="M24 12C24 18.6274 18.6274 24 12 24C5.37262 24 0 18.6274 0 12C0.521719 12 12 10.4348 12 10.4348L24 12Z" fill="#D80027"/>
<path d="M0 12C0 5.37262 5.37262 0 12 0C18.6274 0 24 5.37262 24 12" fill="#0052B4"/>
<path d="M8.8695 8.34785C8.8695 7.48343 8.16872 6.78265 7.3043 6.78265C6.90328 6.78265 6.5378 6.93358 6.26081 7.18151V6.26088H6.78253V5.2174H6.26081V4.69568H5.21733V5.2174H4.69561V6.26088H5.21733V7.18151C4.94035 6.93358 4.57486 6.78265 4.17385 6.78265C3.30942 6.78265 2.60864 7.48343 2.60864 8.34785C2.60864 8.8113 2.81025 9.22755 3.13036 9.51419V10.4348H8.34774V9.51419C8.66794 9.22755 8.8695 8.8113 8.8695 8.34785Z" fill="#FFDA44"/>
</g>
<defs>
<clipPath id="clip0_253_5130">
<rect width="24" height="24" fill="white"/>
</clipPath>
</defs>
</svg>
