<svg width="24" height="24" viewBox="0 0 24 24" fill="none" xmlns="http://www.w3.org/2000/svg">
<g clip-path="url(#clip0_253_6398)">
<path d="M12 24C18.6274 24 24 18.6274 24 12C24 5.37258 18.6274 0 12 0C5.37258 0 0 5.37258 0 12C0 18.6274 5.37258 24 12 24Z" fill="#D80027"/>
<path d="M19.0922 9.84834H13.6735L12 4.69678L10.3266 9.84834H4.90784L9.29065 13.0312L7.61721 18.1827L12 14.9999L16.3828 18.1827L14.7094 13.0312L19.0922 9.84834ZM10.5188 12.6327L11.086 10.889H12.9188L13.486 12.6327L12.0047 13.7108L10.5188 12.6327ZM12.5766 9.84834H11.4235L12 8.07178L12.5766 9.84834ZM14.3719 11.9905L14.0156 10.8937H15.8813L14.3719 11.9905ZM9.98909 10.8937L9.63284 11.9905L8.12346 10.8937H9.98909ZM9.60002 15.4546L10.1766 13.678L11.1094 14.3577L9.60002 15.4546ZM12.886 14.3577L13.8188 13.678L14.3953 15.4546L12.886 14.3577Z" fill="#6DA544"/>
</g>
<defs>
<clipPath id="clip0_253_6398">
<rect width="24" height="24" fill="white"/>
</clipPath>
</defs>
</svg>
