<svg width="24" height="24" viewBox="0 0 24 24" fill="none" xmlns="http://www.w3.org/2000/svg">
<g clip-path="url(#clip0_253_4814)">
<path d="M12 24C18.6274 24 24 18.6274 24 12C24 5.37258 18.6274 0 12 0C5.37258 0 0 5.37258 0 12C0 18.6274 5.37258 24 12 24Z" fill="#F0F0F0"/>
<path d="M7.82611 11.9999V23.2536C9.12605 23.7359 10.5322 23.9999 12 23.9999C18.6274 23.9999 24 18.6273 24 11.9999C24 5.37257 7.82611 11.9999 7.82611 11.9999Z" fill="#6DA544"/>
<path d="M12 0C10.5322 0 9.12605 0.264047 7.82611 0.746391V12H24C24 5.37262 18.6274 0 12 0Z" fill="#D80027"/>
</g>
<defs>
<clipPath id="clip0_253_4814">
<rect width="24" height="24" fill="white"/>
</clipPath>
</defs>
</svg>
