<svg width="24" height="24" viewBox="0 0 24 24" fill="none" xmlns="http://www.w3.org/2000/svg">
<g clip-path="url(#clip0_253_5203)">
<path d="M12 24C18.6274 24 24 18.6274 24 12C24 9.98611 23.5031 8.08847 22.6265 6.42188L11.9859 12.0141L17.5781 1.37353C15.9115 0.496875 14.0139 0 12 0C5.37262 0 0 5.37262 0 12C0 15.3137 1.34316 18.3137 3.51469 20.4853C5.68627 22.6569 8.68627 24 12 24Z" fill="#0052B4"/>
<path d="M22.6138 6.4349C22.0645 5.3894 21.3504 4.40779 20.4713 3.5287C19.5922 2.64961 18.6107 1.93546 17.5651 1.38623L3.50067 20.4993L22.6138 6.4349Z" fill="#F0F0F0"/>
<path d="M3.50067 20.4994L22.6138 6.43501C22.0645 5.38951 21.3504 4.4079 20.4713 3.52881L3.50067 20.4994Z" fill="#FF9811"/>
<path d="M10.4207 7.03694L8.95522 7.72628L9.73564 9.14566L8.14423 8.8412L7.94258 10.4488L6.83408 9.26641L5.72558 10.4488L5.52401 8.8412L3.93261 9.14556L4.71294 7.72623L3.24744 7.03694L4.71298 6.34755L3.93261 4.92827L5.52392 5.23262L5.72562 3.625L6.83408 4.80742L7.94258 3.625L8.14423 5.23262L9.73569 4.92827L8.95526 6.34759L10.4207 7.03694Z" fill="#F0F0F0"/>
</g>
<defs>
<clipPath id="clip0_253_5203">
<rect width="24" height="24" fill="white"/>
</clipPath>
</defs>
</svg>
