<svg width="24" height="24" viewBox="0 0 24 24" fill="none" xmlns="http://www.w3.org/2000/svg">
<g clip-path="url(#clip0_253_6793)">
<path d="M1.45908 6.26086L12 7.30434L22.5409 6.26086C20.5057 2.53073 16.5485 0 12 0C7.45148 0 3.49434 2.53073 1.45908 6.26086Z" fill="#D80027"/>
<path d="M1.45908 17.7392L12 18.7827L22.5409 17.7392C23.4711 16.0343 24 14.0789 24 12L12 10.9565L0 12C0 14.0789 0.528891 16.0343 1.45908 17.7392Z" fill="#FFDA44"/>
<path d="M1.45908 6.26074C0.528891 7.96563 0 9.92098 0 11.9999H24C24 9.92098 23.4711 7.96563 22.5409 6.26074H12H1.45908Z" fill="#0052B4"/>
<path d="M12 24.0001C16.5485 24.0001 20.5057 21.4694 22.5409 17.7393H1.45908C3.49434 21.4694 7.45148 24.0001 12 24.0001Z" fill="#6DA544"/>
</g>
<defs>
<clipPath id="clip0_253_6793">
<rect width="24" height="24" fill="white"/>
</clipPath>
</defs>
</svg>
