<svg width="24" height="24" viewBox="0 0 24 24" fill="none" xmlns="http://www.w3.org/2000/svg">
<g clip-path="url(#clip0_253_5010)">
<path d="M12 24C18.6274 24 24 18.6274 24 12C24 5.37258 18.6274 0 12 0C5.37258 0 0 5.37258 0 12C0 18.6274 5.37258 24 12 24Z" fill="#F0F0F0"/>
<path d="M24 12C24 7.24242 21.2313 3.13167 17.2173 1.19067V22.8092C21.2313 20.8682 24 16.7575 24 12Z" fill="#D80027"/>
<path d="M0 12C0 16.7575 2.76867 20.8682 6.78263 22.8092V1.19067C2.76867 3.13167 0 7.24242 0 12Z" fill="#6DA544"/>
<path d="M8.86957 11.9999C8.86957 13.7288 10.2711 15.1304 12 15.1304C13.7289 15.1304 15.1305 13.7288 15.1305 11.9999V10.9564H8.86957V11.9999Z" fill="#6DA544"/>
<path d="M16.1739 9.91299H13.0434C13.0434 9.33671 12.5762 8.86951 11.9999 8.86951C11.4236 8.86951 10.9564 9.33671 10.9564 9.91299H7.82599C7.82599 10.4893 8.32797 10.9565 8.90421 10.9565H8.86947C8.86947 11.5328 9.33663 12 9.91296 12C9.91296 12.5763 10.3801 13.0434 10.9564 13.0434H13.0434C13.6197 13.0434 14.0869 12.5763 14.0869 12C14.6632 12 15.1304 11.5328 15.1304 10.9565H15.0956C15.6719 10.9565 16.1739 10.4893 16.1739 9.91299Z" fill="#FF9811"/>
</g>
<defs>
<clipPath id="clip0_253_5010">
<rect width="24" height="24" fill="white"/>
</clipPath>
</defs>
</svg>
