<svg width="24" height="24" viewBox="0 0 24 24" fill="none" xmlns="http://www.w3.org/2000/svg">
<g clip-path="url(#clip0_253_6798)">
<path d="M12 24C18.6274 24 24 18.6274 24 12C24 5.37258 18.6274 0 12 0C5.37258 0 0 5.37258 0 12C0 18.6274 5.37258 24 12 24Z" fill="#F0F0F0"/>
<path d="M3.51472 20.4853C4.01811 20.9887 4.55521 21.4376 5.1186 21.8328L21.8328 5.11863C21.4376 4.55524 20.9886 4.01814 20.4852 3.51475C19.9818 3.01136 19.4447 2.56249 18.8813 2.16724L2.16721 18.8815C2.56241 19.4448 3.01133 19.9819 3.51472 20.4853Z" fill="#A2001D"/>
<path d="M3.51474 3.51465C-0.271074 7.30047 -0.997824 12.986 1.33294 17.5021L17.5021 1.33295C12.9861 -0.997814 7.30046 -0.27097 3.51474 3.51465Z" fill="#0052B4"/>
<path d="M20.4853 20.4852C24.271 16.6995 24.9977 11.0139 22.6671 6.4978L6.49789 22.667C11.0139 24.9977 16.6995 24.271 20.4853 20.4852Z" fill="#496E2D"/>
<path d="M9.91304 6.78255L8.56839 7.41504L9.28445 8.71732L7.82434 8.43804L7.63928 9.91296L6.62228 8.82813L5.60523 9.91296L5.42026 8.43804L3.96011 8.71727L4.67612 7.41499L3.33151 6.78255L4.67617 6.15002L3.96011 4.84783L5.42022 5.12712L5.60528 3.6521L6.62228 4.73697L7.63933 3.6521L7.82434 5.12712L9.28445 4.84783L8.56848 6.15007L9.91304 6.78255Z" fill="#FFDA44"/>
</g>
<defs>
<clipPath id="clip0_253_6798">
<rect width="24" height="24" fill="white"/>
</clipPath>
</defs>
</svg>
