<svg width="24" height="24" viewBox="0 0 24 24" fill="none" xmlns="http://www.w3.org/2000/svg">
<g clip-path="url(#clip0_36070_20340)">
<path d="M-1.43964 16.48H34.5575V24H-1.43964V16.48Z" fill="#009543"/>
<path d="M-1.43964 7.42432H34.5575V16.4967H-1.43964V7.42432Z" fill="#ED4135"/>
<path d="M-1.43964 0H34.5575V7.49754H-1.43964V0Z" fill="#0035AD"/>
<path d="M12.0593 20.8445C16.9456 20.8445 20.9067 16.8834 20.9067 11.9971C20.9067 7.11079 16.9456 3.14966 12.0593 3.14966C7.17298 3.14966 3.21185 7.11079 3.21185 11.9971C3.21185 16.8834 7.17298 20.8445 12.0593 20.8445Z" fill="#FAE600" stroke="black" stroke-width="0.298102"/>
<path d="M15.8784 19.939L14.0898 20.6139L12.0593 20.8502L9.93322 20.7152L7.914 19.8434C7.914 19.8434 9.52263 18.1954 10.2032 17.9591C10.6869 17.7904 11.4631 17.751 11.4631 17.751V6.86187L11.4462 3.14966H12.3968L12.3687 6.94624V17.7285C12.3687 17.7285 13.2292 17.796 13.6117 17.9591C14.2473 18.2347 15.8784 19.939 15.8784 19.939Z" fill="black"/>
<path d="M10.5253 5.75814L12.9413 4.55347L13.255 5.18269L10.839 6.3873L10.5253 5.75814Z" fill="black"/>
<path d="M11.9355 17.2674C12.4574 17.2674 12.8805 16.6001 12.8805 15.7769C12.8805 14.9537 12.4574 14.2864 11.9355 14.2864C11.4137 14.2864 10.9906 14.9537 10.9906 15.7769C10.9906 16.6001 11.4137 17.2674 11.9355 17.2674Z" fill="black"/>
<path d="M11.913 9.2412C12.5622 9.2412 13.0886 8.7149 13.0886 8.06567C13.0886 7.41644 12.5622 6.89014 11.913 6.89014C11.2638 6.89014 10.7375 7.41644 10.7375 8.06567C10.7375 8.7149 11.2638 9.2412 11.913 9.2412Z" fill="black"/>
<path d="M11.9693 12.554C12.5874 12.554 13.0885 12.2493 13.0885 11.8734C13.0885 11.4976 12.5874 11.1929 11.9693 11.1929C11.3511 11.1929 10.85 11.4976 10.85 11.8734C10.85 12.2493 11.3511 12.554 11.9693 12.554Z" fill="black"/>
<path d="M10.5856 9.95557H13.2292V10.518H10.5856V9.95557ZM10.5856 13.1616H13.2292V13.724H10.5856V13.1616Z" fill="black"/>
</g>
<defs>
<clipPath id="clip0_36070_20340">
<rect width="24" height="24" rx="12" fill="white"/>
</clipPath>
</defs>
</svg>
