<svg width="24" height="24" viewBox="0 0 24 24" fill="none" xmlns="http://www.w3.org/2000/svg">
<g clip-path="url(#clip0_253_5797)">
<path d="M24 12C24 18.6274 18.6274 24 12 24C5.37262 24 0 18.6274 0 12C0 12.0029 12 0.0013125 12 0C18.6274 0 24 5.37262 24 12Z" fill="#FFDA44"/>
<path d="M11.9999 5.73926V9.78659L7.82605 5.73926H11.9999Z" fill="#0052B4"/>
<path d="M6.26085 12.0001H9.78637L6.26085 7.30444L5.73914 10.9566L6.26085 12.0001Z" fill="#0052B4"/>
<path d="M11.9679 11.9999H12C12 11.9891 12 11.9786 12 11.9678C11.9893 11.9785 11.9786 11.9892 11.9679 11.9999Z" fill="#F0F0F0"/>
<path d="M12 6.26086C12 4.14937 12 2.76586 12 0H11.998C5.37145 0.001125 0 5.37323 0 12H6.26086V8.47448L9.78638 12H11.9679C11.9786 11.9893 11.9893 11.9786 12 11.9679C12 11.1594 12 10.4381 12 9.78647L8.47444 6.26086H12Z" fill="#F0F0F0"/>
<path d="M12 10.5244L7.73649 6.26099H6.26086V6.26108L11.9999 12.0001H12C12 12.0001 12 10.9826 12 10.5244Z" fill="#D80027"/>
<path d="M6.071 1.56519C5.60839 1.82862 5.16519 2.1222 4.74369 2.44269H5.23606L3.93472 3.38834L4.43169 4.9182L3.13034 3.97273L2.99187 4.07337C2.45154 4.68697 1.97248 5.35578 1.56519 6.071V12H4.69564V4.69573V4.69564H12C12 3.70831 12 2.76772 12 1.56519H6.071Z" fill="#D80027"/>
<path d="M5.12625 2.16333C4.99683 2.25394 4.86924 2.34708 4.74356 2.44266L3.93474 3.38831L3.13036 3.97266L2.99072 4.0741C2.69606 4.40878 2.41974 4.75997 2.16333 5.1262C2.4556 5.26805 2.78367 5.34778 3.13036 5.34778C4.35502 5.34778 5.34774 4.35506 5.34774 3.13041C5.34783 2.78363 5.26814 2.45564 5.12625 2.16333Z" fill="#0052B4"/>
<path d="M2.99072 4.07406L3.13036 3.97263L4.43171 4.91814L3.93469 3.38828L5.23594 2.44263H4.74347C4.10625 2.92727 3.51905 3.47402 2.99072 4.07406Z" fill="#FFDA44"/>
<path d="M8.29415 2.08691L8.55318 2.88402H9.39131L8.71326 3.37673L8.97215 4.17384L8.29415 3.68118L7.6161 4.17384L7.87495 3.37673L7.1969 2.88402H8.03507L8.29415 2.08691Z" fill="#FFDA44"/>
<path d="M3.13041 7.3042L3.38944 8.10131H4.22756L3.54956 8.59406L3.80845 9.39117L3.13041 8.89846L2.45231 9.39117L2.7112 8.59406L2.0332 8.10131H2.87133L3.13041 7.3042Z" fill="#FFDA44"/>
</g>
<defs>
<clipPath id="clip0_253_5797">
<rect width="24" height="24" fill="white"/>
</clipPath>
</defs>
</svg>
