<svg width="24" height="24" viewBox="0 0 24 24" fill="none" xmlns="http://www.w3.org/2000/svg">
<g clip-path="url(#clip0_253_6593)">
<path d="M24 12C24 18.6274 18.6274 24 12 24C5.37262 24 0 18.6274 0 12C0 12.0029 12 0.0013125 12 0C18.6274 0 24 5.37262 24 12Z" fill="#0052B4"/>
<path d="M11.9679 11.9999H12C12 11.9891 12 11.9786 12 11.9678C11.9893 11.9785 11.9786 11.9892 11.9679 11.9999Z" fill="#F0F0F0"/>
<path d="M12 6.26086C12 4.14937 12 2.76586 12 0H11.998C5.3715 0.001125 0 5.37323 0 12H6.26086V8.47448L9.78642 12H11.9679C11.9786 11.9893 11.9894 11.9786 12 11.9679C12 11.1594 12 10.4381 12 9.78647L8.47444 6.26086H12Z" fill="#F0F0F0"/>
<path d="M6.071 1.56519C4.19417 2.63389 2.63389 4.19417 1.56519 6.071V12H4.69564V4.69573V4.69564H12C12 3.70831 12 2.76772 12 1.56519H6.071Z" fill="#D80027"/>
<path d="M12 10.5244L7.73654 6.26099C7.73654 6.26099 6.26086 6.26108 6.26086 6.26099V6.26108L11.9999 12.0001H12C12 12.0001 12 10.9826 12 10.5244Z" fill="#D80027"/>
<path d="M20.7811 8.9043L21.0401 9.70145H21.8782L21.2002 10.1941L21.4592 10.9912L20.7811 10.4986L20.1029 10.9912L20.362 10.1941L19.6838 9.70145H20.522L20.7811 8.9043Z" fill="#D80027"/>
<path d="M17.7848 14.6433L18.1734 15.8391H19.4306L18.4134 16.578L18.802 17.7738L17.7848 17.0348L16.7676 17.7738L17.1562 16.578L16.139 15.8391H17.3963L17.7848 14.6433Z" fill="#D80027"/>
<path d="M17.898 5.2522L18.2218 6.24871H19.2695L18.4219 6.86442L18.7457 7.86088L17.898 7.24499L17.0504 7.86088L17.3742 6.86442L16.5266 6.24871H17.5743L17.898 5.2522Z" fill="#D80027"/>
<path d="M15.015 8.86963L15.4035 10.0654H16.6608L15.6436 10.8043L16.0322 12.0001L15.015 11.2611L13.9979 12.0001L14.3864 10.8043L13.3693 10.0654H14.6265L15.015 8.86963Z" fill="#D80027"/>
</g>
<defs>
<clipPath id="clip0_253_6593">
<rect width="24" height="24" fill="white"/>
</clipPath>
</defs>
</svg>
