<svg width="24" height="24" viewBox="0 0 24 24" fill="none" xmlns="http://www.w3.org/2000/svg">
<g clip-path="url(#clip0_253_6423)">
<path d="M12 24C18.6274 24 24 18.6274 24 12C24 5.37258 18.6274 0 12 0C5.37258 0 0 5.37258 0 12C0 18.6274 5.37258 24 12 24Z" fill="#F0F0F0"/>
<path d="M12 0V12L3.51465 20.4853C5.68623 22.6568 8.68623 24 12 24C18.6273 24 24 18.6274 24 12C24 5.37262 12 0 12 0Z" fill="#D80027"/>
<path d="M12 0C8.68623 0 5.68623 1.34316 3.51465 3.51469C6.45887 6.45891 7.50404 7.50412 12 12H24C24 5.37262 18.6273 0 12 0Z" fill="#0052B4"/>
<path d="M8.21674 11.9998L6.75124 11.3104L7.53166 9.89111L5.94025 10.1956L5.7386 8.58789L4.6301 9.77027L3.52164 8.58789L3.31994 10.1956L1.72858 9.89106L2.509 11.3104L1.04346 11.9998L2.509 12.6891L1.72858 14.1085L3.32008 13.804L3.5216 15.4117L4.6301 14.2293L5.7386 15.4117L5.94025 13.804L7.53157 14.1085L6.75119 12.6892L8.21674 11.9998Z" fill="#FFDA44"/>
<path d="M3.20021 4.69556L3.6879 5.37726L4.48688 5.12418L3.98916 5.79862L4.47685 6.48032L3.68157 6.21543L3.1839 6.88982L3.19013 6.0517L2.3949 5.78676L3.19402 5.53368L3.20021 4.69556Z" fill="#FFDA44"/>
<path d="M3.20021 17.1099L3.6879 17.7916L4.48688 17.5384L3.98916 18.2129L4.47685 18.8946L3.68157 18.6297L3.1839 19.3041L3.19013 18.466L2.3949 18.2011L3.19402 17.948L3.20021 17.1099Z" fill="#FFDA44"/>
<path d="M10.1562 10.9028L9.66854 11.5845L8.86951 11.3314L9.36723 12.0058L8.87954 12.6876L9.67482 12.4227L10.1725 13.0971L10.1663 12.259L10.9615 11.994L10.1624 11.741L10.1562 10.9028Z" fill="#FFDA44"/>
</g>
<defs>
<clipPath id="clip0_253_6423">
<rect width="24" height="24" fill="white"/>
</clipPath>
</defs>
</svg>
