<svg width="24" height="24" viewBox="0 0 24 24" fill="none" xmlns="http://www.w3.org/2000/svg">
<g clip-path="url(#clip0_253_5585)">
<path d="M0 11.9999C0 17.1595 3.2565 21.558 7.82602 23.2535L8.86955 11.9999L7.82602 0.746338C3.2565 2.4419 0 6.84037 0 11.9999Z" fill="#6DA544"/>
<path d="M24 12C24 5.37262 18.6274 0 12 0C10.5322 0 9.12605 0.264047 7.82602 0.746391V23.2536C9.12605 23.736 10.5322 24 12 24C18.6274 24 24 18.6274 24 12Z" fill="#D80027"/>
<path d="M7.82611 16.174C10.1313 16.174 12 14.3052 12 12.0001C12 9.69489 10.1313 7.82617 7.82611 7.82617C5.52094 7.82617 3.65222 9.69489 3.65222 12.0001C3.65222 14.3052 5.52094 16.174 7.82611 16.174Z" fill="#FFDA44"/>
<path d="M5.47829 9.91309V12.5218C5.47829 13.8184 6.52941 14.8696 7.82611 14.8696C9.12282 14.8696 10.1739 13.8185 10.1739 12.5218V9.91309H5.47829Z" fill="#D80027"/>
<path d="M7.82611 13.3043C7.39458 13.3043 7.04349 12.9532 7.04349 12.5217V11.4783H8.60869V12.5218C8.60869 12.9532 8.2576 13.3043 7.82611 13.3043Z" fill="#F0F0F0"/>
</g>
<defs>
<clipPath id="clip0_253_5585">
<rect width="24" height="24" fill="white"/>
</clipPath>
</defs>
</svg>
