<svg width="24" height="24" viewBox="0 0 24 24" fill="none" xmlns="http://www.w3.org/2000/svg">
<g clip-path="url(#clip0_253_4773)">
<path d="M12 24C18.6274 24 24 18.6274 24 12C24 5.37258 18.6274 0 12 0C5.37258 0 0 5.37258 0 12C0 18.6274 5.37258 24 12 24Z" fill="#F0F0F0"/>
<path d="M12 0C7.24247 0 3.13172 2.76867 1.19072 6.78263H22.8092C20.8683 2.76867 16.7575 0 12 0Z" fill="#D80027"/>
<path d="M12 24C16.7575 24 20.8683 21.2314 22.8093 17.2174H1.19072C3.13172 21.2314 7.24247 24 12 24Z" fill="#0052B4"/>
<path d="M14.9514 8.52686L13.8446 9.63362C14.3167 10.1057 14.6087 10.7579 14.6087 11.4782C14.6087 12.919 13.4408 14.0869 12 14.0869C10.5593 14.0869 9.39136 12.9189 9.39136 11.4782C9.39136 10.7579 9.68339 10.1057 10.1555 9.63362L9.0487 8.52686C8.29331 9.28211 7.82616 10.3256 7.82616 11.4782C7.82616 13.7835 9.69488 15.6521 12 15.6521C14.3052 15.6521 16.1739 13.7834 16.1739 11.4782C16.1739 10.3256 15.7067 9.28211 14.9514 8.52686Z" fill="#6DA544"/>
<path d="M12 9.91309L12.3885 11.1089H13.6458L12.6286 11.8478L13.0172 13.0435L12 12.3046L10.9828 13.0435L11.3714 11.8478L10.3542 11.1089H11.6115L12 9.91309Z" fill="#FFDA44"/>
</g>
<defs>
<clipPath id="clip0_253_4773">
<rect width="24" height="24" fill="white"/>
</clipPath>
</defs>
</svg>
