<svg width="24" height="24" viewBox="0 0 24 24" fill="none" xmlns="http://www.w3.org/2000/svg">
<g clip-path="url(#clip0_253_4884)">
<path d="M0 12C0 14.0789 0.528891 16.0343 1.45908 17.7392L12 18.7827L22.5409 17.7392C23.4711 16.0343 24 14.0789 24 12L12 10.9565L0 12Z" fill="#FFDA44"/>
<path d="M22.5409 6.26086C20.5057 2.53073 16.5485 0 12 0C7.45148 0 3.49434 2.53073 1.45908 6.26086C0.528891 7.96575 0 9.92109 0 12H24C24 9.92109 23.4711 7.96575 22.5409 6.26086Z" fill="#338AF3"/>
<path d="M12 24C16.5485 24 20.5057 21.4693 22.5409 17.7391H1.45911C3.49437 21.4693 7.45151 24 12 24Z" fill="#496E2D"/>
<path d="M13.5652 7.02281L15.0308 7.7122L14.2504 9.13157L15.8418 8.82716L16.0434 10.4347L17.1518 9.25237L18.2603 10.4347L18.4619 8.82716L20.0533 9.13148L19.273 7.71215L20.7385 7.02281L19.2729 6.33351L20.0533 4.91413L18.462 5.21854L18.2603 3.61096L17.1518 4.79334L16.0434 3.61096L15.8418 5.21854L14.2503 4.91413L15.0307 6.33356L13.5652 7.02281Z" fill="#FFDA44"/>
</g>
<defs>
<clipPath id="clip0_253_4884">
<rect width="24" height="24" fill="white"/>
</clipPath>
</defs>
</svg>
