<svg width="24" height="24" viewBox="0 0 24 24" fill="none" xmlns="http://www.w3.org/2000/svg">
<g clip-path="url(#clip0_253_6521)">
<path d="M12 24C18.6274 24 24 18.6274 24 12C24 5.37258 18.6274 0 12 0C5.37258 0 0 5.37258 0 12C0 18.6274 5.37258 24 12 24Z" fill="#6DA544"/>
<path d="M6.78265 14.3477C6.78265 15.2121 7.48344 15.9129 8.34786 15.9129H13.0435C13.0435 16.6332 13.6275 17.2172 14.3479 17.2172H15.9131C16.6334 17.2172 17.2174 16.6332 17.2174 15.9129V14.3477H6.78265Z" fill="#F0F0F0"/>
<path d="M17.3478 6.78247V10.4346C17.3478 11.01 16.8797 11.4781 16.3043 11.4781V13.0433C17.7428 13.0433 18.913 11.873 18.913 10.4346V6.78247H17.3478Z" fill="#F0F0F0"/>
<path d="M6.13046 10.4346C6.13046 11.01 5.66237 11.4781 5.08698 11.4781V13.0433C6.52543 13.0433 7.69566 11.873 7.69566 10.4346V6.78247H6.13046V10.4346Z" fill="#F0F0F0"/>
<path d="M15 6.78247H16.5652V10.4346H15V6.78247Z" fill="#F0F0F0"/>
<path d="M12.6522 8.86944C12.6522 9.0133 12.5351 9.1303 12.3913 9.1303C12.2475 9.1303 12.1304 9.01325 12.1304 8.86944V6.78247H10.5652V8.86944C10.5652 9.0133 10.4482 9.1303 10.3044 9.1303C10.1606 9.1303 10.0435 9.01325 10.0435 8.86944V6.78247H8.47827V8.86944C8.47827 9.87636 9.29746 10.6955 10.3044 10.6955C10.6922 10.6955 11.0518 10.5737 11.3479 10.3667C11.6439 10.5736 12.0036 10.6955 12.3913 10.6955C12.4694 10.6955 12.5462 10.6901 12.6217 10.6805C12.5108 11.1374 12.0993 11.4781 11.6087 11.4781V13.0433C13.0472 13.0433 14.2174 11.873 14.2174 10.4346V8.86944V6.78247H12.6522V8.86944H12.6522Z" fill="#F0F0F0"/>
<path d="M8.47827 11.4783H10.8261V13.0435H8.47827V11.4783Z" fill="#F0F0F0"/>
</g>
<defs>
<clipPath id="clip0_253_6521">
<rect width="24" height="24" fill="white"/>
</clipPath>
</defs>
</svg>
