<svg width="24" height="24" viewBox="0 0 24 24" fill="none" xmlns="http://www.w3.org/2000/svg">
<g clip-path="url(#clip0_253_5591)">
<path d="M20.4856 20.4856C24.9861 15.9851 25.1638 8.79988 21.0206 4.08618L12 11.9999L4.08618 21.0206C8.79988 25.1638 15.9851 24.9861 20.4856 20.4856Z" fill="#496E2D"/>
<path d="M3.51441 3.5144C8.01491 -0.986107 15.2001 -1.16381 19.9138 2.97942L12 12.0001L2.97947 19.9138C-1.1638 15.2001 -0.986052 8.01491 3.51441 3.5144Z" fill="#0052B4"/>
<path d="M19.9137 2.97925L2.97937 19.9137C3.15056 20.1084 3.32831 20.2995 3.51435 20.4854C3.70035 20.6714 3.89146 20.8492 4.08627 21.0205L21.0205 4.08606C20.8494 3.89125 20.6716 3.70018 20.4855 3.51414C20.2996 3.32823 20.1085 3.15044 19.9137 2.97925Z" fill="#FFDA44"/>
<path d="M5.05597 4.17358L5.31505 4.97079H6.15322L5.47513 5.46339L5.73411 6.2606L5.05597 5.76789L4.37783 6.2606L4.63691 5.46339L3.95877 4.97079H4.79699L5.05597 4.17358Z" fill="#F0F0F0"/>
<path d="M9.33747 4.17358L9.59654 4.97079H10.4347L9.75657 5.46339L10.0156 6.2606L9.33747 5.76789L8.65933 6.2606L8.9184 5.46339L8.24026 4.97079H9.07843L9.33747 4.17358Z" fill="#F0F0F0"/>
<path d="M5.05597 8.34766L5.31505 9.14486H6.15322L5.47513 9.63751L5.73411 10.4347L5.05597 9.94201L4.37783 10.4347L4.63691 9.63751L3.95877 9.14486H4.79699L5.05597 8.34766Z" fill="#F0F0F0"/>
<path d="M9.33747 8.34766L9.59654 9.14486H10.4347L9.75657 9.63751L10.0156 10.4347L9.33747 9.94201L8.65933 10.4347L8.9184 9.63751L8.24026 9.14486H9.07843L9.33747 8.34766Z" fill="#F0F0F0"/>
<path d="M7.19674 6.2605L7.45581 7.0577H8.29394L7.61584 7.55035L7.87487 8.34756L7.19674 7.85485L6.5186 8.34756L6.77763 7.55035L6.09949 7.0577H6.9377L7.19674 6.2605Z" fill="#F0F0F0"/>
</g>
<defs>
<clipPath id="clip0_253_5591">
<rect width="24" height="24" fill="white"/>
</clipPath>
</defs>
</svg>
