<svg width="24" height="24" viewBox="0 0 24 24" fill="none" xmlns="http://www.w3.org/2000/svg">
<g clip-path="url(#clip0_253_5894)">
<path d="M12 24C18.6274 24 24 18.6274 24 12C24 5.37258 18.6274 0 12 0C5.37258 0 0 5.37258 0 12C0 18.6274 5.37258 24 12 24Z" fill="#F0F0F0"/>
<path d="M0 12C0 5.37263 5.37262 0 12 0C18.6274 0 24 5.37263 24 12" fill="#D80027"/>
<path d="M7.30432 6.26077C7.30432 4.51242 8.53306 3.05189 10.1739 2.69353C9.92168 2.6385 9.66007 2.60864 9.39125 2.60864C7.37417 2.60864 5.73907 4.24374 5.73907 6.26081C5.73907 8.27789 7.37417 9.91299 9.39125 9.91299C9.65998 9.91299 9.92164 9.88313 10.1739 9.82805C8.53306 9.46969 7.30432 8.00916 7.30432 6.26077Z" fill="#F0F0F0"/>
<path d="M12 2.86938L12.259 3.66649H13.0972L12.4191 4.1592L12.6781 4.95631L12 4.4637L11.3219 4.95631L11.5809 4.1592L10.9028 3.66649H11.741L12 2.86938Z" fill="#F0F0F0"/>
<path d="M9.96676 4.43481L10.2257 5.23197H11.0639L10.3858 5.72463L10.6449 6.52174L9.96676 6.02913L9.28857 6.52174L9.54765 5.72463L8.86951 5.23197H9.70768L9.96676 4.43481Z" fill="#F0F0F0"/>
<path d="M14.0333 4.43481L14.2923 5.23197H15.1305L14.4523 5.72463L14.7114 6.52174L14.0333 6.02913L13.3552 6.52174L13.6142 5.72463L12.9361 5.23197H13.7742L14.0333 4.43481Z" fill="#F0F0F0"/>
<path d="M13.2507 6.78247L13.5097 7.57963H14.3478L13.6697 8.07228L13.9288 8.86939L13.2507 8.37678L12.5726 8.86939L12.8316 8.07228L12.1535 7.57963H12.9916L13.2507 6.78247Z" fill="#F0F0F0"/>
<path d="M10.7494 6.78247L11.0083 7.57963H11.8466L11.1684 8.07228L11.4275 8.86939L10.7494 8.37678L10.0712 8.86939L10.3303 8.07228L9.65216 7.57963H10.4903L10.7494 6.78247Z" fill="#F0F0F0"/>
</g>
<defs>
<clipPath id="clip0_253_5894">
<rect width="24" height="24" fill="white"/>
</clipPath>
</defs>
</svg>
