<svg width="25" height="25" viewBox="0 0 25 25" fill="none" xmlns="http://www.w3.org/2000/svg">
<g clip-path="url(#clip0_36070_20364)">
<path d="M-7.27233 0.649902H28.7312V24.6499H-7.27233V0.649902Z" fill="#0052B4"/>
<path d="M10.7294 0.649902V8.9054H7.4877L10.7294 11.0642V12.6534H9.14021L3.97877 9.2148V12.6534H-0.521672V9.2148L-5.68311 12.6534H-7.27233V11.0642L-4.03061 8.9054H-7.27233V4.40496H-4.03061L-7.27233 2.24615V0.649902H-5.68311L-0.521672 4.08852V0.649902H3.97877V4.08852L9.14021 0.649902H10.7294Z" fill="white"/>
<path d="M2.85366 0.649902H0.603438V5.53007H-7.27233V7.78029H0.603438V12.6534H2.85366V7.78029H10.7294V5.53007H2.85366V0.649902Z" fill="#D80027"/>
<path d="M-7.27233 0.649902V1.71172L-3.236 4.40496H-1.64678L-7.27233 0.649902ZM10.7294 0.649902V1.71172L6.6931 4.40496H5.10388L10.7294 0.649902Z" fill="#D80027"/>
<path d="M10.7294 2.24609V4.4049H7.48771L10.7294 2.24609Z" fill="#2E52B2"/>
<path d="M-7.27233 0.649902V1.71172L-3.236 4.40496H-1.64678L-7.27233 0.649902ZM10.7294 0.649902V1.71172L6.6931 4.40496H5.10388L10.7294 0.649902Z" fill="#D80027"/>
<path d="M10.7294 2.24609V4.4049H7.48771L10.7294 2.24609Z" fill="#2E52B2"/>
<path d="M-7.27233 12.6533V11.5915L-3.236 8.90527H-1.64678L-7.27233 12.6533ZM10.7294 12.6533V11.5915L6.6931 8.90527H5.10388L10.7294 12.6533Z" fill="#D80027"/>
<path d="M24.3011 10.4736C24.294 13.5958 23.7948 16.95 19.7303 18.5533C15.6659 16.95 15.1666 13.5958 15.1596 10.4736H24.3011Z" fill="#29DBFF"/>
<path d="M24.3011 10.4734C24.3011 9.29912 24.2378 8.15994 24.2659 7.16141C22.747 6.48634 20.7429 6.3457 19.7233 6.3457C18.7036 6.3457 16.7066 6.48634 15.1806 7.16141C15.2088 8.15994 15.1455 9.29912 15.1455 10.4734H24.3011Z" fill="#FFDA44"/>
<path d="M18.7107 15.0304L18.7318 15.7546L17.8317 15.7687L18.1763 16.6969H16.9597C15.694 15.2765 15.3143 13.7154 15.2088 11.9082L15.8487 11.2261L16.4323 12.2316L17.1918 11.3316L17.684 11.88L17.7403 12.9841L18.7107 15.0304Z" fill="#BF521B"/>
<path d="M23.4291 14.1864L22.8244 15.4733H19.5194L17.466 14.1021L19.2732 14.8404H21.0383L21.2984 14.3833L21.8047 14.3974L21.9454 14.1864H23.4291Z" fill="#474747"/>
</g>
<defs>
<clipPath id="clip0_36070_20364">
<rect x="0.649994" y="0.649902" width="24" height="24" rx="12" fill="white"/>
</clipPath>
</defs>
</svg>
