<svg width="25" height="25" viewBox="0 0 25 25" fill="none" xmlns="http://www.w3.org/2000/svg">
<g clip-path="url(#clip0_36070_20381)">
<path d="M-5.33348 0.666748H30.6666V24.6663H-5.33348V0.666748Z" fill="white"/>
<path d="M-5.33348 8.6665H30.6666V16.6663H-5.33348V8.6665Z" fill="#0052B4"/>
<path d="M-5.33348 16.6665H30.6666V24.6663H-5.33348V16.6665Z" fill="#D80027"/>
<path d="M11.092 8.49262V9.53585C11.092 11.9322 7.96151 12.6663 7.96151 12.6663C7.96151 12.6663 4.83105 11.9322 4.83105 9.53585V8.49262L4.82085 5.38565L11.0817 5.36694L11.092 8.49262Z" fill="white"/>
<path d="M11.092 8.49262V9.53585C11.092 11.9322 7.96151 12.6663 7.96151 12.6663C7.96151 12.6663 4.83105 11.9322 4.83105 9.53585V8.49262L4.82085 5.38565L11.0817 5.36694L11.092 8.49262Z" fill="#0052B4"/>
<path d="M11.092 8.4927V9.53593C11.092 11.9323 7.9615 12.6664 7.9615 12.6664C7.9615 12.6664 4.83105 11.9323 4.83105 9.53593V8.4927L5.87505 9.53593L7.9615 7.9707L10.0487 9.53593L11.092 8.4927Z" fill="white"/>
</g>
<defs>
<clipPath id="clip0_36070_20381">
<rect x="0.666504" y="0.666504" width="24" height="24" rx="12" fill="white"/>
</clipPath>
</defs>
</svg>
