<svg width="24" height="24" viewBox="0 0 24 24" fill="none" xmlns="http://www.w3.org/2000/svg">
<g clip-path="url(#clip0_253_6617)">
<path d="M12 24C18.6274 24 24 18.6274 24 12C24 5.37258 18.6274 0 12 0C5.37258 0 0 5.37258 0 12C0 18.6274 5.37258 24 12 24Z" fill="#F0F0F0"/>
<path d="M12 24.0001C18.6274 24.0001 24 18.6274 24 12.0001C24 10.5322 23.736 9.12611 23.2536 7.82617H0.746391C0.264047 9.12611 0 10.5322 0 12.0001C0 18.6274 5.37262 24.0001 12 24.0001Z" fill="#0052B4"/>
<path d="M12 23.9999C17.1596 23.9999 21.5581 20.7434 23.2536 16.1738H0.746384C2.4419 20.7434 6.84041 23.9999 12 23.9999Z" fill="#D80027"/>
<path d="M3.10303 6.78271V12.7689C3.10303 16.1741 7.55151 17.2175 7.55151 17.2175C7.55151 17.2175 11.9999 16.1741 11.9999 12.7689V6.78271H3.10303Z" fill="#F0F0F0"/>
<path d="M4.14651 6.78271V12.7689C4.14651 13.1687 4.2353 13.5462 4.41117 13.9002H10.6918C10.8677 13.5463 10.9565 13.1687 10.9565 12.7689V6.78271H4.14651Z" fill="#D80027"/>
<path d="M9.63844 10.9566H8.07329V9.91309H9.11677V8.86961H8.07329V7.82617H7.0298V8.86961H5.98637V9.91309H7.0298V10.9566H5.46455V12.0001H7.0298V13.0435H8.07329V12.0001H9.63844V10.9566Z" fill="#F0F0F0"/>
<path d="M5.83458 15.3567C6.507 15.7793 7.19785 16.0246 7.55152 16.1337C7.90519 16.0247 8.59604 15.7793 9.26846 15.3567C9.94655 14.9305 10.4219 14.4431 10.6918 13.9C10.3941 13.6894 10.0309 13.5652 9.63849 13.5652C9.49561 13.5652 9.35682 13.5821 9.22336 13.6132C8.94057 12.9706 8.29861 12.5217 7.55157 12.5217C6.80452 12.5217 6.16252 12.9706 5.87977 13.6132C5.74632 13.5821 5.60747 13.5652 5.46464 13.5652C5.07225 13.5652 4.70902 13.6894 4.41132 13.9C4.68108 14.443 5.15644 14.9304 5.83458 15.3567Z" fill="#0052B4"/>
</g>
<defs>
<clipPath id="clip0_253_6617">
<rect width="24" height="24" fill="white"/>
</clipPath>
</defs>
</svg>
