<svg width="24" height="24" viewBox="0 0 24 24" fill="none" xmlns="http://www.w3.org/2000/svg">
<g clip-path="url(#clip0_253_5141)">
<path d="M24 12C24 18.6274 18.6274 24 12 24C5.37262 24 0 18.6274 0 12C0.521719 12 12 10.4348 12 10.4348L24 12Z" fill="#338AF3"/>
<path d="M0 12C0 5.37262 5.37262 0 12 0C18.6274 0 24 5.37262 24 12" fill="#F0F0F0"/>
<path d="M16.7632 8.28015L12 13.0434L7.23671 8.28015C6.62072 9.19454 6.26086 10.2951 6.26086 11.4782V13.0434C6.26086 15.5567 7.88485 17.6976 10.1385 18.4725C9.83766 19.062 9.88838 19.7977 10.3291 20.3477C10.9145 19.8786 11.5206 19.3929 12.0347 18.981C12.5488 19.3929 13.1549 19.8786 13.7402 20.3477C14.1862 19.7912 14.2332 19.0445 13.9206 18.4516C16.1434 17.6598 17.7391 15.5346 17.7391 13.0434V11.4782C17.7391 10.2951 17.3792 9.19459 16.7632 8.28015Z" fill="#6DA544"/>
<path d="M11.9999 17.2174C9.69842 17.2174 7.82605 15.345 7.82605 13.0435V11.4783C7.82605 9.17682 9.69847 7.30444 11.9999 7.30444C14.3014 7.30444 16.1738 9.17687 16.1738 11.4783V13.0435C16.1738 15.345 14.3015 17.2174 11.9999 17.2174Z" fill="#FFDA44"/>
<path d="M14.6087 13.0435V11.4783C14.6087 10.0399 13.4385 8.86963 12 8.86963C10.5616 8.86963 9.39136 10.0399 9.39136 11.4783V13.0435L12 13.5652L14.6087 13.0435Z" fill="#338AF3"/>
<path d="M9.39136 13.0435C9.39136 14.4819 10.5616 15.6521 12 15.6521C13.4385 15.6521 14.6087 14.4819 14.6087 13.0435H9.39136Z" fill="#6DA544"/>
<path d="M15.1305 7.30439C15.1305 6.43997 14.4297 5.73919 13.5653 5.73919C13.1643 5.73919 12.7988 5.89013 12.5218 6.13805V5.21742H13.0435V4.17394H12.5218V3.65222H11.4783V4.17394H10.9566V5.21742H11.4783V6.13805C11.2013 5.89013 10.8358 5.73919 10.4348 5.73919C9.57041 5.73919 8.86963 6.43997 8.86963 7.30439C8.86963 7.76785 9.07124 8.1841 9.39135 8.47074V9.39136H14.6087V8.47074C14.9289 8.1841 15.1305 7.76785 15.1305 7.30439Z" fill="#FFDA44"/>
</g>
<defs>
<clipPath id="clip0_253_5141">
<rect width="24" height="24" fill="white"/>
</clipPath>
</defs>
</svg>
