<svg width="24" height="24" viewBox="0 0 24 24" fill="none" xmlns="http://www.w3.org/2000/svg">
<g clip-path="url(#clip0_253_5258)">
<path d="M12 24C18.6274 24 24 18.6274 24 12C24 5.37258 18.6274 0 12 0C5.37258 0 0 5.37258 0 12C0 18.6274 5.37258 24 12 24Z" fill="#F0F0F0"/>
<path d="M23.2536 7.82605H0.746344C0.264047 9.12608 0 10.5321 0 11.9999C0 13.4678 0.264047 14.8739 0.746344 16.1738H23.2536C23.736 14.8739 24 13.4678 24 11.9999C24 10.5321 23.736 9.12608 23.2536 7.82605Z" fill="#A2001D"/>
<path d="M12.0348 24.0001C16.1449 24.0001 19.7719 21.9333 21.9346 18.7827H2.13501C4.29773 21.9333 7.92463 24.0001 12.0348 24.0001Z" fill="#6DA544"/>
<path d="M12.0348 0.00012207C16.1449 0.00012207 19.7719 2.06693 21.9346 5.2175H2.13501C4.29773 2.06693 7.92463 0.00012207 12.0348 0.00012207Z" fill="#6DA544"/>
<path d="M12 7.82605L13.036 11.0145H16.3888L13.6764 12.9853L14.7125 16.1738L12 14.2033L9.28763 16.1738L10.3238 12.9853L7.61133 11.0145H10.9641L12 7.82605Z" fill="#FFDA44"/>
</g>
<defs>
<clipPath id="clip0_253_5258">
<rect width="24" height="24" fill="white"/>
</clipPath>
</defs>
</svg>
