<svg width="24" height="24" viewBox="0 0 24 24" fill="none" xmlns="http://www.w3.org/2000/svg">
<g clip-path="url(#clip0_253_5612)">
<path d="M12 24C18.6274 24 24 18.6274 24 12C24 5.37258 18.6274 0 12 0C5.37258 0 0 5.37258 0 12C0 18.6274 5.37258 24 12 24Z" fill="#F0F0F0"/>
<path d="M23.0639 7.3478C21.2466 3.03103 16.9776 0 12 0C8.68622 0 5.68654 1.34339 3.51511 3.51511L6.52026 7.3478H23.0639Z" fill="black"/>
<path d="M6.55434 16.6086L3.51511 20.4848C5.68654 22.6565 8.68622 23.9999 12 23.9999C16.9943 23.9999 21.2755 20.9486 23.0824 16.6086H6.55434Z" fill="#496E2D"/>
<path d="M2.60867 8.82617V15.1305H23.5866C23.8558 14.1325 24 13.0832 24 12.0001C24 10.9012 23.852 9.83717 23.5753 8.82617H2.60867Z" fill="#A2001D"/>
<path d="M3.51468 3.51465C-1.1716 8.20093 -1.1716 15.7989 3.51468 20.4853C5.45123 18.5487 7.31371 16.6862 12 12L3.51468 3.51465Z" fill="#0052B4"/>
<path d="M3.90871 9.0166L5.37332 11.0604L7.76994 10.2989L6.2788 12.3236L7.74341 14.3675L5.3571 13.575L3.86591 15.5996L3.88232 13.0851L1.49591 12.2925L3.89235 11.531L3.90871 9.0166Z" fill="#FFDA44"/>
</g>
<defs>
<clipPath id="clip0_253_5612">
<rect width="24" height="24" fill="white"/>
</clipPath>
</defs>
</svg>
