<svg width="24" height="24" viewBox="0 0 24 24" fill="none" xmlns="http://www.w3.org/2000/svg">
<g clip-path="url(#clip0_253_5575)">
<path d="M10.9565 13.0435C10.9565 13.0435 3.52173 3.51305 3.51469 3.51473C5.68623 1.34316 8.68627 0 12 0C18.6274 0 24 5.37262 24 12L10.9565 13.0435Z" fill="#D80027"/>
<path d="M10.9565 12C10.9565 12 3.52173 20.487 3.51469 20.4853C5.68623 22.6568 8.68627 24 12 24C18.6274 24 24 18.6274 24 12H10.9565Z" fill="#0052B4"/>
<path d="M3.51468 3.51465C-1.1716 8.20093 -1.1716 15.7989 3.51468 20.4853C5.45123 18.5487 7.31371 16.6862 12 12L3.51468 3.51465Z" fill="#F0F0F0"/>
<path d="M1.31535 12C1.30879 12.0862 1.30434 12.173 1.30434 12.2608C1.30434 14.1337 2.82271 15.6521 4.69565 15.6521C6.56859 15.6521 8.08696 14.1337 8.08696 12.2608C8.08696 12.173 8.08251 12.0861 8.07595 12H1.31535Z" fill="#FFDA44"/>
<path d="M4.69564 10.4349C5.27195 10.4349 5.73913 9.96769 5.73913 9.39138C5.73913 8.81508 5.27195 8.3479 4.69564 8.3479C4.11934 8.3479 3.65216 8.81508 3.65216 9.39138C3.65216 9.96769 4.11934 10.4349 4.69564 10.4349Z" fill="#FFDA44"/>
<path d="M2.34782 9.13037V12.5217C2.34782 14.3189 4.69565 14.8695 4.69565 14.8695C4.69565 14.8695 7.04348 14.3189 7.04348 12.5217V9.13037H2.34782Z" fill="#D80027"/>
<path d="M4.69678 13.7774C4.26122 13.6207 3.39127 13.2201 3.39127 12.5217V10.1738H6V12.5217C6 13.2224 5.13014 13.622 4.69678 13.7774Z" fill="#338AF3"/>
<path d="M5.21737 11.4782V10.9564L4.69565 10.6956L4.17388 10.9564V11.4782L3.91302 11.739V12.7825H5.47828V11.739L5.21737 11.4782Z" fill="#F3F3F3"/>
</g>
<defs>
<clipPath id="clip0_253_5575">
<rect width="24" height="24" fill="white"/>
</clipPath>
</defs>
</svg>
