<svg width="24" height="24" viewBox="0 0 24 24" fill="none" xmlns="http://www.w3.org/2000/svg">
<g clip-path="url(#clip0_253_6671)">
<path d="M12 24C18.6274 24 24 18.6274 24 12C24 5.37258 18.6274 0 12 0C5.37258 0 0 5.37258 0 12C0 18.6274 5.37258 24 12 24Z" fill="#F0F0F0"/>
<path d="M12 0C6.84043 0 2.44191 3.2565 0.746399 7.82611H23.2537C21.5581 3.2565 17.1596 0 12 0Z" fill="#D80027"/>
<path d="M12 23.9999C17.1596 23.9999 21.5581 20.7434 23.2536 16.1738H0.746399C2.44191 20.7434 6.84043 23.9999 12 23.9999Z" fill="black"/>
<path d="M7.17012 9.13037L7.81761 11.1231H9.91306L8.21783 12.3549L8.86536 14.3477L7.17012 13.1161L5.47489 14.3477L6.12242 12.3549L4.42719 11.1231H6.52264L7.17012 9.13037Z" fill="#6DA544"/>
<path d="M16.8299 9.13037L17.4774 11.1231H19.5729L17.8776 12.3549L18.5251 14.3477L16.8299 13.1161L15.1347 14.3477L15.7822 12.3549L14.087 11.1231H16.1824L16.8299 9.13037Z" fill="#6DA544"/>
</g>
<defs>
<clipPath id="clip0_253_6671">
<rect width="24" height="24" fill="white"/>
</clipPath>
</defs>
</svg>
