<svg width="25" height="25" viewBox="0 0 25 25" fill="none" xmlns="http://www.w3.org/2000/svg">
<g clip-path="url(#clip0_36070_20394)">
<path d="M-6.43207 0.649902H29.5714V24.6499H-6.43207V0.649902Z" fill="#0052B4"/>
<path d="M11.5697 0.649902V8.9054H8.32797L11.5697 11.0642V12.6534H9.98047L4.81903 9.2148V12.6534H0.318592V9.2148L-4.84285 12.6534H-6.43207V11.0642L-3.19035 8.9054H-6.43207V4.40496H-3.19035L-6.43207 2.24615V0.649902H-4.84285L0.318592 4.08852V0.649902H4.81903V4.08852L9.98047 0.649902H11.5697Z" fill="white"/>
<path d="M3.69392 0.649902H1.4437V5.53007H-6.43207V7.78029H1.4437V12.6534H3.69392V7.78029H11.5697V5.53007H3.69392V0.649902Z" fill="#D80027"/>
<path d="M-6.43207 0.649902V1.71172L-2.39574 4.40496H-0.806518L-6.43207 0.649902ZM11.5697 0.649902V1.71172L7.53336 4.40496H5.94414L11.5697 0.649902Z" fill="#D80027"/>
<path d="M11.5697 2.24609V4.4049H8.32794L11.5697 2.24609Z" fill="#2E52B2"/>
<path d="M-6.43207 0.649902V1.71172L-2.39574 4.40496H-0.806518L-6.43207 0.649902ZM11.5697 0.649902V1.71172L7.53336 4.40496H5.94414L11.5697 0.649902Z" fill="#D80027"/>
<path d="M11.5697 2.24609V4.4049H8.32794L11.5697 2.24609Z" fill="#2E52B2"/>
<path d="M-6.43207 12.6535V11.5917L-2.39574 8.90552H-0.806518L-6.43207 12.6535ZM11.5697 12.6535V11.5917L7.53336 8.90552H5.94414L11.5697 12.6535Z" fill="#D80027"/>
<path d="M25.1343 12.5691C25.1343 13.2442 25.1132 14.6506 25.0358 15.3257C24.7475 17.7798 23.3833 20.1636 20.669 21.3661C17.4835 20.1074 16.3936 17.7798 16.1053 15.3257C16.0279 14.6506 15.9998 13.9615 15.9998 13.2864L16.0209 9.97437H25.1061L25.1343 12.5691Z" fill="#29DBFF"/>
<path d="M25.0358 15.3254C25.0218 15.438 25.0077 15.5575 24.9936 15.67C24.6561 17.9976 23.3833 20.2689 20.669 21.3659C17.6312 20.1704 16.492 17.9976 16.1545 15.67C16.1404 15.5575 16.1264 15.445 16.1123 15.3254" fill="white"/>
<path d="M20.669 18.3492L19.0587 15.3254H22.2793L20.669 18.3492Z" fill="#29DBFF"/>
<path d="M20.669 12.3088L19.0587 15.3255H22.2793L20.669 12.3088Z" fill="white"/>
<path d="M14.3332 20.3462C14.9857 20.3462 15.5146 18.983 15.5146 17.3014C15.5146 15.6198 14.9857 14.2566 14.3332 14.2566C13.6808 14.2566 13.1519 15.6198 13.1519 17.3014C13.1519 18.983 13.6808 20.3462 14.3332 20.3462Z" fill="#FFBE57"/>
<path d="M20.669 2.86499L18.3203 5.95904H23.1372L20.669 2.86499ZM15.7537 20.3394C15.7537 20.3394 18.1305 22.4138 20.669 22.4138C23.2075 22.4138 25.3874 20.3394 25.3874 20.3394L25.9852 21.366C25.9852 21.366 24.4522 23.574 20.669 23.574C16.8858 23.574 15.156 21.366 15.156 21.366L15.7537 20.3394Z" fill="white"/>
<path d="M20.7323 9.62259C22.0644 9.62259 23.1443 8.88903 23.1443 7.98414C23.1443 7.07926 22.0644 6.3457 20.7323 6.3457C19.4002 6.3457 18.3203 7.07926 18.3203 7.98414C18.3203 8.88903 19.4002 9.62259 20.7323 9.62259Z" fill="#A5A5A5"/>
</g>
<defs>
<clipPath id="clip0_36070_20394">
<rect x="0.649994" y="0.649902" width="24" height="24" rx="12" fill="white"/>
</clipPath>
</defs>
</svg>
