<svg width="24" height="24" viewBox="0 0 24 24" fill="none" xmlns="http://www.w3.org/2000/svg">
<g clip-path="url(#clip0_253_5645)">
<path d="M24 12C24 18.6274 18.6274 24 12 24C5.37262 24 0 18.6274 0 12C0 12.0029 12 0.0013125 12 0C18.6274 0 24 5.37262 24 12Z" fill="#0052B4"/>
<path d="M11.9679 11.9999H12C12 11.9891 12 11.9786 12 11.9678C11.9893 11.9785 11.9786 11.9892 11.9679 11.9999Z" fill="#F0F0F0"/>
<path d="M12 6.26086C12 4.14937 12 2.76586 12 0H11.998C5.37145 0.001125 0 5.37323 0 12H6.26086V8.47448L9.78638 12H11.9679C11.9786 11.9893 11.9893 11.9786 12 11.9679C12 11.1594 12 10.4381 12 9.78647L8.47444 6.26086H12Z" fill="#F0F0F0"/>
<path d="M6.071 1.56519C4.19417 2.63389 2.63384 4.19417 1.56519 6.071V12H4.69564V4.69573V4.69564H12C12 3.70831 12 2.76772 12 1.56519H6.071Z" fill="#D80027"/>
<path d="M12 10.5244L7.73649 6.26099H6.26086V6.26108L11.9999 12.0001H12C12 12.0001 12 10.9826 12 10.5244Z" fill="#D80027"/>
<path d="M13.5652 6.26074V11.9998C13.5652 14.7955 17.2174 15.6521 17.2174 15.6521C17.2174 15.6521 20.8695 14.7955 20.8695 11.9998V6.26074H13.5652Z" fill="#FFDA44"/>
<path d="M16.6957 8.34793C16.6957 8.92426 16.2285 10.4349 15.6522 10.4349C15.0759 10.4349 14.6087 8.92426 14.6087 8.34793C14.6087 7.7716 15.6522 7.30444 15.6522 7.30444C15.6522 7.30444 16.6957 7.7716 16.6957 8.34793Z" fill="#FF9811"/>
<path d="M19.4646 9.48441C19.633 9.07355 19.764 8.47299 19.764 8.17402C19.764 7.69374 19.1379 7.30444 19.1379 7.30444C19.1379 7.30444 18.5118 7.69379 18.5118 8.17402C18.5118 8.47299 18.6427 9.07355 18.8111 9.48441L18.4496 10.3005C18.6621 10.3868 18.8943 10.4348 19.1378 10.4348C19.3813 10.4348 19.6136 10.3868 19.826 10.3005L19.4646 9.48441Z" fill="#A2001D"/>
<path d="M16.4348 12C16.4348 12 15.9131 13.0435 15.9131 14.087H18.5218C18.5217 13.0435 18 12 18 12L17.2174 11.4783L16.4348 12Z" fill="#6DA544"/>
<path d="M18 12V11.7392C18 11.307 17.6496 10.9565 17.2174 10.9565C16.7852 10.9565 16.4348 11.3069 16.4348 11.7392V12H18Z" fill="#D80027"/>
</g>
<defs>
<clipPath id="clip0_253_5645">
<rect width="24" height="24" fill="white"/>
</clipPath>
</defs>
</svg>
