<svg width="24" height="24" viewBox="0 0 24 24" fill="none" xmlns="http://www.w3.org/2000/svg">
<g clip-path="url(#clip0_253_4944)">
<path d="M1.19072 6.78262C0.427875 8.36025 0 10.1302 0 12C0 13.8698 0.427875 15.6397 1.19072 17.2174L12 18.2609L22.8093 17.2174C23.5721 15.6397 24 13.8698 24 12C24 10.1302 23.5721 8.36025 22.8093 6.78262L12 5.73914L1.19072 6.78262Z" fill="#F0F0F0"/>
<path d="M1.19115 17.2174C3.1321 21.2313 7.24252 24 12 24C16.7575 24 20.868 21.2313 22.8089 17.2174H1.19115Z" fill="#6DA544"/>
<path d="M1.19115 6.78263H22.8089C20.868 2.76872 16.7575 0 12 0C7.24252 0 3.1321 2.76872 1.19115 6.78263Z" fill="#D80027"/>
<path d="M9.91302 15.1305H14.087V13.3565L13.2522 13.7739L12 12.5217L10.7478 13.7739L9.91302 13.3565V15.1305Z" fill="#FFDA44"/>
<path d="M7.52493 13.0435L7.71923 13.6413H8.34782L7.83923 14.0108L8.03353 14.6087L7.52493 14.2392L7.01634 14.6087L7.21063 14.0108L6.70204 13.6413H7.33063L7.52493 13.0435Z" fill="#FFDA44"/>
<path d="M8.12723 10.9565L8.32152 11.5544H8.95012L8.44152 11.9239L8.63577 12.5217L8.12723 12.1523L7.61863 12.5217L7.81293 11.9239L7.30434 11.5544H7.93293L8.12723 10.9565Z" fill="#FFDA44"/>
<path d="M9.84904 9.39136L10.0433 9.9892H10.6719L10.1634 10.3587L10.3576 10.9566L9.84904 10.5871L9.3405 10.9566L9.53475 10.3587L9.02615 9.9892H9.65479L9.84904 9.39136Z" fill="#FFDA44"/>
<path d="M16.4751 13.0435L16.2808 13.6413H15.6522L16.1608 14.0108L15.9665 14.6087L16.4751 14.2392L16.9836 14.6087L16.7893 14.0108L17.2979 13.6413H16.6693L16.4751 13.0435Z" fill="#FFDA44"/>
<path d="M15.8728 10.9565L15.6785 11.5544H15.0499L15.5585 11.9239L15.3642 12.5217L15.8728 12.1523L16.3814 12.5217L16.1871 11.9239L16.6956 11.5544H16.0671L15.8728 10.9565Z" fill="#FFDA44"/>
<path d="M14.151 9.39136L13.9567 9.9892H13.3281L13.8366 10.3587L13.6424 10.9566L14.151 10.5871L14.6595 10.9566L14.4653 10.3587L14.9738 9.9892H14.3452L14.151 9.39136Z" fill="#FFDA44"/>
<path d="M12 8.60864L12.1943 9.20649H12.8229L12.3143 9.576L12.5086 10.1738L12 9.80438L11.4914 10.1738L11.6857 9.576L11.1771 9.20649H11.8057L12 8.60864Z" fill="#FFDA44"/>
</g>
<defs>
<clipPath id="clip0_253_4944">
<rect width="24" height="24" fill="white"/>
</clipPath>
</defs>
</svg>
