<svg width="24" height="24" viewBox="0 0 24 24" fill="none" xmlns="http://www.w3.org/2000/svg">
<g clip-path="url(#clip0_253_6843)">
<path d="M12 24C18.6274 24 24 18.6274 24 12C24 5.37258 18.6274 0 12 0C5.37258 0 0 5.37258 0 12C0 18.6274 5.37258 24 12 24Z" fill="#D80027"/>
<path d="M12 17.739C15.1696 17.739 17.7391 15.1695 17.7391 11.9999C17.7391 8.83024 15.1696 6.26074 12 6.26074C8.83037 6.26074 6.26086 8.83024 6.26086 11.9999C6.26086 15.1695 8.83037 17.739 12 17.739Z" fill="#F0F0F0"/>
<path d="M12.707 9.80566L13.6916 11.1625L15.2861 10.6454L14.3 12.0011L15.2845 13.3578L13.6905 12.8388L12.7043 14.1944L12.7054 12.5181L11.1114 11.9991L12.706 11.4821L12.707 9.80566Z" fill="#D80027"/>
<path d="M13.3043 15.3914C11.4314 15.3914 9.91303 13.873 9.91303 12.0001C9.91303 10.1272 11.4314 8.6088 13.3043 8.6088C13.8883 8.6088 14.4378 8.75645 14.9175 9.01642C14.165 8.28044 13.1358 7.82617 12 7.82617C9.69488 7.82617 7.82611 9.69489 7.82611 12.0001C7.82611 14.3052 9.69488 16.174 12 16.174C13.1358 16.174 14.165 15.7197 14.9175 14.9837C14.4378 15.2438 13.8883 15.3914 13.3043 15.3914Z" fill="#D80027"/>
</g>
<defs>
<clipPath id="clip0_253_6843">
<rect width="24" height="24" fill="white"/>
</clipPath>
</defs>
</svg>
