<svg width="24" height="24" viewBox="0 0 24 24" fill="none" xmlns="http://www.w3.org/2000/svg">
<g clip-path="url(#clip0_253_6098)">
<path d="M12 24C18.6274 24 24 18.6274 24 12C24 5.37258 18.6274 0 12 0C5.37258 0 0 5.37258 0 12C0 18.6274 5.37258 24 12 24Z" fill="#D80027"/>
<path d="M14.5086 9.80566L15.4932 11.1625L17.0877 10.6454L16.1016 12.0011L17.0861 13.3578L15.4921 12.8388L14.506 14.1944L14.507 12.5181L12.913 11.9991L14.5076 11.4821L14.5086 9.80566Z" fill="#F0F0F0"/>
<path d="M11.8216 15.3914C9.94868 15.3914 8.43031 13.873 8.43031 12.0001C8.43031 10.1272 9.94868 8.6088 11.8216 8.6088C12.4056 8.6088 12.9551 8.7565 13.4348 9.01642C12.6822 8.28039 11.653 7.82617 10.5173 7.82617C8.21206 7.82617 6.34338 9.69489 6.34338 12.0001C6.34338 14.3052 8.2121 16.174 10.5173 16.174C11.6531 16.174 12.6822 15.7197 13.4348 14.9837C12.9551 15.2437 12.4056 15.3914 11.8216 15.3914Z" fill="#F0F0F0"/>
</g>
<defs>
<clipPath id="clip0_253_6098">
<rect width="24" height="24" fill="white"/>
</clipPath>
</defs>
</svg>
