<svg width="24" height="24" viewBox="0 0 24 24" fill="none" xmlns="http://www.w3.org/2000/svg">
<g clip-path="url(#clip0_253_4957)">
<path d="M6.49763 1.33252C5.42335 1.887 4.41493 2.6138 3.51436 3.51436C2.61375 4.41497 1.88696 5.42339 1.33252 6.49768L9.04847 14.9515L17.5023 22.6675C18.5767 22.113 19.5851 21.3862 20.4856 20.4857C21.3863 19.5851 22.113 18.5767 22.6675 17.5024L14.9515 9.04847L6.49763 1.33252Z" fill="#F0F0F0"/>
<path d="M20.4856 20.4856C20.989 19.9822 21.438 19.4451 21.8332 18.8817L5.11833 2.16675C4.55493 2.56195 4.01779 3.01092 3.5144 3.51431C3.01101 4.0177 2.56204 4.55484 2.16679 5.11828L18.8817 21.8332C19.4451 21.4379 19.9822 20.989 20.4856 20.4856Z" fill="black"/>
<path d="M3.51431 20.4857C7.30026 24.2717 12.9861 24.9984 17.5023 22.6675L1.33251 6.49768C-0.998347 11.0139 -0.271457 16.6997 3.51431 20.4857Z" fill="#D80027"/>
<path d="M20.4856 3.51437C16.6997 -0.271537 11.0139 -0.998287 6.49767 1.33248L22.6674 17.5024C24.9983 12.9862 24.2716 7.30027 20.4856 3.51437Z" fill="#D80027"/>
</g>
<defs>
<clipPath id="clip0_253_4957">
<rect width="24" height="24" fill="white"/>
</clipPath>
</defs>
</svg>
