<svg width="24" height="24" viewBox="0 0 24 24" fill="none" xmlns="http://www.w3.org/2000/svg">
<g clip-path="url(#clip0_253_6401)">
<path d="M24 12C24 18.6274 18.6274 24 12 24C5.37262 24 0 18.6274 0 12C4.12172 7.87828 7.61737 4.38263 12 0C18.6274 0 24 5.37262 24 12Z" fill="#D80027"/>
<path d="M12 12C12 5.37262 12 4.59131 12 0C5.37262 0 0 5.37262 0 12H12Z" fill="#0052B4"/>
<path d="M10.4348 7.02293L8.96921 7.71237L9.74958 9.13169L8.15822 8.82719L7.95652 10.4349L6.84811 9.25249L5.73961 10.4349L5.53801 8.82719L3.9466 9.1316L4.72697 7.71227L3.26147 7.02293L4.72702 6.33363L3.9466 4.91426L5.53796 5.21871L5.73966 3.61108L6.84811 4.79346L7.95657 3.61108L8.15822 5.21871L9.74963 4.91426L8.96921 6.33368L10.4348 7.02293Z" fill="#F0F0F0"/>
<path d="M6.84836 9.25629C8.08202 9.25629 9.08209 8.25621 9.08209 7.02255C9.08209 5.78889 8.08202 4.78882 6.84836 4.78882C5.6147 4.78882 4.61462 5.78889 4.61462 7.02255C4.61462 8.25621 5.6147 9.25629 6.84836 9.25629Z" fill="#0052B4"/>
<path d="M6.84816 8.21302C6.19186 8.21302 5.65796 7.67907 5.65796 7.02277C5.65796 6.36647 6.19191 5.83252 6.84816 5.83252C7.50446 5.83252 8.03841 6.36647 8.03841 7.02277C8.03836 7.67907 7.50436 8.21302 6.84816 8.21302Z" fill="#F0F0F0"/>
</g>
<defs>
<clipPath id="clip0_253_6401">
<rect width="24" height="24" fill="white"/>
</clipPath>
</defs>
</svg>
