<svg width="24" height="24" viewBox="0 0 24 24" fill="none" xmlns="http://www.w3.org/2000/svg">
<g clip-path="url(#clip0_253_6913)">
<path d="M12 24C18.6274 24 24 18.6274 24 12C24 5.37258 18.6274 0 12 0C5.37258 0 0 5.37258 0 12C0 18.6274 5.37258 24 12 24Z" fill="#FFDA44"/>
<path d="M3.51471 20.4853C4.0181 20.9887 4.55519 21.4376 5.11858 21.8329L21.8328 5.11863C21.4376 4.55524 20.9887 4.01814 20.4853 3.51475C19.9818 3.01136 19.4448 2.56249 18.8814 2.16724L2.16724 18.8815C2.56239 19.4448 3.01136 19.9819 3.51471 20.4853Z" fill="black"/>
<path d="M3.51471 3.51465C-0.271007 7.30047 -0.997804 12.986 1.33296 17.5021L17.5021 1.33295C12.986 -0.997814 7.30048 -0.27097 3.51471 3.51465Z" fill="#6DA544"/>
<path d="M20.4853 20.4852C24.271 16.6995 24.9978 11.0139 22.6671 6.4978L6.49792 22.667C11.0139 24.9977 16.6995 24.2709 20.4853 20.4852Z" fill="#338AF3"/>
</g>
<defs>
<clipPath id="clip0_253_6913">
<rect width="24" height="24" fill="white"/>
</clipPath>
</defs>
</svg>
