<svg width="24" height="24" viewBox="0 0 24 24" fill="none" xmlns="http://www.w3.org/2000/svg">
<g clip-path="url(#clip0_253_6869)">
<path d="M20.9434 19.9999C22.8439 17.8768 24 15.0736 24 11.9999C24 8.92623 22.8438 6.12296 20.9434 3.9999L12 3.13037L3.05662 3.9999C1.15617 6.12296 0 8.92623 0 11.9999C0 15.0736 1.15613 17.8768 3.05658 19.9999L12 20.8695L20.9434 19.9999Z" fill="#FFDA44"/>
<path d="M3.05664 3.99998H20.9434C18.7462 1.54528 15.5538 0 12 0C8.44628 0 5.25386 1.54528 3.05664 3.99998Z" fill="black"/>
<path d="M0 12L12 13.0435L24 12C24 10.5973 23.7585 9.25119 23.3162 8H0.683812C0.241453 9.25119 0 10.5973 0 12H0Z" fill="#D80027"/>
<path d="M0.683812 16H23.3163C23.7585 14.7488 24 13.4027 24 12H0C0 13.4027 0.241453 14.7488 0.683812 16Z" fill="black"/>
<path d="M20.9434 20H3.05652C5.25374 22.4548 8.44616 24 11.9999 24C15.5537 24 18.7461 22.4548 20.9434 20Z" fill="#D80027"/>
<path d="M16.0043 11.9999C16.0043 14.2117 14.2117 16.0043 11.9999 16.0043C9.78825 16.0043 7.99561 14.2117 7.99561 11.9999C7.99561 9.78825 9.78825 7.99561 11.9999 7.99561C14.2117 7.99561 16.0043 9.78825 16.0043 11.9999Z" fill="#F0F0F0"/>
<path d="M13.467 12.2041L12 11.5685C12 11.5685 12.3432 10.4293 12.3615 10.3513C12.3749 10.2943 12.382 10.235 12.382 10.1739C12.382 9.95779 12.2944 9.76213 12.1527 9.62057L12.5217 9.25166C12.2856 9.01564 11.9595 8.86963 11.5993 8.86963C11.2392 8.86963 10.913 9.0156 10.677 9.25166L11.0459 9.62057C10.9043 9.76218 10.8167 9.95783 10.8167 10.1739C10.8167 10.253 10.8287 10.3291 10.8505 10.4011L10.295 10.9565H11.3045C11.3045 10.9565 10.8872 11.5834 10.6593 12.0982C10.4315 12.613 10.6625 13.2414 11.189 13.4755L11.4935 13.6108L12 14.0869V14.6086L11.4783 15.1303H12.5218V14.0869L12.9979 13.6108H13.9827C13.9874 13.601 13.9924 13.5914 13.9969 13.5814C14.2308 13.0548 13.9936 12.4381 13.467 12.2041Z" fill="black"/>
</g>
<defs>
<clipPath id="clip0_253_6869">
<rect width="24" height="24" fill="white"/>
</clipPath>
</defs>
</svg>
