<svg width="24" height="24" viewBox="0 0 24 24" fill="none" xmlns="http://www.w3.org/2000/svg">
<g clip-path="url(#clip0_253_6612)">
<path d="M12 24C18.6274 24 24 18.6274 24 12C24 5.37258 18.6274 0 12 0C5.37258 0 0 5.37258 0 12C0 18.6274 5.37258 24 12 24Z" fill="#338AF3"/>
<path d="M11.9653 7.82617C9.66005 7.82617 7.79143 9.69489 7.79143 12.0001C7.79143 14.3052 9.6601 16.174 11.9653 16.174C14.2704 16.174 16.1392 14.3052 16.1392 12.0001C16.1392 9.69489 14.2704 7.82617 11.9653 7.82617ZM10.9218 12.0001C10.9218 11.4238 11.389 10.9566 11.9653 10.9566C12.5416 10.9566 13.0088 11.4238 13.0088 12.0001C13.0088 12.5764 12.5416 13.0435 11.9653 13.0435C11.389 13.0435 10.9218 12.5764 10.9218 12.0001ZM13.0472 10.2151C12.8852 10.1167 12.7087 10.0403 12.5218 9.9887V8.91995C12.9924 9.00442 13.4264 9.19375 13.7989 9.46347L13.0472 10.2151ZM11.4783 9.97084C11.2825 10.0177 11.0976 10.0921 10.9276 10.1897L10.1724 9.43455C10.5542 9.16727 10.998 8.98262 11.4783 8.90748V9.97084ZM10.9276 13.8104C11.0975 13.908 11.2825 13.9825 11.4783 14.0292V15.0925C10.9979 15.0175 10.5542 14.8328 10.1724 14.5655L10.9276 13.8104ZM12.5218 14.0114C12.7087 13.9598 12.8853 13.8835 13.0472 13.7851L13.7988 14.5367C13.4264 14.8064 12.9924 14.9957 12.5218 15.0802V14.0115H12.5218V14.0114ZM13.7756 13.0379C13.8676 12.8779 13.9394 12.7048 13.9865 12.5218H15.0516C14.9732 12.9888 14.7916 13.4205 14.5308 13.7929L13.7756 13.0379ZM13.9865 11.4783C13.9394 11.2953 13.8676 11.1224 13.7756 10.9623L14.5308 10.2072C14.7916 10.5797 14.9732 11.0113 15.0516 11.4783H13.9865V11.4783H13.9865ZM9.42868 10.1665L10.1803 10.9182C10.0758 11.0902 9.99554 11.2785 9.94407 11.4783H8.87897C8.96021 10.9943 9.15235 10.5482 9.42868 10.1665ZM8.87897 12.5218H9.94407C9.99549 12.7217 10.0758 12.9099 10.1803 13.0819L9.42868 13.8336C9.15235 13.452 8.96021 13.0059 8.87897 12.5218Z" fill="#F0F0F0"/>
<path d="M18.7479 12.0001C18.7479 10.1448 18.0027 8.46382 16.7956 7.23926L15.6889 8.34602C16.6127 9.28727 17.1827 10.5771 17.1827 12.0001C17.1827 14.8816 14.8468 17.2175 11.9653 17.2175C9.08377 17.2175 6.74794 14.8816 6.74794 12.0001C6.74794 10.5593 7.33186 9.25498 8.27607 8.31087L7.1693 7.2041C5.94188 8.43152 5.18274 10.1272 5.18274 12.0001C5.18274 15.1039 7.2676 17.7208 10.1133 18.5268C9.80133 19.1194 9.84886 19.8656 10.2946 20.4218C10.8799 19.9527 11.486 19.467 12.0001 19.055C12.5142 19.467 13.1203 19.9527 13.7056 20.4218C14.1557 19.8601 14.2 19.1044 13.8777 18.5089C16.6923 17.6832 18.7479 15.0819 18.7479 12.0001Z" fill="#F0F0F0"/>
</g>
<defs>
<clipPath id="clip0_253_6612">
<rect width="24" height="24" fill="white"/>
</clipPath>
</defs>
</svg>
