<svg width="24" height="24" viewBox="0 0 24 24" fill="none" xmlns="http://www.w3.org/2000/svg">
<g clip-path="url(#clip0_253_6678)">
<path d="M12 24C18.6274 24 24 18.6274 24 12C24 5.37258 18.6274 0 12 0C5.37258 0 0 5.37258 0 12C0 18.6274 5.37258 24 12 24Z" fill="#F0F0F0"/>
<path d="M12 8.86947H23.5866C23.2857 7.75319 22.8284 6.70126 22.2387 5.73901H12V8.86947Z" fill="#338AF3"/>
<path d="M4.53015 21.3912H19.4698C20.565 20.5189 21.5042 19.4595 22.2387 18.2607H1.76129C2.49587 19.4594 3.43506 20.5189 4.53015 21.3912Z" fill="#338AF3"/>
<path d="M12 0V2.60869H19.4699C17.42 0.976125 14.8242 0 12 0Z" fill="#338AF3"/>
<path d="M12 8.86947H23.5866C23.2857 7.75319 22.8284 6.70126 22.2387 5.73901H12V8.86947Z" fill="#338AF3"/>
<path d="M0 12C0 13.0831 0.144375 14.1323 0.413391 15.1305H23.5867C23.8556 14.1323 24 13.0831 24 12H0Z" fill="#338AF3"/>
<path d="M10.4348 7.02293L8.96922 7.71232L9.74964 9.13169L8.15824 8.82729L7.95658 10.4349L6.84818 9.25249L5.73968 10.4349L5.53807 8.82729L3.94666 9.1316L4.72704 7.71227L3.26154 7.02293L4.72708 6.33363L3.94666 4.91426L5.53802 5.21866L5.73972 3.61108L6.84818 4.79346L7.95663 3.61108L8.15824 5.21866L9.74969 4.91426L8.96927 6.33368L10.4348 7.02293Z" fill="#FFDA44"/>
</g>
<defs>
<clipPath id="clip0_253_6678">
<rect width="24" height="24" fill="white"/>
</clipPath>
</defs>
</svg>
