<svg width="24" height="24" viewBox="0 0 24 24" fill="none" xmlns="http://www.w3.org/2000/svg">
<g clip-path="url(#clip0_253_5084)">
<path d="M0.566625 8.34782C0.199031 9.49944 -4.68667e-05 10.7263 8.276e-09 11.9998C-4.68667e-05 13.2734 0.199078 14.5004 0.566672 15.652L12 16.1738L23.4333 15.6521C23.8009 14.5004 24 13.2734 24 11.9999C24 10.7263 23.8009 9.49944 23.4333 8.34777L12 7.82605L0.566625 8.34782Z" fill="#F0F0F0"/>
<path d="M23.4333 8.34789L12 7.82617L0.566622 8.34789C0.457685 8.68933 0.363888 9.03747 0.285278 9.39138H23.7145C23.636 9.03742 23.5423 8.68923 23.4333 8.34789Z" fill="#D80027"/>
<path d="M0.2854 14.6086C0.363916 14.9625 0.457713 15.3106 0.56665 15.6521L0.567775 15.6521L11.9999 16.1738L23.4333 15.6521C23.5422 15.3107 23.636 14.9625 23.7146 14.6086H0.2854Z" fill="#D80027"/>
<path d="M11.9999 23.9999C17.3538 23.9999 21.888 20.4935 23.4333 15.6521H0.56665C2.11188 20.4935 6.6462 23.9999 11.9999 23.9999Z" fill="#6DA544"/>
<path d="M12 4.69973e-10C6.6462 4.68755e-05 2.11198 3.50644 0.56665 8.34783L23.4333 8.34787C21.8881 3.50639 17.3539 -4.68745e-05 12 4.69973e-10Z" fill="#338AF3"/>
<path d="M5.48376 4.95655C5.48376 3.83262 6.27365 2.89372 7.32848 2.66337C7.16638 2.62794 6.99815 2.60876 6.82537 2.60876C5.52871 2.60876 4.47754 3.65989 4.47754 4.95659C4.47754 6.2533 5.52862 7.30442 6.82537 7.30442C6.99815 7.30442 7.16634 7.2852 7.32848 7.24981C6.2737 7.01937 5.48376 6.08047 5.48376 4.95655Z" fill="#F0F0F0"/>
<path d="M8.71616 6.02368L8.87507 6.51282H9.38938L8.97332 6.81517L9.13222 7.30431L8.71616 7.00201L8.3 7.30431L8.45896 6.81517L8.04285 6.51282H8.55716L8.71616 6.02368Z" fill="#F0F0F0"/>
<path d="M10.3577 6.02368L10.5166 6.51282H11.0309L10.6148 6.81517L10.7738 7.30431L10.3577 7.00201L9.94156 7.30431L10.1005 6.81517L9.68445 6.51282H10.1987L10.3577 6.02368Z" fill="#F0F0F0"/>
<path d="M11.9994 6.02368L12.1583 6.51282H12.6726L12.2565 6.81517L12.4154 7.30431L11.9994 7.00201L11.5832 7.30431L11.7422 6.81517L11.326 6.51282H11.8404L11.9994 6.02368Z" fill="#F0F0F0"/>
<path d="M13.641 6.02368L13.7999 6.51282H14.3142L13.8981 6.81517L14.0571 7.30431L13.641 7.00201L13.2248 7.30431L13.3838 6.81517L12.9677 6.51282H13.482L13.641 6.02368Z" fill="#F0F0F0"/>
<path d="M15.2825 6.02368L15.4414 6.51282H15.9557L15.5397 6.81517L15.6986 7.30431L15.2825 7.00201L14.8664 7.30431L15.0253 6.81517L14.6093 6.51282H15.1235L15.2825 6.02368Z" fill="#F0F0F0"/>
<path d="M10.3577 4.31616L10.5166 4.80526H11.0309L10.6148 5.10765L10.7738 5.59674L10.3577 5.29444L9.94156 5.59674L10.1005 5.10765L9.68445 4.80526H10.1987L10.3577 4.31616Z" fill="#F0F0F0"/>
<path d="M11.9994 4.31616L12.1583 4.80526H12.6726L12.2565 5.10765L12.4154 5.59674L11.9994 5.29444L11.5832 5.59674L11.7422 5.10765L11.326 4.80526H11.8404L11.9994 4.31616Z" fill="#F0F0F0"/>
<path d="M13.641 4.31616L13.7999 4.80526H14.3142L13.8981 5.10765L14.0571 5.59674L13.641 5.29444L13.2248 5.59674L13.3838 5.10765L12.9677 4.80526H13.482L13.641 4.31616Z" fill="#F0F0F0"/>
<path d="M15.2825 4.31616L15.4414 4.80526H15.9557L15.5397 5.10765L15.6986 5.59674L15.2825 5.29444L14.8664 5.59674L15.0253 5.10765L14.6093 4.80526H15.1235L15.2825 4.31616Z" fill="#F0F0F0"/>
<path d="M11.9994 2.60864L12.1583 3.09783H12.6726L12.2565 3.40013L12.4154 3.88931L11.9994 3.58702L11.5832 3.88931L11.7422 3.40013L11.326 3.09783H11.8404L11.9994 2.60864Z" fill="#F0F0F0"/>
<path d="M13.641 2.60864L13.7999 3.09783H14.3142L13.8981 3.40013L14.0571 3.88931L13.641 3.58702L13.2248 3.88931L13.3838 3.40013L12.9677 3.09783H13.482L13.641 2.60864Z" fill="#F0F0F0"/>
<path d="M15.2825 2.60864L15.4414 3.09783H15.9557L15.5397 3.40013L15.6986 3.88931L15.2825 3.58702L14.8664 3.88931L15.0253 3.40013L14.6093 3.09783H15.1235L15.2825 2.60864Z" fill="#F0F0F0"/>
</g>
<defs>
<clipPath id="clip0_253_5084">
<rect width="24" height="24" fill="white"/>
</clipPath>
</defs>
</svg>
