<svg width="24" height="24" viewBox="0 0 24 24" fill="none" xmlns="http://www.w3.org/2000/svg">
<g clip-path="url(#clip0_253_5349)">
<path d="M12 0C18.6274 0 24 5.37262 24 12C24 18.6274 18.6274 24 12 24C12 23.4783 10.4348 12 10.4348 12L12 0Z" fill="#F0F0F0"/>
<path d="M12 24C5.37262 24 0 18.6274 0 12C0 5.37262 5.37262 0 12 0" fill="#FFDA44"/>
<path d="M16.5952 10.4422L18.8504 13.4256C18.4951 13.9636 18.497 14.6885 18.9079 15.2321C19.4292 15.9217 20.4108 16.0581 21.1004 15.5369C21.79 15.0156 21.9265 14.034 21.4051 13.3444C20.9943 12.8008 20.2973 12.6013 19.6828 12.7964L16.1681 8.14673L15.3357 8.77598L14.0869 9.71976L15.3454 11.3845L16.5952 10.4422ZM19.8419 13.872C20.0718 13.6982 20.399 13.7437 20.5728 13.9735C20.7465 14.2034 20.7011 14.5306 20.4712 14.7044C20.2414 14.8781 19.9141 14.8327 19.7404 14.6028C19.5666 14.3729 19.6121 14.0457 19.8419 13.872Z" fill="#ACABB1"/>
<path d="M20.4633 11.3845L21.7218 9.71973L20.4731 8.77586L19.6407 8.14661L16.126 12.7963C15.5115 12.6012 14.8145 12.8007 14.4036 13.3443C13.8823 14.0339 14.0188 15.0155 14.7084 15.5367C15.398 16.058 16.3796 15.9215 16.9008 15.2319C17.3117 14.6883 17.3136 13.9635 16.9583 13.4254L19.2135 10.442L20.4633 11.3845ZM16.0684 14.6028C15.8947 14.8327 15.5675 14.8781 15.3376 14.7044C15.1077 14.5306 15.0623 14.2034 15.236 13.9735C15.4098 13.7437 15.737 13.6982 15.9669 13.872C16.1967 14.0457 16.2422 14.373 16.0684 14.6028Z" fill="#FFDA44"/>
</g>
<defs>
<clipPath id="clip0_253_5349">
<rect width="24" height="24" fill="white"/>
</clipPath>
</defs>
</svg>
