<svg width="24" height="24" viewBox="0 0 24 24" fill="none" xmlns="http://www.w3.org/2000/svg">
<g clip-path="url(#clip0_253_6538)">
<path d="M22.8093 17.2175C23.5722 15.6399 24 13.87 24 12.0001C24 10.1302 23.5722 8.36037 22.8093 6.78274L12 5.73926L1.19072 6.78274C0.427828 8.36037 0 10.1302 0 12.0001C0 13.87 0.427828 15.6399 1.19072 17.2175L12 18.261L22.8093 17.2175Z" fill="#0052B4"/>
<path d="M12 23.9999C16.7574 23.9999 20.8682 21.2312 22.8092 17.2173H1.19067C3.13167 21.2312 7.24242 23.9999 12 23.9999Z" fill="#D80027"/>
<path d="M20.7827 14.3557L20.1489 14.851L20.424 15.6067L19.7571 15.157L19.1233 15.6522L19.3449 14.879L18.6781 14.4292L19.482 14.4011L19.7038 13.6279L19.9789 14.3837L20.7827 14.3557Z" fill="#F0F0F0"/>
<path d="M19.1596 11.5444L18.7335 12.2266L19.2506 12.8426L18.4701 12.6483L18.0438 13.3303L17.9876 12.5279L17.2072 12.3333L17.953 12.0319L17.897 11.2295L18.4139 11.8458L19.1596 11.5444Z" fill="#F0F0F0"/>
<path d="M16.6731 9.45801L16.506 10.2448L17.2025 10.647L16.4026 10.7313L16.2354 11.5179L15.9082 10.7832L15.1082 10.8671L15.706 10.3289L15.3789 9.59418L16.0754 9.99627L16.6731 9.45801Z" fill="#F0F0F0"/>
<path d="M13.6228 8.3479L13.7349 9.14445L14.527 9.28404L13.8041 9.63682L13.916 10.4333L13.3573 9.8547L12.6342 10.2073L13.0119 9.49699L12.4531 8.91846L13.2453 9.0581L13.6228 8.3479Z" fill="#F0F0F0"/>
<path d="M10.377 8.3479L10.7547 9.0581L11.5467 8.91837L10.988 9.49713L11.3655 10.2074L10.6426 9.8547L10.0838 10.4332L10.1959 9.63682L9.4729 9.28423L10.265 9.14445L10.377 8.3479Z" fill="#F0F0F0"/>
<path d="M7.32675 9.45801L7.92459 9.99627L8.62102 9.59418L8.29397 10.3292L8.89167 10.8673L8.09175 10.7832L7.76447 11.5179L7.59745 10.7312L6.79749 10.6472L7.49405 10.2449L7.32675 9.45801Z" fill="#F0F0F0"/>
<path d="M4.84022 11.5445L5.58614 11.8459L6.10298 11.2297L6.04706 12.0323L6.79275 12.3336L6.01232 12.5281L5.95612 13.3304L5.53003 12.6484L4.74951 12.8429L5.26654 12.2267L4.84022 11.5445Z" fill="#F0F0F0"/>
<path d="M3.21716 14.3556L4.02116 14.3836L4.29613 13.6279L4.51808 14.4012L5.32185 14.4293L4.65501 14.8791L4.87663 15.6522L4.24288 15.157L3.57599 15.6067L3.8511 14.8509L3.21716 14.3556Z" fill="#F0F0F0"/>
<path d="M22.8092 6.78263C20.8682 2.76867 16.7574 0 12 0C7.24242 0 3.13167 2.76867 1.19067 6.78263H22.8092Z" fill="#FFDA44"/>
</g>
<defs>
<clipPath id="clip0_253_6538">
<rect width="24" height="24" fill="white"/>
</clipPath>
</defs>
</svg>
