<svg width="24" height="24" viewBox="0 0 24 24" fill="none" xmlns="http://www.w3.org/2000/svg">
<g clip-path="url(#clip0_253_5359)">
<path d="M12 24C18.6274 24 24 18.6274 24 12C24 5.37258 18.6274 0 12 0C5.37258 0 0 5.37258 0 12C0 18.6274 5.37258 24 12 24Z" fill="#FCFCFC"/>
<path d="M14.0381 8.38337C14.0381 7.25781 13.1256 6.34534 12 6.34534C10.8744 6.34534 9.96193 7.25781 9.96193 8.38337H5.47829C5.47829 9.49154 6.44363 10.39 7.5518 10.39H7.48505C7.48505 11.4983 8.38336 12.3968 9.49172 12.3968C9.49172 13.378 10.1964 14.1933 11.1271 14.3676L11.1219 14.3793H12.8781L12.8729 14.3676C13.8037 14.1932 14.5083 13.3779 14.5083 12.3968C15.6166 12.3968 16.515 11.4983 16.515 10.39H16.4482C17.5563 10.39 18.5217 9.49154 18.5217 8.38337H14.0381Z" fill="#FFDA44"/>
<path d="M11.1041 14.1714L9.84042 17.0243C10.5072 17.2954 11.2359 17.446 12 17.446C12.7642 17.446 13.4929 17.2954 14.1596 17.0243L12.896 14.1714H11.1041Z" fill="#FFDA44"/>
<path d="M9.39131 9.38562V12.8961C9.39131 14.8929 12 15.5048 12 15.5048C12 15.5048 14.6087 14.8929 14.6087 12.8961V9.38562H9.39131Z" fill="#F0F0F0"/>
<path d="M2.90995 12.0845L4.32084 16.0306L5.71706 12.0845H6.78262L4.74703 17.3018H3.89461L1.84444 12.0845H2.90995Z" fill="#338AF3"/>
<path d="M19.3043 17.3018V12.0845H20.3184V17.3018H19.3043Z" fill="#338AF3"/>
<path d="M10.4348 10.5193V14.7734C10.7934 15.0373 11.1793 15.2189 11.4783 15.3351V10.5193H10.4348Z" fill="#D80027"/>
<path d="M13.5652 10.5193V14.7734C13.2066 15.0373 12.8207 15.2189 12.5217 15.3351V10.5193H13.5652Z" fill="#D80027"/>
<path d="M9.39131 9.3855H14.6087V11.0409H9.39131V9.3855Z" fill="#0052B4"/>
</g>
<defs>
<clipPath id="clip0_253_5359">
<rect width="24" height="24" fill="white"/>
</clipPath>
</defs>
</svg>
