<svg width="24" height="24" viewBox="0 0 24 24" fill="none" xmlns="http://www.w3.org/2000/svg">
<g clip-path="url(#clip0_253_5711)">
<path d="M24 11.9999C24 11.4695 23.9651 10.9471 23.8984 10.4347H10.4347C7.98306 7.98328 3.51452 3.51502 3.5147 3.51465C-1.17157 8.20092 -1.17157 15.7989 3.5147 20.4852L10.4348 13.5652H23.8984C23.9651 13.0528 24 12.5304 24 11.9999Z" fill="black"/>
<path d="M23.9964 12.2729C23.9959 12.2961 23.9954 12.3194 23.9948 12.3425C23.9953 12.3193 23.9959 12.2961 23.9964 12.2729Z" fill="#F0F0F0"/>
<path d="M23.985 12.6008C23.9839 12.6238 23.9823 12.6466 23.9811 12.6695C23.9823 12.6466 23.9838 12.6238 23.985 12.6008Z" fill="#F0F0F0"/>
<path d="M23.9688 12.8625C23.9664 12.8963 23.964 12.93 23.9613 12.9636C23.964 12.93 23.9663 12.8963 23.9688 12.8625Z" fill="#F0F0F0"/>
<path d="M23.9287 10.6921C23.9331 10.7323 23.9375 10.7723 23.9415 10.8126C23.9375 10.7723 23.9331 10.7323 23.9287 10.6921Z" fill="#F0F0F0"/>
<path d="M23.9811 11.3306C23.9823 11.3534 23.9839 11.3763 23.985 11.3992C23.9838 11.3763 23.9823 11.3534 23.9811 11.3306Z" fill="#F0F0F0"/>
<path d="M23.9948 11.6577C23.9954 11.6809 23.9959 11.7041 23.9964 11.7273C23.9959 11.704 23.9954 11.6809 23.9948 11.6577Z" fill="#F0F0F0"/>
<path d="M23.9613 11.0366C23.964 11.0702 23.9664 11.1039 23.9688 11.1376C23.9663 11.1039 23.964 11.0702 23.9613 11.0366Z" fill="#F0F0F0"/>
<path d="M23.8983 10.4347C23.9037 10.4758 23.9085 10.5172 23.9134 10.5584C23.2012 4.6108 18.1394 0 11.9999 0C8.68614 0 5.6861 1.3432 3.51453 3.51487L10.4344 10.4348H23.8983V10.4347Z" fill="#D80027"/>
<path d="M23.8983 13.5653H10.4344L3.51453 20.4852C5.6861 22.6568 8.68614 24.0001 11.9999 24.0001C18.1394 24.0001 23.2012 19.3893 23.9134 13.4417C23.9085 13.4829 23.9036 13.5242 23.8983 13.5653Z" fill="#6DA544"/>
<path d="M23.9415 13.1875C23.9375 13.2277 23.9331 13.2678 23.9287 13.3079C23.9331 13.2678 23.9376 13.2278 23.9415 13.1875Z" fill="#F0F0F0"/>
<path d="M23.9689 11.1375C23.9734 11.2016 23.9775 11.2659 23.9811 11.3304C23.9775 11.2659 23.9734 11.2016 23.9689 11.1375Z" fill="black"/>
<path d="M23.9135 10.5583C23.9188 10.6028 23.924 10.6474 23.9287 10.692C23.9239 10.6474 23.9187 10.6029 23.9135 10.5583Z" fill="black"/>
<path d="M23.9415 10.8125C23.9488 10.887 23.9555 10.9617 23.9614 11.0366C23.9555 10.9617 23.9489 10.8869 23.9415 10.8125Z" fill="black"/>
<path d="M24 12C24 12.0913 23.9986 12.1822 23.9966 12.2729C23.9986 12.1821 24 12.0912 24 12Z" fill="black"/>
<path d="M23.9811 12.6694C23.9775 12.7339 23.9734 12.7982 23.9689 12.8624C23.9734 12.7982 23.9774 12.7339 23.9811 12.6694Z" fill="black"/>
<path d="M23.9614 12.9634C23.9555 13.0382 23.9488 13.113 23.9415 13.1874C23.9489 13.113 23.9555 13.0382 23.9614 12.9634Z" fill="black"/>
<path d="M23.9287 13.3079C23.924 13.3525 23.9188 13.397 23.9135 13.4415C23.9187 13.3971 23.9239 13.3525 23.9287 13.3079Z" fill="black"/>
<path d="M23.9966 11.7271C23.9986 11.8178 24 11.9087 24 11.9999C24 11.9087 23.9986 11.8178 23.9966 11.7271Z" fill="black"/>
<path d="M23.985 11.3992C23.9892 11.485 23.9924 11.5712 23.9948 11.6576C23.9924 11.5712 23.9893 11.485 23.985 11.3992Z" fill="black"/>
<path d="M23.9948 12.3425C23.9924 12.4289 23.9892 12.5151 23.985 12.601C23.9893 12.515 23.9924 12.4289 23.9948 12.3425Z" fill="black"/>
<path d="M23.9885 11.4739H9.99377L2.80517 4.28638C2.57281 4.53144 2.32095 4.87363 2.16519 5.11733L9.03982 11.9956L2.15942 18.8761C2.29564 19.1184 2.59241 19.4771 2.80077 19.7105L9.99391 12.5174H23.9902C23.9976 12.3443 24 12.1705 24 11.9957C23.9999 11.7614 23.9935 11.5886 23.9885 11.4739Z" fill="#FFDA44"/>
<path d="M2.91502 14.5579V13.5528C3.91805 13.5528 4.734 12.7367 4.734 11.7338C4.734 11.0242 4.15665 10.4468 3.44705 10.4468C2.96363 10.4468 2.57031 10.8401 2.57031 11.3236C2.57031 11.6328 2.82179 11.8843 3.13098 11.8843C3.30573 11.8843 3.4479 11.742 3.4479 11.5673H4.45299C4.45299 12.2963 3.85993 12.8894 3.13102 12.8894C2.26763 12.8895 1.56531 12.187 1.56531 11.3237C1.56531 10.2861 2.40952 9.44189 3.4471 9.44189C4.71094 9.44189 5.73919 10.4701 5.73919 11.7339C5.73914 13.291 4.47226 14.5579 2.91502 14.5579Z" fill="#FFDA44"/>
</g>
<defs>
<clipPath id="clip0_253_5711">
<rect width="24" height="24" fill="white"/>
</clipPath>
</defs>
</svg>
