<svg width="24" height="24" viewBox="0 0 24 24" fill="none" xmlns="http://www.w3.org/2000/svg">
<g clip-path="url(#clip0_253_4854)">
<path d="M24 12C24 18.6274 18.6274 24 12 24C5.37262 24 0 18.6274 0 12C4.12172 7.87828 7.61737 4.38263 12 0C18.6274 0 24 5.37262 24 12Z" fill="#D80027"/>
<path d="M12 12C12 5.37262 12 4.59131 12 0C5.37262 0 0 5.37262 0 12H12Z" fill="#0052B4"/>
<path d="M9.61189 7.82617L9.80619 8.42406H10.4348L9.92619 8.79348L10.1205 9.39138L9.61189 9.02186L9.1033 9.39138L9.2976 8.79348L8.789 8.42406H9.4176L9.61189 7.82617Z" fill="#F0F0F0"/>
<path d="M6.4546 3.13049L6.77836 4.12701H7.82611L6.97843 4.74271L7.30229 5.73918L6.4546 5.12329L5.60696 5.73918L5.93077 4.74271L5.08313 4.12701H6.13079L6.4546 3.13049Z" fill="#F0F0F0"/>
<path d="M9.58503 4.17395L9.9088 5.17051H10.9565L10.1089 5.78622L10.4326 6.78268L9.58503 6.16679L8.73739 6.78268L9.0612 5.78622L8.21356 5.17051H9.26122L9.58503 4.17395Z" fill="#F0F0F0"/>
<path d="M7.1106 8.3479L7.43442 9.34442H8.48207L7.63443 9.96012L7.95825 10.9566L7.1106 10.3407L6.26296 10.9566L6.58678 9.96012L5.73914 9.34442H6.78684L7.1106 8.3479Z" fill="#F0F0F0"/>
<path d="M4.36764 5.73914L4.69145 6.73565H5.73915L4.89147 7.35135L5.21528 8.34782L4.36764 7.73198L3.52004 8.34782L3.84381 7.35135L2.99622 6.73565H4.04387L4.36764 5.73914Z" fill="#F0F0F0"/>
</g>
<defs>
<clipPath id="clip0_253_4854">
<rect width="24" height="24" fill="white"/>
</clipPath>
</defs>
</svg>
