<svg width="24" height="24" viewBox="0 0 24 24" fill="none" xmlns="http://www.w3.org/2000/svg">
<g clip-path="url(#clip0_253_5691)">
<path d="M12 24C18.6274 24 24 18.6274 24 12C24 5.37258 18.6274 0 12 0C5.37258 0 0 5.37258 0 12C0 18.6274 5.37258 24 12 24Z" fill="#0052B4"/>
<path d="M5.27111 7.30444L5.53014 8.10169H6.36826L5.69022 8.5943L5.9492 9.39141L5.27111 8.8988L4.59297 9.39141L4.85204 8.5943L4.17395 8.10169H5.01203L5.27111 7.30444Z" fill="#F0F0F0"/>
<path d="M7.87982 6.52197L8.13886 7.31918H8.97698L8.29893 7.81178L8.55792 8.60889L7.87982 8.11628L7.20173 8.60889L7.46076 7.81178L6.78271 7.31918H7.62084L7.87982 6.52197Z" fill="#F0F0F0"/>
<path d="M10.4885 5.73926L10.7475 6.53646H11.5856L10.9076 7.02912L11.1666 7.82623L10.4885 7.33357L9.81037 7.82623L10.0694 7.02912L9.39136 6.53646H10.2295L10.4885 5.73926Z" fill="#F0F0F0"/>
<path d="M18.729 7.30444L18.47 8.10169H17.6318L18.3099 8.5943L18.0509 9.39141L18.729 8.8988L19.4071 9.39141L19.1481 8.5943L19.8261 8.10169H18.988L18.729 7.30444Z" fill="#F0F0F0"/>
<path d="M16.1203 6.52197L15.8613 7.31918H15.0232L15.7013 7.81178L15.4423 8.60889L16.1203 8.11628L16.7984 8.60889L16.5394 7.81178L17.2175 7.31918H16.3793L16.1203 6.52197Z" fill="#F0F0F0"/>
<path d="M13.5116 5.73926L13.2526 6.53646H12.4144L13.0925 7.02912L12.8335 7.82623L13.5116 7.33357L14.1897 7.82623L13.9306 7.02912L14.6087 6.53646H13.7706L13.5116 5.73926Z" fill="#F0F0F0"/>
<path d="M14.0869 12.5218L11.9999 9.91309L10.9565 10.4348V11.4783L9.39126 12.5218H8.34778V13.8699C9.87722 14.4892 10.9565 15.9877 10.9565 17.7392H11.9999V16.6957L13.0434 15.6522L14.0869 16.6957L15.1304 15.6522V14.6087L16.1739 13.0435L14.0869 12.5218Z" fill="#FFDA44"/>
</g>
<defs>
<clipPath id="clip0_253_5691">
<rect width="24" height="24" fill="white"/>
</clipPath>
</defs>
</svg>
