<svg width="24" height="24" viewBox="0 0 24 24" fill="none" xmlns="http://www.w3.org/2000/svg">
<g clip-path="url(#clip0_36070_20422)">
<path d="M-6 0H30V24H-6V0Z" fill="white"/>
<path d="M24.24 15.84C23.8 16.12 24.24 16.56 24 16.6C23.76 16.64 23.4 16.04 23.92 15.6C24.56 15 26.24 15.6 26.28 17.32C26.28 18.2 25.92 20.04 23.4 20.04C20.36 20.04 18.84 17.76 18.84 15.48C18.84 13.56 20.32 10.08 21.44 9.64002C22.68 9.16002 24.12 8.24002 24.16 7.64002C24.16 7.44002 23.6 7.60002 22.84 8.00002C21.6 8.68002 20.2 9.00002 20.2 8.56002C20.2 8.12002 21.36 7.32002 21.8 6.72002C22.28 6.08002 22.16 4.52002 23 4.52002C26.04 4.52002 26.96 7.60002 25.8 9.20002C25.04 10.24 27.52 9.60002 27.52 9.60002C27.52 9.60002 27.52 11.72 26.24 12.52C25.04 13.24 24.32 14.08 24.32 14.08C24.32 14.08 24.4 12.24 24.12 12.52C23.88 12.8 19.68 14.32 20 17.32C20.12 18.52 21.8 19.48 23.4 19.4C25 19.32 25.68 18.44 25.72 17.44C25.76 15.88 24.52 15.68 24.24 15.84ZM-1.72002 17.44C-1.68002 18.44 -1.00002 19.32 0.599981 19.4C2.19998 19.48 3.87998 18.52 3.99998 17.32C4.31998 14.32 0.119981 12.8 -0.120019 12.52C-0.400019 12.24 -0.320019 14.08 -0.320019 14.08C-0.320019 14.08 -1.04002 13.24 -2.24002 12.52C-3.52002 11.72 -3.52002 9.60002 -3.52002 9.60002C-3.52002 9.60002 -1.04002 10.24 -1.80002 9.20002C-2.96002 7.60002 -2.04002 4.52002 0.999981 4.52002C1.83998 4.52002 1.71998 6.08002 2.19998 6.72002C2.63998 7.32002 3.79998 8.12002 3.79998 8.56002C3.79998 9.00002 2.39998 8.68002 1.15998 8.00002C0.39998 7.60002 -0.160019 7.44002 -0.160019 7.64002C-0.120019 8.24002 1.31998 9.16002 2.55998 9.64002C3.67998 10.08 5.15998 13.56 5.15998 15.48C5.15998 17.76 3.63998 20.04 0.599981 20.04C-1.92002 20.04 -2.28002 18.2 -2.28002 17.32C-2.24002 15.6 -0.560019 15 0.0799805 15.6C0.559981 16.04 0.239981 16.68 -1.94025e-05 16.6C-0.240019 16.56 0.23998 16.12 -0.24002 15.84C-0.48002 15.68 -1.72002 15.88 -1.72002 17.44Z" fill="#ABABAB" stroke="#7F7F7F" stroke-width="0.1"/>
<path d="M6.40002 11.52V17.12C6.40002 17.88 7.24002 17.76 7.24002 17.76H10.96C11.44 17.76 12 18.68 12 18.68C12 18.68 12.56 17.76 13 17.76H16.84C16.84 17.76 17.64 17.84 17.64 17.04V11.48H6.40002V11.52Z" fill="#DE393A"/>
<path d="M6.40002 5.24023H17.6V11.5202H6.40002V5.24023Z" fill="#3951A3"/>
<path d="M14.04 6.6001C13.88 7.5601 13.04 8.2801 12 8.2801C11 8.2801 10.16 7.5601 9.96002 6.6001C9.76002 6.9601 9.64001 7.3601 9.64001 7.8001C9.64001 9.1201 10.68 10.1601 12 10.1601C13.32 10.1601 14.36 9.1201 14.36 7.8001C14.36 7.3601 14.24 6.9601 14.04 6.6001Z" fill="white"/>
<path d="M9.64 15.7999C10.3027 15.7999 10.84 15.2626 10.84 14.5999C10.84 13.9372 10.3027 13.3999 9.64 13.3999C8.97726 13.3999 8.44 13.9372 8.44 14.5999C8.44 15.2626 8.97726 15.7999 9.64 15.7999Z" fill="#FEE05F"/>
<path d="M14.36 15.7999C15.0227 15.7999 15.56 15.2626 15.56 14.5999C15.56 13.9372 15.0227 13.3999 14.36 13.3999C13.6972 13.3999 13.16 13.9372 13.16 14.5999C13.16 15.2626 13.6972 15.7999 14.36 15.7999Z" fill="#FEE05F"/>
</g>
<defs>
<clipPath id="clip0_36070_20422">
<rect width="24" height="24" rx="12" fill="white"/>
</clipPath>
</defs>
</svg>
