<svg width="24" height="24" viewBox="0 0 24 24" fill="none" xmlns="http://www.w3.org/2000/svg">
<g clip-path="url(#clip0_253_6432)">
<path d="M12 24C18.6274 24 24 18.6274 24 12C24 5.37258 18.6274 0 12 0C5.37258 0 0 5.37258 0 12C0 18.6274 5.37258 24 12 24Z" fill="#F0F0F0"/>
<path d="M3.51471 20.4853C-1.17157 15.7989 -1.17157 8.20098 3.51471 3.51465C3.51438 3.51516 10.4348 12 10.4348 12L3.51471 20.4853Z" fill="black"/>
<path d="M10.4348 11.9999L1.5915 6.02393C1.31733 6.5005 1.07555 6.99794 0.867798 7.51282L5.34478 11.9999L0.867938 16.4873C1.0755 17.0018 1.31705 17.4989 1.59103 17.9751L10.4348 11.9999Z" fill="#FFDA44"/>
<path d="M23.8984 10.4348H10.4345L3.51458 3.51489C2.76889 4.26058 2.12103 5.10391 1.59153 6.02411L7.55586 12L1.59106 17.9752C2.12056 18.8956 2.7687 19.7392 3.51458 20.4851L10.4345 13.5652H23.8984C23.9651 13.0529 24 12.5305 24 12C24 11.4695 23.9651 10.9472 23.8984 10.4348Z" fill="#6DA544"/>
<path d="M4.69397 21.5192C6.71752 23.0746 9.2505 23.9999 12 23.9999C17.5443 23.9999 22.2096 20.2396 23.5866 15.1304H11.0828L4.69397 21.5192Z" fill="#0052B4"/>
<path d="M23.5866 8.86955C22.2096 3.76036 17.5443 0 12 0C9.2505 0 6.71752 0.925359 4.69397 2.48077L11.0828 8.86955H23.5866Z" fill="#D80027"/>
</g>
<defs>
<clipPath id="clip0_253_6432">
<rect width="24" height="24" fill="white"/>
</clipPath>
</defs>
</svg>
