<svg width="24" height="24" viewBox="0 0 24 24" fill="none" xmlns="http://www.w3.org/2000/svg">
<g clip-path="url(#clip0_253_6820)">
<path d="M12 24C18.6274 24 24 18.6274 24 12C24 5.37258 18.6274 0 12 0C5.37258 0 0 5.37258 0 12C0 18.6274 5.37258 24 12 24Z" fill="#496E2D"/>
<path d="M16.6957 12H12V24C13.4027 24 14.7488 23.7585 16 23.3163L16.6957 12Z" fill="#D80027"/>
<path d="M19.9999 20.9434C22.4547 18.7462 24 15.5537 24 12H19.3043L19.9999 20.9434Z" fill="#FF9811"/>
<path d="M16 12V23.3163C17.4905 22.7894 18.8458 21.9766 20 20.9435V12H16Z" fill="black"/>
<path d="M22.1739 7.8262H19.0434C19.0434 7.24992 18.5762 6.78271 17.9999 6.78271C17.4236 6.78271 16.9564 7.24992 16.9564 7.8262H13.826C13.826 8.40253 14.328 8.86968 14.9042 8.86968H14.8695C14.8695 9.44601 15.3366 9.91317 15.913 9.91317C15.913 10.4895 16.3801 10.9567 16.9564 10.9567H19.0434C19.6197 10.9567 20.0869 10.4895 20.0869 9.91317C20.6632 9.91317 21.1304 9.44601 21.1304 8.86968H21.0956C21.6719 8.86964 22.1739 8.40248 22.1739 7.8262Z" fill="#FF9811"/>
</g>
<defs>
<clipPath id="clip0_253_6820">
<rect width="24" height="24" fill="white"/>
</clipPath>
</defs>
</svg>
