<svg width="24" height="24" viewBox="0 0 24 24" fill="none" xmlns="http://www.w3.org/2000/svg">
<g clip-path="url(#clip0_253_4889)">
<path d="M12 24C18.6274 24 24 18.6274 24 12C24 5.37258 18.6274 0 12 0C5.37258 0 0 5.37258 0 12C0 18.6274 5.37258 24 12 24Z" fill="#F0F0F0"/>
<path d="M22.8514 6.87197C22.2417 5.58413 21.4096 4.42242 20.4046 3.43594L11.9999 2.60864L3.59525 3.43599C3.56843 3.46228 3.54228 3.48919 3.51575 3.51577L6.872 6.87202L11.9999 7.02863L22.8514 6.87197Z" fill="#FFDA44"/>
<path d="M3.51562 20.4842C3.55978 20.5284 3.60384 20.5726 3.64866 20.6161L12 21.3912L20.3512 20.6161C21.3665 19.6317 22.2088 18.4699 22.827 17.1801L7.30425 16.6956C5.96864 18.0312 4.42814 19.5716 3.51562 20.4842Z" fill="#FFDA44"/>
<path d="M23.8807 10.3081L9.91309 9.91309L12.0001 12.0001C11.3819 12.6182 10.4591 13.541 9.91309 14.087L23.8734 13.7442C23.9564 13.1747 24.0001 12.5925 24.0001 12.0001C24.0001 11.4256 23.9588 10.861 23.8807 10.3081Z" fill="black"/>
<path d="M12 0C8.72684 0 5.76031 1.31109 3.59534 3.43603H20.4047C18.2397 1.31109 15.2732 0 12 0Z" fill="#6DA544"/>
<path d="M10.308 10.3081H23.8806C23.7094 9.09502 23.357 7.9403 22.8514 6.87207H6.87195L10.308 10.3081Z" fill="#D80027"/>
<path d="M6.81982 17.1802H22.8271C23.3387 16.1127 23.6966 14.9579 23.8734 13.7441H10.2559C8.92521 15.0748 7.7975 16.2025 6.81982 17.1802Z" fill="#D80027"/>
<path d="M12 23.9999C15.2463 23.9999 18.191 22.7103 20.3512 20.6161H3.6488C5.80899 22.7103 8.75368 23.9999 12 23.9999Z" fill="#6DA544"/>
<path d="M4.28504 2.80945C4.01827 3.0336 3.76088 3.26859 3.51465 3.51473L12 12L3.51465 20.4854C3.76084 20.7315 4.01827 20.9665 4.28504 21.1906L13.4756 12L4.28504 2.80945Z" fill="black"/>
<path d="M4.82455 8.86951L5.6015 11.2609H8.11611L6.08183 12.7389L6.85883 15.1304L4.82455 13.6524L2.79022 15.1304L3.56732 12.7389L1.53308 11.2609H4.04755L4.82455 8.86951Z" fill="#D80027"/>
<path d="M6.96184 12.1957L4.93694 11.4783C4.93694 11.4783 4.78731 10.0747 4.77827 10.0272C4.70955 9.66515 4.39141 9.39136 4.00937 9.39136C3.57719 9.39136 3.22675 9.74175 3.22675 10.174C3.22675 10.2457 3.2372 10.3147 3.25525 10.3807L2.6875 10.9522H3.697C3.697 12 2.91512 12 2.91512 13.0435L3.34886 14.087H5.95755L6.39236 13.0435H6.39217C6.43572 12.9434 6.46216 12.8401 6.47308 12.737C6.84789 12.5854 6.96184 12.1957 6.96184 12.1957Z" fill="#FFDA44"/>
</g>
<defs>
<clipPath id="clip0_253_4889">
<rect width="24" height="24" fill="white"/>
</clipPath>
</defs>
</svg>
